<svg width="660" height="244" viewBox="0 0 660 244" fill="none" xmlns="http://www.w3.org/2000/svg">
<path opacity="0.45" d="M181.247 298.006C70.0231 282.773 -80 233.316 -80 208.637C-80 183.959 -9.30414 192.389 200.216 192.389C409.736 192.389 518.369 211.684 514.92 267.54C511.472 323.395 292.472 313.24 181.247 298.006Z" fill="#E6E6E6"/>
<path opacity="0.1" d="M253.717 54.0389C441.071 102.186 571.647 -38.3389 651 179C730.353 396.339 254.605 236.179 209.723 244.051C122.391 259.365 15.8254 279.068 -5.04462 237.74C-25.9146 196.411 -27.0956 66.4825 54.7417 34.7111C136.579 2.93959 203.157 35.1473 253.717 54.0389Z" fill="url(#paint0_linear)"/>
<path d="M185.708 130.744L164.598 130.82L164.816 199.217L185.926 199.141C194.179 199.141 200.821 183.776 200.755 164.89C200.688 146.004 193.961 130.716 185.708 130.744Z" fill="#383838"/>
<path d="M164.806 199.69C164.682 199.685 164.564 199.635 164.475 199.548C164.386 199.46 164.335 199.341 164.333 199.216L164.124 130.82C164.124 130.694 164.174 130.574 164.263 130.485C164.352 130.396 164.472 130.346 164.598 130.346L185.708 130.271C189.887 130.271 193.79 133.915 196.709 140.533C199.627 147.15 201.171 155.679 201.2 164.89C201.266 184.004 194.397 199.586 185.898 199.614L164.787 199.69H164.806ZM165.072 131.293L165.28 198.734L185.926 198.667C193.904 198.667 200.347 183.521 200.281 164.89C200.281 155.821 198.689 147.301 195.875 140.911C193.118 134.663 189.517 131.217 185.737 131.217L165.072 131.293Z" fill="#383838"/>
<path d="M164.791 199.222C173.043 199.198 179.688 183.869 179.631 164.984C179.575 146.1 172.84 130.811 164.588 130.835C156.336 130.86 149.691 146.189 149.747 165.073C149.803 183.958 156.539 199.247 164.791 199.222Z" fill="#383838"/>
<path d="M164.787 199.69C160.609 199.69 156.696 196.045 153.778 189.428C150.859 182.811 149.315 174.281 149.286 165.07C149.23 145.957 156.099 130.375 164.598 130.346C168.786 130.346 172.69 133.991 175.608 140.608C178.526 147.226 180.071 155.755 180.099 164.966C180.156 184.079 173.296 199.652 164.797 199.69H164.787ZM164.617 131.293C156.639 131.293 150.196 146.44 150.253 165.07C150.253 174.139 151.854 182.65 154.668 189.04C157.482 195.43 161.026 198.743 164.806 198.743C172.784 198.743 179.227 183.596 179.17 164.966C179.17 155.897 177.579 147.377 174.755 140.987C172.007 134.739 168.407 131.293 164.617 131.293Z" fill="#383838"/>
<path d="M164.767 191.119C171.062 191.1 176.131 179.404 176.088 164.995C176.045 150.586 170.907 138.92 164.612 138.939C158.317 138.957 153.248 150.653 153.291 165.062C153.334 179.472 158.472 191.137 164.767 191.119Z" fill="white"/>
<path d="M164.769 191.539C161.547 191.539 158.543 188.699 156.307 183.663C154.071 178.627 152.896 172.085 152.868 165.061C152.868 150.435 158.098 138.554 164.617 138.497C167.838 138.497 170.842 141.29 173.088 146.364C175.333 151.438 176.499 157.951 176.518 164.976C176.518 179.602 171.297 191.482 164.769 191.539ZM164.636 139.359C158.581 139.359 153.702 150.908 153.749 165.051C153.749 171.962 154.962 178.447 157.103 183.322C159.245 188.197 161.926 190.678 164.778 190.678C170.823 190.678 175.703 179.128 175.655 164.976C175.655 158.065 174.442 151.58 172.301 146.714C170.16 141.849 167.497 139.359 164.636 139.359Z" fill="#383838"/>
<path d="M240.929 130.555L219.818 130.621L220.036 199.018L241.147 198.942C249.399 198.942 256.041 183.578 255.975 164.692C255.909 145.806 249.181 130.526 240.929 130.555Z" fill="#383838"/>
<path d="M220.036 199.491C219.973 199.492 219.91 199.48 219.851 199.455C219.792 199.431 219.739 199.395 219.695 199.349C219.609 199.26 219.562 199.141 219.562 199.018L219.345 130.64C219.345 130.513 219.394 130.392 219.483 130.302C219.571 130.212 219.692 130.16 219.818 130.157L240.929 130.091C245.145 130.091 249.039 133.717 251.957 140.353C254.876 146.989 256.42 155.499 256.449 164.701C256.515 183.824 249.646 199.396 241.147 199.425L220.036 199.5V199.491ZM220.292 131.094L220.5 198.544L241.147 198.469C249.124 198.469 255.567 183.322 255.501 164.701C255.501 155.622 253.909 147.112 251.095 140.722C248.281 134.332 244.738 131.028 240.957 131.028L220.292 131.094Z" fill="#383838"/>
<path d="M220.01 199.03C228.263 199.006 234.907 183.677 234.851 164.792C234.795 145.908 228.06 130.619 219.807 130.643C211.555 130.668 204.911 145.996 204.967 164.881C205.023 183.765 211.758 199.055 220.01 199.03Z" fill="#383838"/>
<path d="M220.008 199.491C215.829 199.491 211.916 195.846 208.998 189.229C206.08 182.612 204.535 174.083 204.507 164.881C204.45 145.758 211.319 130.186 219.818 130.148C224.006 130.148 227.91 133.792 230.828 140.41C233.747 147.027 235.291 155.556 235.319 164.767C235.376 183.881 228.516 199.463 220.017 199.491H220.008ZM219.837 131.094C211.859 131.094 205.416 146.241 205.473 164.871C205.473 173.941 207.074 182.461 209.889 188.851C212.646 195.099 216.246 198.544 220.027 198.544C228.005 198.544 234.448 183.398 234.391 164.767C234.391 155.698 232.799 147.188 229.985 140.798C227.171 134.408 223.627 131.094 219.837 131.094Z" fill="#383838"/>
<path d="M219.986 190.927C226.282 190.908 231.35 179.212 231.307 164.803C231.264 150.394 226.127 138.728 219.831 138.746C213.536 138.765 208.468 150.461 208.511 164.87C208.553 179.279 213.691 190.945 219.986 190.927Z" fill="white"/>
<path d="M219.989 191.34C216.767 191.34 213.764 188.5 211.528 183.474C209.292 178.447 208.117 171.886 208.088 164.862C208.088 150.236 213.318 138.355 219.837 138.299C223.059 138.299 226.062 141.091 228.308 146.175C230.553 151.258 231.719 157.753 231.738 164.777C231.738 179.403 226.517 191.284 219.989 191.34ZM219.856 139.16C213.802 139.16 208.922 150.709 208.969 164.853C208.969 171.763 210.182 178.248 212.324 183.114C214.465 187.98 217.137 190.469 219.998 190.469C226.043 190.469 230.923 178.92 230.885 164.777C230.885 157.866 229.663 151.382 227.521 146.506C225.38 141.631 222.765 139.16 219.856 139.16Z" fill="#383838"/>
<path d="M318.557 130.28L297.447 130.356L297.655 198.743L318.775 198.668C327.028 198.668 333.66 183.303 333.604 164.417C333.547 145.531 326.81 130.252 318.557 130.28Z" fill="#383838"/>
<path d="M297.617 199.217C297.494 199.217 297.375 199.17 297.286 199.084C297.197 198.993 297.146 198.871 297.144 198.743L296.935 130.356C296.934 130.294 296.945 130.233 296.968 130.176C296.991 130.118 297.025 130.066 297.068 130.022C297.111 129.978 297.163 129.943 297.22 129.919C297.277 129.895 297.338 129.883 297.4 129.883L318.519 129.807C322.707 129.807 326.611 133.442 329.529 140.069C332.448 146.695 333.992 155.215 334.02 164.417C334.087 183.54 327.217 199.112 318.718 199.141L297.599 199.217H297.617ZM297.883 130.82L298.091 198.27L318.728 198.194C326.706 198.194 333.149 183.047 333.092 164.427C333.092 155.348 331.5 146.837 328.686 140.447C325.872 134.057 322.328 130.754 318.538 130.754L297.883 130.82Z" fill="#383838"/>
<path d="M297.638 198.762C305.89 198.738 312.535 183.409 312.478 164.524C312.422 145.64 305.687 130.351 297.435 130.375C289.183 130.4 282.538 145.728 282.594 164.613C282.651 183.497 289.386 198.786 297.638 198.762Z" fill="#383838"/>
<path d="M297.618 199.217C293.43 199.217 289.526 195.572 286.608 188.955C283.689 182.338 282.145 173.808 282.116 164.607C282.06 145.484 288.919 129.911 297.419 129.883C301.597 129.883 305.51 133.518 308.428 140.145C311.347 146.771 312.891 155.291 312.92 164.493C312.976 183.616 306.117 199.188 297.608 199.217H297.618ZM297.447 130.829C289.469 130.829 283.026 145.976 283.083 164.597C283.083 173.666 284.675 182.186 287.498 188.576C290.322 194.966 293.828 198.27 297.618 198.27C305.595 198.27 312.038 183.123 311.982 164.493C311.982 155.424 310.38 146.913 307.566 140.523C304.752 134.133 301.246 130.829 297.466 130.829H297.447Z" fill="#383838"/>
<path d="M297.049 191.482C303.344 191.482 308.447 179.801 308.447 165.392C308.447 150.983 303.344 139.302 297.049 139.302C290.754 139.302 285.651 150.983 285.651 165.392C285.651 179.801 290.754 191.482 297.049 191.482Z" fill="white"/>
<path d="M297.617 191.066C294.396 191.066 291.392 188.226 289.156 183.199C286.92 178.172 285.736 171.621 285.717 164.587C285.669 149.971 290.947 138.081 297.466 138.024C300.687 138.024 303.691 140.817 305.927 145.9C308.163 150.984 309.338 157.478 309.366 164.512C309.414 179.128 304.136 191.018 297.617 191.066ZM297.485 138.895C291.44 138.895 286.56 150.444 286.608 164.587C286.608 171.498 287.82 177.983 289.962 182.849C292.103 187.714 294.775 190.204 297.636 190.204C303.691 190.204 308.571 178.655 308.523 164.512C308.523 157.601 307.31 151.116 305.169 146.25C303.028 141.385 300.346 138.895 297.485 138.895Z" fill="#383838"/>
<path d="M119.345 130.981L98.2351 131.056L98.453 199.444L119.563 199.368C127.816 199.368 134.458 184.013 134.401 165.127C134.344 146.241 127.598 130.952 119.345 130.981Z" fill="#383838"/>
<path d="M98.453 199.917C98.3294 199.918 98.2104 199.87 98.1214 199.785C98.0756 199.741 98.0394 199.688 98.0149 199.629C97.9905 199.57 97.9784 199.507 97.9793 199.444L97.7614 131.057C97.7614 130.931 97.8113 130.811 97.9001 130.722C97.989 130.633 98.1095 130.583 98.2351 130.583L119.345 130.508C123.524 130.508 127.437 134.152 130.355 140.769C133.274 147.387 134.818 155.916 134.847 165.118C134.903 184.24 128.034 199.813 119.535 199.841L98.4246 199.917H98.453ZM98.7089 131.53L98.9268 198.97L119.563 198.895C127.541 198.895 133.984 183.748 133.927 165.127C133.927 156.058 132.326 147.538 129.512 141.148C126.755 134.9 123.154 131.454 119.374 131.454L98.7089 131.53Z" fill="#383838"/>
<path d="M98.4386 199.447C106.691 199.423 113.335 184.094 113.279 165.21C113.223 146.325 106.488 131.036 98.2355 131.06C89.9832 131.085 83.3389 146.414 83.395 165.298C83.4511 184.183 90.1863 199.472 98.4386 199.447Z" fill="#383838"/>
<path d="M98.4246 199.917C94.2461 199.917 90.3424 196.272 87.4241 189.655C84.5058 183.038 82.9614 174.509 82.933 165.307C82.8666 146.184 89.736 130.612 98.2351 130.583C102.414 130.583 106.317 134.228 109.236 140.845C112.154 147.462 113.698 155.992 113.736 165.193C113.793 184.316 106.924 199.889 98.4246 199.917ZM98.2635 131.53C90.2856 131.53 83.8426 146.677 83.9089 165.298C83.9089 174.376 85.5007 182.887 88.3148 189.277C91.1288 195.667 94.6725 198.97 98.453 198.97C106.431 198.97 112.874 183.824 112.817 165.203C112.817 156.124 111.216 147.614 108.402 141.224C105.588 134.834 102.044 131.53 98.2635 131.53Z" fill="#383838"/>
<path d="M98.4145 191.344C104.71 191.325 109.778 179.629 109.735 165.22C109.693 150.811 104.555 139.145 98.2595 139.164C91.9644 139.182 86.8958 150.878 86.9386 165.288C86.9814 179.697 92.1193 191.362 98.4145 191.344Z" fill="white"/>
<path d="M98.4057 191.776C95.1842 191.776 92.1806 188.936 89.9445 183.9C87.7084 178.863 86.5335 172.293 86.5145 165.288C86.5145 150.672 91.7353 138.781 98.2635 138.725C101.485 138.725 104.489 141.565 106.725 146.601C108.961 151.637 110.136 158.179 110.155 165.212C110.155 179.829 104.934 191.719 98.4057 191.776ZM98.2825 139.596C92.2374 139.596 87.3483 151.145 87.3957 165.288C87.3957 172.199 88.6085 178.683 90.7593 183.549C92.9102 188.415 95.5726 190.905 98.4246 190.905C104.47 190.905 109.359 179.356 109.311 165.212C109.311 158.302 108.099 151.817 105.948 146.951C103.797 142.085 101.134 139.596 98.2825 139.596Z" fill="#383838"/>
<path d="M351.511 177.841C350.659 179.904 348.47 182.46 342.804 182.479L263.915 182.754C255.842 182.754 253.758 184.761 249.56 179.507C245.363 174.253 238.996 147.652 230.904 139.463C222.812 131.274 216.834 131.624 209.699 143.808C202.564 155.992 208.022 182.953 208.022 182.953L124.481 183.246C119.686 179.639 122.074 178.977 119.942 167.806C117.81 156.635 112.362 143.193 107.625 137.92C102.887 132.647 93.8481 131.066 87.0261 145.228C80.2705 159.248 84.3542 180.614 84.4395 181.078L81.4548 179.45C78.4607 177.812 76.9447 172.89 76.3478 170.258C75.7509 167.626 67.9624 164.37 67.9435 161.085C67.9435 159.589 67.8108 155.083 67.9435 150.037C67.9435 149.942 67.9435 149.838 67.9435 149.734C67.9944 145.788 68.3428 141.851 68.9857 137.958C69.0489 137.598 69.1247 137.248 69.2131 136.907C69.4335 135.827 69.7834 134.779 70.2554 133.783C73.2211 127.857 78.2997 126.21 82.7813 124.865C87.263 123.521 88.1347 117.604 95.8758 109.719C103.617 101.833 114.579 89.6209 129.986 86.9986C139.12 85.4272 169.876 84.1018 196.633 84.7077C224.376 85.3514 249.456 87.1312 261.395 91.4953C273.333 95.8594 295.722 117.642 295.722 117.642C295.722 117.642 315.014 123.767 330.78 130.233C335.063 131.994 338.597 133.783 340.643 135.458C342.53 137.165 344.032 139.253 345.049 141.583C349.427 150.662 351.227 165.25 351.852 171.782C352.051 173.912 352.127 175.209 352.127 175.209C352.1 176.119 351.891 177.013 351.511 177.841Z" fill="url(#paint1_linear)"/>
<path opacity="0.2" d="M223.561 117.898L196.576 89.9333C196.576 89.9333 248.575 90.4067 260.542 95.1874C272.717 100.053 288.512 117.671 288.512 117.671L223.561 117.898Z" fill="#6D56BA"/>
<path opacity="0.2" d="M146.832 118.173L151.826 90.7192C151.826 90.7192 182.43 89.2992 189.508 90.5866C196.586 91.8741 217.535 117.889 217.535 117.889L146.832 118.173Z" fill="#6D56BA"/>
<path opacity="0.2" d="M143.999 118.182L148.993 90.7285C148.993 90.7285 128.28 91.9497 121.515 94.6099C110.145 99.0876 95.5916 118.277 95.5916 118.277L143.999 118.182Z" fill="#6D56BA"/>
<path d="M142.228 176.923C142.172 176.924 142.116 176.914 142.064 176.894C142.011 176.874 141.964 176.843 141.923 176.805C141.883 176.766 141.85 176.72 141.828 176.668C141.805 176.617 141.793 176.562 141.792 176.506C141.744 174.802 140.626 134.853 141.612 129.769C142.238 126.608 143.391 123.574 145.023 120.795C145.085 120.699 145.182 120.631 145.294 120.606C145.406 120.582 145.523 120.602 145.62 120.662C145.668 120.691 145.71 120.73 145.743 120.775C145.776 120.821 145.799 120.873 145.811 120.927C145.824 120.982 145.825 121.039 145.815 121.094C145.805 121.15 145.783 121.202 145.752 121.249C144.191 123.949 143.077 126.884 142.455 129.94C141.507 134.881 142.644 176.071 142.654 176.478C142.658 176.535 142.65 176.592 142.631 176.646C142.612 176.7 142.581 176.749 142.542 176.791C142.503 176.832 142.456 176.866 142.403 176.888C142.351 176.911 142.294 176.923 142.237 176.923H142.228Z" fill="#D1D3D4"/>
<path opacity="0.4" d="M277.644 130.422L240.929 130.555C238.645 130.555 243.146 138.27 248.234 140.391C253.322 142.511 276.934 142.284 278.118 140.448C279.302 138.611 280.487 132.221 277.644 130.422Z" fill="#E0693C"/>
<path opacity="0.4" d="M344.992 141.583C337.138 141.82 328.743 141.356 328.042 140.268C326.838 138.422 325.616 132.06 328.449 130.242H330.723C335.006 132.003 338.54 133.792 340.587 135.468C342.472 137.172 343.974 139.256 344.992 141.583Z" fill="#E0693C"/>
<path opacity="0.1" d="M74.4244 136.888C74.4244 136.888 74.1591 147.084 72.2262 148.57C70.921 149.332 69.4364 149.734 67.9246 149.734C67.9755 145.788 68.3239 141.851 68.9668 137.958C69.03 137.598 69.1058 137.248 69.1942 136.907L74.4244 136.888Z" fill="#383838"/>
<path d="M130.611 176.97C130.496 176.97 130.385 176.924 130.303 176.842C130.221 176.761 130.175 176.65 130.175 176.534C130.175 176.419 130.221 176.308 130.303 176.226C130.385 176.145 130.496 176.099 130.611 176.099L205.018 175.843C205.132 175.843 205.242 175.888 205.323 175.967C205.405 176.047 205.452 176.155 205.454 176.269C205.454 176.385 205.408 176.496 205.327 176.577C205.245 176.659 205.134 176.705 205.018 176.705L130.611 176.97Z" fill="#D1D3D4"/>
<path d="M252.204 165.771C252.1 165.756 252.006 165.704 251.938 165.625C251.87 165.545 251.832 165.445 251.832 165.34C251.832 165.236 251.87 165.135 251.938 165.056C252.006 164.977 252.1 164.925 252.204 164.909L347.683 164.569C347.799 164.569 347.91 164.614 347.992 164.696C348.073 164.778 348.119 164.889 348.119 165.004C348.119 165.12 348.073 165.23 347.992 165.312C347.91 165.394 347.799 165.44 347.683 165.44L252.213 165.771H252.204Z" fill="#D1D3D4"/>
<path d="M257.169 178.172C257.169 178.172 251.019 170.958 253.559 170.457C256.098 169.955 280.468 172.994 281.216 174.243C281.728 175.467 281.985 176.78 281.974 178.106L257.169 178.172Z" fill="#383838"/>
<path d="M257.169 178.645C257.1 178.645 257.032 178.63 256.97 178.601C256.907 178.571 256.852 178.528 256.809 178.475C255.984 177.528 251.91 172.596 252.545 170.75C252.619 170.55 252.746 170.373 252.913 170.24C253.08 170.106 253.28 170.021 253.492 169.993C255.16 169.652 280.544 172.18 281.643 173.978C282.201 175.275 282.482 176.675 282.467 178.087C282.467 178.212 282.417 178.333 282.328 178.422C282.239 178.51 282.119 178.56 281.993 178.56L257.188 178.645H257.169ZM254.686 170.854C254.341 170.844 253.995 170.866 253.654 170.921C253.483 170.921 253.455 171.015 253.445 171.063C253.113 172.009 255.501 175.455 257.387 177.689L281.482 177.604C281.472 176.522 281.244 175.452 280.809 174.461C279.615 173.524 259.983 170.854 254.686 170.854Z" fill="#383838"/>
<path d="M351.511 177.841H340.672C340.651 176.516 340.902 175.202 341.411 173.978C341.724 173.448 346.366 172.549 351.767 171.744C351.966 173.874 352.042 175.171 352.042 175.171C352.047 176.088 351.866 176.996 351.511 177.841Z" fill="#383838"/>
<path d="M340.672 178.352C340.61 178.353 340.548 178.341 340.491 178.316C340.434 178.292 340.383 178.256 340.34 178.21C340.252 178.122 340.201 178.003 340.198 177.879C340.174 176.468 340.449 175.068 341.004 173.77C341.174 173.486 341.563 172.824 351.701 171.318C351.764 171.306 351.829 171.308 351.892 171.324C351.954 171.341 352.012 171.371 352.061 171.413C352.161 171.492 352.226 171.608 352.241 171.735C352.44 173.874 352.516 175.181 352.516 175.181C352.515 176.156 352.321 177.121 351.947 178.021C351.911 178.106 351.85 178.18 351.773 178.232C351.695 178.284 351.605 178.313 351.511 178.314H340.672V178.352ZM351.341 172.293C344.415 173.344 342.065 174.035 341.78 174.281C341.374 175.263 341.162 176.315 341.155 177.377H351.18C351.429 176.691 351.56 175.967 351.568 175.238C351.568 175.238 351.502 174.187 351.341 172.293Z" fill="#383838"/>
<path d="M333.84 159.987L275.19 160.195C274.658 160.172 274.148 159.974 273.741 159.631C273.333 159.289 273.05 158.822 272.935 158.302L270.585 149.526C270.112 147.756 271.239 145.948 272.821 145.938L331.472 145.73C332.009 145.759 332.522 145.965 332.931 146.316C333.339 146.667 333.619 147.144 333.727 147.671L336.077 156.437C336.55 158.169 335.423 159.987 333.84 159.987Z" fill="white"/>
<path d="M275.181 160.659C274.54 160.632 273.927 160.393 273.436 159.98C272.946 159.567 272.606 159.004 272.471 158.377L270.14 149.573C269.994 149.049 269.97 148.498 270.07 147.963C270.17 147.428 270.392 146.923 270.718 146.487C270.963 146.155 271.28 145.883 271.647 145.693C272.013 145.503 272.418 145.399 272.831 145.389L331.481 145.181C332.123 145.209 332.738 145.449 333.228 145.864C333.719 146.278 334.057 146.844 334.191 147.472L336.531 156.238C336.678 156.762 336.703 157.313 336.602 157.848C336.502 158.383 336.28 158.888 335.953 159.324C335.711 159.659 335.394 159.933 335.027 160.123C334.66 160.314 334.254 160.416 333.84 160.422L275.19 160.631L275.181 160.659ZM331.481 146.156L272.821 146.364C272.553 146.372 272.29 146.442 272.053 146.568C271.817 146.695 271.612 146.874 271.457 147.093C271.22 147.416 271.06 147.788 270.988 148.181C270.916 148.575 270.934 148.98 271.04 149.365L273.39 158.131C273.472 158.555 273.693 158.94 274.016 159.226C274.34 159.512 274.75 159.683 275.181 159.712L333.84 159.504C334.108 159.498 334.371 159.43 334.608 159.305C334.844 159.18 335.049 159.002 335.205 158.785C335.441 158.461 335.601 158.089 335.673 157.696C335.745 157.303 335.728 156.898 335.622 156.513L333.272 147.746C333.19 147.322 332.97 146.936 332.646 146.648C332.323 146.361 331.913 146.188 331.481 146.156Z" fill="#D1D3D4"/>
<path d="M156.317 129.637C155.373 129.637 154.467 129.263 153.798 128.598C153.128 127.933 152.75 127.03 152.745 126.087V125.907C152.747 125.793 152.794 125.685 152.876 125.605C152.957 125.525 153.067 125.481 153.181 125.481L172.282 125.405C172.399 125.412 172.509 125.458 172.595 125.538C172.674 125.619 172.718 125.727 172.718 125.84V126.001C172.719 126.469 172.628 126.932 172.451 127.364C172.273 127.797 172.011 128.19 171.681 128.521C171.351 128.853 170.959 129.116 170.528 129.296C170.096 129.476 169.633 129.569 169.165 129.57L156.326 129.618L156.317 129.637ZM153.626 126.323C153.698 126.986 154.013 127.599 154.509 128.044C155.006 128.49 155.649 128.737 156.317 128.737L169.155 128.69C169.823 128.686 170.466 128.435 170.959 127.986C171.452 127.537 171.762 126.921 171.827 126.257L153.626 126.323Z" fill="#D1D3D4"/>
<path d="M98.1119 128.198C97.345 128.198 96.6091 127.895 96.0653 127.355C95.7904 127.088 95.5723 126.769 95.4242 126.416C95.276 126.063 95.2008 125.684 95.2031 125.301V124.487C95.203 124.373 95.2476 124.264 95.3273 124.182C95.407 124.101 95.5155 124.054 95.6294 124.051H107.577C107.691 124.051 107.799 124.096 107.881 124.174C107.922 124.213 107.955 124.26 107.978 124.312C108 124.364 108.012 124.421 108.013 124.477V125.291C108.016 126.063 107.712 126.804 107.169 127.353C106.625 127.901 105.886 128.212 105.114 128.217H98.1213L98.1119 128.198ZM96.0653 124.96V125.329C96.0678 125.871 96.2842 126.389 96.6675 126.772C97.0507 127.155 97.5699 127.372 98.1119 127.374H105.095C105.372 127.377 105.647 127.323 105.903 127.217C106.159 127.111 106.391 126.954 106.585 126.756C106.779 126.558 106.931 126.323 107.031 126.064C107.132 125.806 107.179 125.53 107.17 125.254V124.875L96.0653 124.96Z" fill="#D1D3D4"/>
<path d="M163.863 30.0565C163.865 27.9179 164.715 25.8673 166.228 24.3543C167.741 22.8414 169.792 21.9894 171.933 21.9852C172.368 21.9896 172.803 22.0269 173.233 22.0967C174.162 20.3675 175.542 18.9219 177.227 17.9132C178.912 16.9046 180.838 16.3706 182.803 16.3679H183.193C182.937 15.3437 182.806 14.2923 182.803 13.2365C182.76 11.514 183.062 9.80021 183.693 8.19625C184.323 6.59229 185.268 5.13053 186.472 3.89706C187.676 2.6636 189.116 1.68336 190.705 1.01408C192.294 0.344793 194.001 0 195.726 0C197.45 0 199.158 0.344793 200.747 1.01408C202.336 1.68336 203.775 2.6636 204.979 3.89706C206.184 5.13053 207.129 6.59229 207.759 8.19625C208.389 9.80021 208.692 11.514 208.649 13.2365C208.647 14.2928 208.513 15.3448 208.25 16.3679C208.386 16.3679 208.513 16.3679 208.649 16.3679C211.486 16.4446 214.181 17.6245 216.161 19.6566C218.14 21.6886 219.248 24.4123 219.248 27.2479C219.248 30.0835 218.14 32.8072 216.161 34.8392C214.181 36.8712 211.486 38.0512 208.649 38.1279H170.856V38.0721C168.917 37.8079 167.14 36.85 165.854 35.376C164.567 33.902 163.86 32.012 163.863 30.0565Z" fill="#EFEFEF"/>
<path d="M305 66.8411C304.998 66.1593 305.128 65.4837 305.382 64.8532C305.637 64.2226 306.011 63.6495 306.482 63.1666C306.954 62.6837 307.515 62.3006 308.132 62.0392C308.75 61.7778 309.412 61.6432 310.08 61.6432C310.355 61.6466 310.628 61.6701 310.9 61.7135C311.485 60.6036 312.354 59.676 313.414 59.0292C314.474 58.3823 315.687 58.0405 316.922 58.0398H317.175C317.008 57.3837 316.923 56.7088 316.922 56.031C316.987 53.8786 317.871 51.8366 319.386 50.3375C320.901 48.8384 322.929 48 325.04 48C327.151 48 329.179 48.8384 330.694 50.3375C332.209 51.8366 333.093 53.8786 333.158 56.031C333.155 56.7082 333.073 57.3826 332.913 58.0398H333.158C334.972 58.0398 336.713 58.7752 337.996 60.0842C339.279 61.3933 340 63.1687 340 65.0199C340 66.8711 339.279 68.6466 337.996 69.9556C336.713 71.2646 334.972 72 333.158 72H309.406V71.9531C308.191 71.7855 307.076 71.176 306.267 70.2368C305.457 69.2976 305.007 68.0917 305 66.8411Z" fill="white"/>
<path opacity="0.43" d="M15.2625 75.7118C15.2625 75.0184 15.3994 74.3318 15.6652 73.6914C15.931 73.0509 16.3206 72.4691 16.8116 71.9792C17.3027 71.4893 17.8856 71.1009 18.5271 70.8363C19.1685 70.5717 19.8559 70.436 20.5498 70.4371C20.8331 70.4369 21.1159 70.4608 21.3951 70.5088C22.0036 69.3768 22.9078 68.4307 24.0115 67.7713C25.1153 67.1119 26.3773 66.7637 27.6633 66.7639H27.9265C27.7537 66.095 27.6653 65.4071 27.6633 64.7162C27.6286 63.5858 27.8214 62.4599 28.2304 61.4054C28.6394 60.3508 29.2561 59.389 30.0442 58.5771C30.8322 57.7652 31.7754 57.1197 32.8178 56.6789C33.8603 56.2381 34.9807 56.011 36.1126 56.011C37.2446 56.011 38.365 56.2381 39.4074 56.6789C40.4499 57.1197 41.3931 57.7652 42.1811 58.5771C42.9691 59.389 43.5859 60.3508 43.9949 61.4054C44.4039 62.4599 44.5967 63.5858 44.5619 64.7162C44.5677 65.4109 44.4901 66.1037 44.3307 66.7799H44.5859C45.5406 66.7479 46.492 66.9082 47.3834 67.2512C48.2749 67.5942 49.0881 68.1129 49.7748 68.7764C50.4615 69.4399 51.0076 70.2346 51.3805 71.1133C51.7534 71.992 51.9456 72.9367 51.9456 73.8911C51.9456 74.8455 51.7534 75.7902 51.3805 76.6689C51.0076 77.5476 50.4615 78.3423 49.7748 79.0058C49.0881 79.6693 48.2749 80.188 47.3834 80.531C46.492 80.874 45.5406 81.0343 44.5859 81.0024H19.864V80.9545C18.5898 80.7897 17.4196 80.1663 16.5725 79.2012C15.7254 78.236 15.2597 76.9954 15.2625 75.7118Z" fill="white"/>
<defs>
<linearGradient id="paint0_linear" x1="272.474" y1="21.302" x2="272.666" y2="218.522" gradientUnits="userSpaceOnUse">
<stop stop-color="white"/>
<stop offset="1" stop-color="white" stop-opacity="0"/>
</linearGradient>
<linearGradient id="paint1_linear" x1="210.006" y1="84.5579" x2="210.006" y2="183.246" gradientUnits="userSpaceOnUse">
<stop stop-color="white"/>
<stop offset="1" stop-color="#D6D6D6"/>
</linearGradient>
</defs>
</svg>
