<svg width="1912" height="316" viewBox="0 0 1912 316" fill="none" xmlns="http://www.w3.org/2000/svg">
<path opacity="0.04" d="M1452.85 245.872C1513.11 226.231 1673.97 404.746 1724.61 254.789C1775.24 104.831 1600.12 128.125 1538.72 134.812C1477.32 141.499 1406.19 118.427 1369.24 127.634C1332.28 136.842 1291.3 166.345 1305.32 228.383C1319.34 290.422 1392.59 265.513 1452.85 245.872Z" fill="#3F3F3F"/>
<path d="M2183.61 420C2183.61 697.479 -63.2798 555.418 -78.8118 241.42C-78.8118 181.709 168.478 147.959 416.332 209.479C664.187 271 863.853 517.172 1380.73 241.42C1897.61 -34.3315 2183.62 142.52 2183.61 420Z" fill="#19A98A"/>
<path opacity="0.04" d="M250.76 58.0354C457.509 112.504 633.5 -31.5 580.499 304.5C527.497 640.5 251.739 264.091 202.211 272.997C105.838 290.322 -11.7595 312.613 -34.79 265.857C-57.8206 219.101 -59.1238 72.113 31.1855 36.1697C121.495 0.2265 194.965 36.6632 250.76 58.0354Z" fill="#3F3F3F"/>
<path d="M154.708 130.744L133.598 130.82L133.816 199.216L154.926 199.141C163.179 199.141 169.821 183.776 169.754 164.89C169.688 146.004 162.961 130.716 154.708 130.744Z" fill="#383838"/>
<path d="M133.806 199.69C133.682 199.685 133.564 199.635 133.475 199.548C133.386 199.46 133.335 199.341 133.332 199.216L133.124 130.82C133.124 130.694 133.174 130.574 133.263 130.485C133.352 130.396 133.472 130.346 133.598 130.346L154.708 130.271C158.887 130.271 162.79 133.915 165.709 140.533C168.627 147.15 170.171 155.679 170.2 164.89C170.266 184.004 163.397 199.586 154.898 199.614L133.787 199.69H133.806ZM134.072 131.293L134.28 198.734L154.926 198.667C162.904 198.667 169.347 183.521 169.281 164.89C169.281 155.821 167.689 147.301 164.875 140.911C162.118 134.663 158.517 131.217 154.736 131.217L134.072 131.293Z" fill="#383838"/>
<path d="M133.791 199.222C142.043 199.198 148.687 183.869 148.631 164.984C148.575 146.1 141.84 130.811 133.588 130.835C125.335 130.86 118.691 146.188 118.747 165.073C118.803 183.957 125.538 199.247 133.791 199.222Z" fill="#383838"/>
<path d="M133.788 199.69C129.609 199.69 125.696 196.045 122.778 189.428C119.859 182.811 118.315 174.281 118.286 165.07C118.23 145.957 125.099 130.375 133.598 130.346C137.786 130.346 141.69 133.991 144.608 140.608C147.526 147.225 149.071 155.755 149.099 164.966C149.156 184.079 142.296 199.652 133.797 199.69H133.788ZM133.617 131.293C125.639 131.293 119.196 146.44 119.253 165.07C119.253 174.139 120.854 182.65 123.668 189.04C126.482 195.43 130.026 198.743 133.807 198.743C141.784 198.743 148.227 183.596 148.171 164.966C148.171 155.897 146.579 147.377 143.755 140.987C141.008 134.739 137.407 131.293 133.617 131.293Z" fill="#383838"/>
<path d="M133.767 191.119C140.062 191.1 145.131 179.404 145.088 164.995C145.045 150.586 139.907 138.92 133.612 138.939C127.317 138.957 122.249 150.653 122.291 165.062C122.334 179.472 127.472 191.137 133.767 191.119Z" fill="white"/>
<path d="M133.769 191.539C130.547 191.539 127.544 188.699 125.308 183.663C123.071 178.627 121.897 172.085 121.868 165.061C121.868 150.435 127.098 138.554 133.617 138.497C136.839 138.497 139.842 141.29 142.088 146.364C144.333 151.438 145.499 157.951 145.518 164.976C145.518 179.602 140.297 191.482 133.769 191.539ZM133.636 139.359C127.582 139.359 122.702 150.908 122.749 165.051C122.749 171.962 123.962 178.447 126.103 183.322C128.245 188.197 130.926 190.678 133.778 190.678C139.823 190.678 144.703 179.128 144.656 164.976C144.656 158.065 143.443 151.58 141.301 146.714C139.16 141.849 136.498 139.359 133.636 139.359Z" fill="#383838"/>
<path d="M209.929 130.555L188.818 130.621L189.036 199.018L210.147 198.942C218.399 198.942 225.041 183.578 224.975 164.692C224.909 145.806 218.181 130.526 209.929 130.555Z" fill="#383838"/>
<path d="M189.036 199.491C188.973 199.492 188.91 199.48 188.851 199.455C188.792 199.431 188.739 199.395 188.695 199.349C188.61 199.26 188.562 199.141 188.563 199.018L188.345 130.64C188.345 130.513 188.394 130.392 188.483 130.302C188.571 130.212 188.692 130.16 188.818 130.157L209.929 130.091C214.145 130.091 218.039 133.717 220.958 140.353C223.876 146.989 225.42 155.499 225.449 164.701C225.515 183.824 218.646 199.396 210.147 199.425L189.036 199.5V199.491ZM189.292 131.094L189.501 198.544L210.147 198.469C218.125 198.469 224.568 183.322 224.501 164.701C224.501 155.622 222.91 147.112 220.095 140.722C217.281 134.332 213.738 131.028 209.957 131.028L189.292 131.094Z" fill="#383838"/>
<path d="M189.01 199.03C197.263 199.005 203.907 183.677 203.851 164.792C203.795 145.908 197.059 130.619 188.807 130.643C180.555 130.668 173.911 145.996 173.967 164.881C174.023 183.765 180.758 199.054 189.01 199.03Z" fill="#383838"/>
<path d="M189.007 199.491C184.829 199.491 180.916 195.846 177.997 189.229C175.079 182.612 173.535 174.082 173.506 164.881C173.449 145.758 180.319 130.185 188.818 130.148C193.006 130.148 196.909 133.792 199.828 140.409C202.746 147.027 204.29 155.556 204.319 164.767C204.376 183.88 197.516 199.463 189.017 199.491H189.007ZM188.837 131.094C180.859 131.094 174.416 146.241 174.473 164.871C174.473 173.94 176.074 182.46 178.888 188.85C181.645 195.098 185.246 198.544 189.026 198.544C197.004 198.544 203.447 183.398 203.39 164.767C203.39 155.698 201.799 147.188 198.984 140.798C196.17 134.408 192.627 131.094 188.837 131.094Z" fill="#383838"/>
<path d="M188.986 190.927C195.281 190.908 200.35 179.212 200.307 164.803C200.264 150.394 195.126 138.728 188.831 138.746C182.536 138.765 177.467 150.461 177.51 164.87C177.553 179.279 182.691 190.945 188.986 190.927Z" fill="white"/>
<path d="M188.988 191.34C185.767 191.34 182.763 188.5 180.527 183.473C178.291 178.447 177.116 171.886 177.088 164.862C177.088 150.236 182.318 138.355 188.837 138.298C192.058 138.298 195.062 141.091 197.308 146.175C199.553 151.258 200.719 157.752 200.737 164.777C200.737 179.403 195.517 191.283 188.988 191.34ZM188.856 139.16C182.801 139.16 177.922 150.709 177.969 164.852C177.969 171.763 179.182 178.248 181.323 183.114C183.465 187.98 186.137 190.469 188.998 190.469C195.043 190.469 199.923 178.92 199.885 164.777C199.885 157.866 198.662 151.381 196.521 146.506C194.38 141.631 191.765 139.16 188.856 139.16Z" fill="#383838"/>
<path d="M287.558 130.28L266.447 130.356L266.656 198.743L287.775 198.667C296.028 198.667 302.661 183.303 302.604 164.417C302.547 145.531 295.81 130.252 287.558 130.28Z" fill="#383838"/>
<path d="M266.618 199.217C266.494 199.217 266.375 199.17 266.286 199.084C266.197 198.993 266.146 198.871 266.144 198.743L265.936 130.356C265.934 130.294 265.945 130.233 265.968 130.176C265.991 130.118 266.025 130.066 266.068 130.022C266.111 129.978 266.163 129.943 266.22 129.919C266.277 129.895 266.338 129.883 266.4 129.883L287.52 129.807C291.708 129.807 295.611 133.442 298.53 140.069C301.448 146.695 302.992 155.215 303.021 164.417C303.087 183.54 296.218 199.112 287.719 199.141L266.599 199.217H266.618ZM266.883 130.82L267.092 198.27L287.728 198.194C295.706 198.194 302.149 183.047 302.092 164.427C302.092 155.348 300.5 146.837 297.686 140.447C294.872 134.057 291.329 130.754 287.539 130.754L266.883 130.82Z" fill="#383838"/>
<path d="M266.638 198.762C274.89 198.738 281.535 183.409 281.479 164.524C281.423 145.64 274.687 130.351 266.435 130.375C258.183 130.4 251.539 145.728 251.595 164.613C251.651 183.497 258.386 198.786 266.638 198.762Z" fill="#383838"/>
<path d="M266.618 199.216C262.43 199.216 258.526 195.572 255.608 188.955C252.689 182.337 251.145 173.808 251.117 164.606C251.06 145.484 257.92 129.911 266.419 129.883C270.597 129.883 274.51 133.518 277.429 140.144C280.347 146.771 281.891 155.291 281.92 164.493C281.977 183.615 275.117 199.188 266.608 199.216H266.618ZM266.447 130.829C258.469 130.829 252.026 145.976 252.083 164.597C252.083 173.666 253.675 182.186 256.498 188.576C259.322 194.966 262.828 198.27 266.618 198.27C274.596 198.27 281.039 183.123 280.982 164.493C280.982 155.424 279.38 146.913 276.566 140.523C273.752 134.133 270.247 130.829 266.466 130.829H266.447Z" fill="#383838"/>
<path d="M266.049 191.482C272.344 191.482 277.447 179.801 277.447 165.392C277.447 150.983 272.344 139.302 266.049 139.302C259.754 139.302 254.65 150.983 254.65 165.392C254.65 179.801 259.754 191.482 266.049 191.482Z" fill="white"/>
<path d="M266.618 191.066C263.396 191.066 260.393 188.226 258.157 183.199C255.92 178.172 254.736 171.621 254.717 164.588C254.67 149.971 259.947 138.081 266.466 138.024C269.688 138.024 272.691 140.817 274.927 145.9C277.163 150.984 278.338 157.478 278.367 164.512C278.414 179.128 273.137 191.018 266.618 191.066ZM266.485 138.895C260.44 138.895 255.56 150.444 255.608 164.588C255.608 171.498 256.821 177.983 258.962 182.849C261.103 187.715 263.775 190.204 266.637 190.204C272.691 190.204 277.571 178.655 277.523 164.512C277.523 157.601 276.311 151.116 274.169 146.251C272.028 141.385 269.347 138.895 266.485 138.895V138.895Z" fill="#383838"/>
<path d="M88.3456 130.981L67.2354 131.056L67.4533 199.444L88.5636 199.368C96.8163 199.368 103.458 184.013 103.401 165.127C103.345 146.241 96.5984 130.952 88.3456 130.981Z" fill="#383838"/>
<path d="M67.4534 199.917C67.3298 199.918 67.2108 199.87 67.1218 199.784C67.076 199.74 67.0398 199.687 67.0153 199.629C66.9909 199.57 66.9787 199.507 66.9796 199.444L66.7617 131.057C66.7617 130.931 66.8116 130.811 66.9005 130.722C66.9893 130.633 67.1098 130.583 67.2355 130.583L88.3458 130.507C92.5243 130.507 96.4374 134.152 99.3557 140.769C102.274 147.387 103.818 155.916 103.847 165.118C103.904 184.24 97.0344 199.813 88.5353 199.841L67.425 199.917H67.4534ZM67.7092 131.53L67.9271 198.97L88.5637 198.895C96.5417 198.895 102.985 183.748 102.928 165.127C102.928 156.058 101.327 147.538 98.5125 141.148C95.7552 134.9 92.1547 131.454 88.3742 131.454L67.7092 131.53Z" fill="#383838"/>
<path d="M67.4381 199.447C75.6903 199.423 82.3346 184.094 82.2785 165.209C82.2224 146.325 75.4872 131.036 67.235 131.06C58.9827 131.085 52.3384 146.414 52.3945 165.298C52.4506 184.183 59.1858 199.472 67.4381 199.447Z" fill="#383838"/>
<path d="M67.4247 199.917C63.2462 199.917 59.3425 196.272 56.4242 189.655C53.5059 183.038 51.9615 174.508 51.9331 165.307C51.8668 146.184 58.7361 130.612 67.2352 130.583C71.4137 130.583 75.3174 134.228 78.2357 140.845C81.154 147.462 82.6984 155.992 82.7363 165.193C82.7932 184.316 75.9238 199.889 67.4247 199.917ZM67.2636 131.53C59.2857 131.53 52.8427 146.676 52.909 165.297C52.909 174.376 54.5008 182.886 57.3149 189.276C60.129 195.666 63.6726 198.97 67.4532 198.97C75.4311 198.97 81.8741 183.824 81.8172 165.203C81.8172 156.124 80.216 147.614 77.4019 141.224C74.5878 134.834 71.0442 131.53 67.2636 131.53Z" fill="#383838"/>
<path d="M67.4147 191.344C73.7098 191.325 78.7783 179.629 78.7355 165.22C78.6928 150.811 73.5548 139.145 67.2597 139.164C60.9646 139.182 55.896 150.878 55.9388 165.288C55.9816 179.697 61.1195 191.362 67.4147 191.344Z" fill="white"/>
<path d="M67.4058 191.776C64.1843 191.776 61.1807 188.936 58.9446 183.9C56.7085 178.863 55.5336 172.293 55.5146 165.288C55.5146 150.672 60.7354 138.781 67.2636 138.725C70.4851 138.725 73.4887 141.565 75.7248 146.601C77.9609 151.637 79.1358 158.179 79.1548 165.212C79.1548 179.829 73.934 191.719 67.4058 191.776V191.776ZM67.2826 139.596C61.2376 139.596 56.3484 151.145 56.3958 165.288C56.3958 172.199 57.6086 178.683 59.7595 183.549C61.9103 188.415 64.5727 190.905 67.4247 190.905C73.4698 190.905 78.3589 179.356 78.3115 165.212C78.3115 158.302 77.0987 151.817 74.9479 146.951C72.797 142.085 70.1346 139.596 67.2826 139.596Z" fill="#383838"/>
<path d="M320.512 177.841C319.659 179.905 317.47 182.461 311.804 182.48L232.915 182.754C224.842 182.754 222.758 184.761 218.561 179.507C214.363 174.253 207.996 147.652 199.904 139.463C191.813 131.274 185.834 131.625 178.699 143.808C171.565 155.992 177.022 182.953 177.022 182.953L93.481 183.246C88.6867 179.64 91.0744 178.977 88.9425 167.806C86.8107 156.636 81.3625 143.193 76.625 137.92C71.8875 132.647 62.8484 131.066 56.0264 145.228C49.2707 159.248 53.3544 180.615 53.4397 181.078L50.4551 179.45C47.461 177.812 45.945 172.89 45.348 170.258C44.7511 167.626 36.9627 164.37 36.9437 161.085C36.9437 159.589 36.8111 155.083 36.9437 150.037C36.9437 149.943 36.9437 149.838 36.9437 149.734C36.9946 145.788 37.343 141.852 37.986 137.958C38.0491 137.598 38.1249 137.248 38.2134 136.907C38.4337 135.828 38.7837 134.779 39.2556 133.783C42.2213 127.857 47.2999 126.21 51.7816 124.865C56.2633 123.521 57.1349 117.604 64.876 109.719C72.6171 101.833 83.5797 89.621 98.986 86.9988C108.12 85.4273 138.876 84.102 165.633 84.7078C193.376 85.3516 218.456 87.1313 230.395 91.4954C242.333 95.8596 264.723 117.642 264.723 117.642C264.723 117.642 284.014 123.767 299.78 130.233C304.063 131.994 307.597 133.783 309.644 135.459C311.531 137.165 313.033 139.253 314.05 141.584C318.427 150.662 320.227 165.25 320.853 171.782C321.052 173.912 321.127 175.209 321.127 175.209C321.1 176.119 320.891 177.014 320.512 177.841V177.841Z" fill="url(#paint0_linear)"/>
<path opacity="0.2" d="M192.561 117.898L165.576 89.9333C165.576 89.9333 217.575 90.4067 229.542 95.1874C241.717 100.053 257.512 117.671 257.512 117.671L192.561 117.898Z" fill="#6D56BA"/>
<path opacity="0.2" d="M115.832 118.172L120.825 90.719C120.825 90.719 151.43 89.299 158.507 90.5865C165.585 91.874 186.534 117.888 186.534 117.888L115.832 118.172Z" fill="#6D56BA"/>
<path opacity="0.2" d="M113 118.182L117.993 90.7285C117.993 90.7285 97.2805 91.9497 90.5154 94.6099C79.1454 99.0876 64.5918 118.277 64.5918 118.277L113 118.182Z" fill="#6D56BA"/>
<path d="M111.228 176.923C111.172 176.924 111.116 176.914 111.064 176.894C111.011 176.873 110.964 176.843 110.923 176.804C110.883 176.766 110.85 176.72 110.828 176.668C110.805 176.617 110.793 176.562 110.792 176.506C110.744 174.802 109.626 134.853 110.612 129.769C111.238 126.608 112.391 123.574 114.023 120.795C114.085 120.699 114.182 120.631 114.294 120.606C114.406 120.581 114.523 120.601 114.62 120.662C114.668 120.691 114.71 120.729 114.743 120.775C114.776 120.821 114.799 120.872 114.811 120.927C114.824 120.982 114.825 121.039 114.815 121.094C114.805 121.149 114.783 121.202 114.752 121.249C113.191 123.949 112.077 126.884 111.455 129.939C110.507 134.881 111.644 176.071 111.654 176.478C111.658 176.535 111.65 176.592 111.631 176.646C111.612 176.7 111.581 176.749 111.542 176.791C111.503 176.832 111.456 176.866 111.403 176.888C111.351 176.911 111.294 176.923 111.237 176.923H111.228Z" fill="#D1D3D4"/>
<path opacity="0.4" d="M246.644 130.422L209.928 130.555C207.645 130.555 212.146 138.27 217.234 140.391C222.322 142.511 245.933 142.284 247.118 140.447C248.302 138.611 249.487 132.221 246.644 130.422Z" fill="#E0693C"/>
<path opacity="0.4" d="M313.992 141.583C306.138 141.82 297.743 141.356 297.042 140.267C295.838 138.421 294.616 132.06 297.449 130.242H299.723C304.006 132.003 307.54 133.792 309.587 135.468C311.472 137.171 312.974 139.256 313.992 141.583V141.583Z" fill="#E0693C"/>
<path opacity="0.1" d="M43.4247 136.888C43.4247 136.888 43.1594 147.084 41.2265 148.57C39.9212 149.332 38.4366 149.734 36.9248 149.734C36.9757 145.788 37.3241 141.851 37.9671 137.958C38.0302 137.598 38.106 137.248 38.1945 136.907L43.4247 136.888Z" fill="#383838"/>
<path d="M99.6116 176.97C99.496 176.97 99.3852 176.924 99.3034 176.842C99.2217 176.761 99.1758 176.65 99.1758 176.534C99.1758 176.419 99.2217 176.308 99.3034 176.227C99.3852 176.145 99.496 176.099 99.6116 176.099L174.019 175.843C174.133 175.843 174.242 175.888 174.324 175.968C174.405 176.047 174.452 176.156 174.455 176.269C174.455 176.385 174.409 176.496 174.327 176.577C174.245 176.659 174.134 176.705 174.019 176.705L99.6116 176.97V176.97Z" fill="#D1D3D4"/>
<path d="M221.204 165.771C221.1 165.755 221.006 165.703 220.938 165.624C220.87 165.545 220.832 165.444 220.832 165.34C220.832 165.236 220.87 165.135 220.938 165.056C221.006 164.977 221.1 164.925 221.204 164.909L316.683 164.568C316.799 164.568 316.91 164.614 316.992 164.696C317.073 164.778 317.119 164.888 317.119 165.004C317.119 165.119 317.073 165.23 316.992 165.312C316.91 165.394 316.799 165.439 316.683 165.439L221.213 165.771H221.204Z" fill="#D1D3D4"/>
<path d="M226.169 178.172C226.169 178.172 220.02 170.958 222.559 170.457C225.098 169.955 249.468 172.994 250.217 174.243C250.728 175.467 250.986 176.78 250.975 178.106L226.169 178.172Z" fill="#383838"/>
<path d="M226.169 178.645C226.1 178.645 226.032 178.63 225.97 178.601C225.908 178.571 225.853 178.528 225.809 178.475C224.985 177.528 220.911 172.596 221.545 170.75C221.619 170.55 221.747 170.373 221.914 170.24C222.081 170.106 222.281 170.021 222.493 169.993C224.16 169.652 249.544 172.18 250.643 173.978C251.202 175.275 251.482 176.675 251.467 178.087C251.467 178.212 251.418 178.333 251.329 178.422C251.24 178.51 251.119 178.56 250.994 178.56L226.188 178.645H226.169ZM223.687 170.854C223.341 170.844 222.995 170.866 222.654 170.921C222.483 170.921 222.455 171.015 222.446 171.063C222.114 172.009 224.502 175.455 226.387 177.689L250.482 177.604C250.473 176.522 250.244 175.452 249.809 174.461C248.615 173.524 228.983 170.854 223.687 170.854V170.854Z" fill="#383838"/>
<path d="M320.512 177.841H309.672C309.651 176.516 309.903 175.202 310.411 173.978C310.724 173.448 315.367 172.549 320.767 171.744C320.966 173.874 321.042 175.171 321.042 175.171C321.047 176.088 320.866 176.996 320.512 177.841Z" fill="#383838"/>
<path d="M309.671 178.352C309.609 178.353 309.548 178.34 309.491 178.316C309.433 178.292 309.382 178.255 309.34 178.21C309.251 178.122 309.201 178.003 309.198 177.879C309.174 176.468 309.448 175.068 310.003 173.77C310.174 173.486 310.562 172.823 320.7 171.318C320.764 171.306 320.829 171.308 320.891 171.324C320.954 171.341 321.011 171.371 321.06 171.413C321.161 171.492 321.225 171.608 321.24 171.735C321.439 173.874 321.515 175.181 321.515 175.181C321.514 176.155 321.321 177.12 320.947 178.021C320.91 178.106 320.85 178.18 320.772 178.232C320.695 178.284 320.604 178.312 320.511 178.314H309.671V178.352ZM320.34 172.293C313.414 173.344 311.064 174.035 310.78 174.281C310.374 175.263 310.162 176.314 310.155 177.377H320.179C320.428 176.691 320.56 175.967 320.568 175.237C320.568 175.237 320.501 174.187 320.34 172.293Z" fill="#383838"/>
<path d="M302.841 159.987L244.191 160.195C243.658 160.172 243.149 159.974 242.741 159.631C242.333 159.289 242.05 158.821 241.936 158.301L239.586 149.526C239.112 147.756 240.239 145.947 241.822 145.938L300.472 145.73C301.01 145.759 301.523 145.965 301.931 146.316C302.339 146.667 302.619 147.143 302.727 147.67L305.077 156.437C305.551 158.169 304.423 159.987 302.841 159.987Z" fill="white"/>
<path d="M244.18 160.659C243.54 160.631 242.926 160.393 242.436 159.98C241.946 159.567 241.606 159.003 241.47 158.377L239.14 149.573C238.993 149.049 238.969 148.498 239.07 147.963C239.17 147.428 239.391 146.923 239.718 146.487C239.962 146.155 240.28 145.883 240.646 145.693C241.013 145.502 241.418 145.399 241.83 145.389L300.481 145.181C301.123 145.209 301.737 145.449 302.228 145.863C302.718 146.278 303.057 146.844 303.191 147.472L305.531 156.238C305.678 156.762 305.702 157.313 305.602 157.848C305.502 158.383 305.28 158.888 304.953 159.324C304.711 159.659 304.394 159.933 304.027 160.123C303.66 160.314 303.254 160.416 302.84 160.422L244.19 160.63L244.18 160.659ZM300.481 146.156L241.821 146.364C241.553 146.372 241.29 146.442 241.053 146.568C240.816 146.695 240.612 146.874 240.457 147.093C240.22 147.416 240.06 147.788 239.987 148.181C239.915 148.575 239.933 148.979 240.04 149.365L242.389 158.131C242.472 158.555 242.692 158.94 243.016 159.226C243.34 159.511 243.749 159.683 244.18 159.712V159.712L302.84 159.504C303.108 159.498 303.37 159.43 303.607 159.305C303.844 159.18 304.049 159.002 304.204 158.784C304.44 158.461 304.6 158.089 304.673 157.696C304.745 157.303 304.727 156.898 304.621 156.512L302.272 147.746C302.189 147.321 301.969 146.935 301.646 146.648C301.322 146.36 300.913 146.188 300.481 146.156V146.156Z" fill="#D1D3D4"/>
<path d="M125.317 129.637C124.373 129.637 123.467 129.263 122.798 128.598C122.129 127.933 121.75 127.03 121.745 126.087V125.907C121.748 125.793 121.795 125.684 121.876 125.605C121.958 125.525 122.067 125.481 122.181 125.481L141.283 125.405C141.399 125.411 141.51 125.458 141.595 125.537C141.674 125.619 141.718 125.727 141.718 125.84V126.001C141.72 126.469 141.629 126.932 141.451 127.364C141.273 127.797 141.012 128.19 140.682 128.521C140.352 128.852 139.96 129.116 139.528 129.296C139.096 129.476 138.633 129.569 138.165 129.57V129.57L125.327 129.618L125.317 129.637ZM122.626 126.323C122.699 126.986 123.013 127.599 123.51 128.044C124.006 128.49 124.65 128.736 125.317 128.737L138.156 128.69C138.823 128.686 139.466 128.435 139.959 127.986C140.453 127.537 140.762 126.921 140.828 126.257L122.626 126.323Z" fill="#D1D3D4"/>
<path d="M67.112 128.198C66.3451 128.198 65.6092 127.895 65.0654 127.355C64.7905 127.088 64.5725 126.769 64.4243 126.416C64.2761 126.063 64.2009 125.684 64.2032 125.301V124.487C64.2031 124.373 64.2478 124.263 64.3275 124.182C64.4072 124.101 64.5156 124.054 64.6295 124.051H76.5775C76.6908 124.051 76.7995 124.095 76.8807 124.174C76.9219 124.213 76.9549 124.26 76.9777 124.312C77.0004 124.364 77.0126 124.42 77.0134 124.477V125.291C77.0159 126.063 76.7121 126.804 76.1687 127.352C75.6252 127.901 74.8864 128.212 74.114 128.217H67.1215L67.112 128.198ZM65.0654 124.96V125.329C65.0679 125.871 65.2843 126.389 65.6676 126.772C66.0509 127.155 66.57 127.371 67.112 127.374H74.0951C74.3723 127.377 74.6473 127.323 74.9034 127.217C75.1595 127.111 75.3914 126.954 75.5853 126.756C75.7791 126.558 75.9309 126.323 76.0314 126.064C76.1319 125.806 76.1791 125.53 76.1701 125.253V124.875L65.0654 124.96Z" fill="#D1D3D4"/>
<path d="M132.863 30.0567C132.865 27.9181 133.716 25.8675 135.228 24.3545C136.741 22.8415 138.793 21.9896 140.933 21.9853C141.369 21.9898 141.803 22.0271 142.233 22.0969C143.162 20.3677 144.542 18.922 146.227 17.9134C147.912 16.9047 149.839 16.3707 151.803 16.3681H152.194C151.937 15.3439 151.806 14.2924 151.803 13.2367C151.76 11.5141 152.063 9.8004 152.693 8.19643C153.323 6.59247 154.268 5.13071 155.472 3.89725C156.677 2.66378 158.116 1.68354 159.705 1.01426C161.294 0.344976 163.001 0.000183105 164.726 0.000183105C166.451 0.000183105 168.158 0.344976 169.747 1.01426C171.336 1.68354 172.775 2.66378 173.98 3.89725C175.184 5.13071 176.129 6.59247 176.759 8.19643C177.389 9.8004 177.692 11.5141 177.649 13.2367C177.647 14.293 177.513 15.345 177.25 16.3681C177.386 16.3681 177.514 16.3681 177.649 16.3681C180.486 16.4448 183.181 17.6247 185.161 19.6567C187.14 21.6888 188.248 24.4124 188.248 27.2481C188.248 30.0837 187.14 32.8073 185.161 34.8394C183.181 36.8714 180.486 38.0513 177.649 38.1281H139.857V38.0723C137.917 37.8081 136.14 36.8501 134.854 35.3762C133.568 33.9022 132.86 32.0122 132.863 30.0567V30.0567Z" fill="#EFEFEF"/>
<path d="M-15.7378 75.7119C-15.7378 75.0185 -15.6009 74.332 -15.3351 73.6915C-15.0693 73.051 -14.6797 72.4692 -14.1887 71.9793C-13.6976 71.4894 -13.1147 71.101 -12.4732 70.8364C-11.8318 70.5718 -11.1444 70.4361 -10.4505 70.4372C-10.1672 70.437 -9.88437 70.461 -9.60516 70.5089C-8.99674 69.3769 -8.09255 68.4308 -6.9888 67.7714C-5.88504 67.112 -4.623 66.7639 -3.33696 66.764H-3.0738C-3.24662 66.0951 -3.33502 65.4072 -3.33696 64.7163C-3.37172 63.5859 -3.1789 62.46 -2.76993 61.4055C-2.36095 60.3509 -1.74416 59.3892 -0.956132 58.5773C-0.168108 57.7654 0.775092 57.1199 1.81752 56.6791C2.85995 56.2383 3.98038 56.0111 5.11233 56.0111C6.24428 56.0111 7.36471 56.2383 8.40714 56.6791C9.44957 57.1199 10.3928 57.7654 11.1808 58.5773C11.9688 59.3892 12.5856 60.3509 12.9946 61.4055C13.4036 62.46 13.5964 63.5859 13.5616 64.7163C13.5674 65.411 13.4898 66.1038 13.3303 66.78H13.5855C14.5403 66.7481 15.4917 66.9084 16.3831 67.2514C17.2746 67.5944 18.0878 68.113 18.7745 68.7765C19.4612 69.44 20.0072 70.2348 20.3802 71.1135C20.7531 71.9921 20.9453 72.9368 20.9453 73.8912C20.9453 74.8457 20.7531 75.7903 20.3802 76.669C20.0072 77.5477 19.4612 78.3424 18.7745 79.0059C18.0878 79.6694 17.2746 80.1881 16.3831 80.5311C15.4917 80.8741 14.5403 81.0344 13.5855 81.0025H-11.1363V80.9547C-12.4105 80.7898 -13.5807 80.1665 -14.4278 79.2013C-15.2749 78.2362 -15.7406 76.9955 -15.7378 75.7119V75.7119Z" fill="#EFEFEF"/>
<path d="M1745 42.0565C1745 39.9179 1745.85 37.8673 1747.37 36.3543C1748.88 34.8414 1750.93 33.9894 1753.07 33.9852C1753.51 33.9896 1753.94 34.0269 1754.37 34.0967C1755.3 32.3675 1756.68 30.9219 1758.36 29.9132C1760.05 28.9046 1761.98 28.3706 1763.94 28.3679H1764.33C1764.07 27.3437 1763.94 26.2923 1763.94 25.2365C1763.9 23.514 1764.2 21.8002 1764.83 20.1963C1765.46 18.5923 1766.41 17.1305 1767.61 15.8971C1768.81 14.6636 1770.25 13.6834 1771.84 13.0141C1773.43 12.3448 1775.14 12 1776.86 12C1778.59 12 1780.3 12.3448 1781.88 13.0141C1783.47 13.6834 1784.91 14.6636 1786.12 15.8971C1787.32 17.1305 1788.27 18.5923 1788.9 20.1963C1789.53 21.8002 1789.83 23.514 1789.79 25.2365C1789.79 26.2928 1789.65 27.3448 1789.39 28.3679C1789.52 28.3679 1789.65 28.3679 1789.79 28.3679C1792.62 28.4446 1795.32 29.6245 1797.3 31.6566C1799.28 33.6886 1800.39 36.4123 1800.39 39.2479C1800.39 42.0835 1799.28 44.8072 1797.3 46.8392C1795.32 48.8712 1792.62 50.0512 1789.79 50.1279H1751.99V50.0721C1750.06 49.8079 1748.28 48.85 1746.99 47.376C1745.71 45.902 1745 44.012 1745 42.0565V42.0565Z" fill="#EFEFEF"/>
<path d="M1886.14 78.8411C1886.14 78.1593 1886.27 77.4837 1886.52 76.8532C1886.77 76.2226 1887.15 75.6495 1887.62 75.1666C1888.09 74.6837 1888.65 74.3006 1889.27 74.0392C1889.89 73.7778 1890.55 73.6432 1891.22 73.6432C1891.49 73.6466 1891.77 73.6701 1892.04 73.7135C1892.62 72.6036 1893.49 71.676 1894.55 71.0292C1895.61 70.3823 1896.82 70.0405 1898.06 70.0398H1898.31C1898.15 69.3837 1898.06 68.7088 1898.06 68.031C1898.12 65.8786 1899.01 63.8366 1900.52 62.3375C1902.04 60.8384 1904.07 60 1906.18 60C1908.29 60 1910.32 60.8384 1911.83 62.3375C1913.35 63.8366 1914.23 65.8786 1914.3 68.031C1914.29 68.7082 1914.21 69.3826 1914.05 70.0398H1914.3C1916.11 70.0398 1917.85 70.7752 1919.13 72.0842C1920.42 73.3933 1921.14 75.1687 1921.14 77.0199C1921.14 78.8711 1920.42 80.6466 1919.13 81.9556C1917.85 83.2646 1916.11 84 1914.3 84H1890.54V83.9531C1889.33 83.7855 1888.21 83.176 1887.4 82.2368C1886.59 81.2976 1886.15 80.0917 1886.14 78.8411V78.8411Z" fill="#EFEFEF"/>
<defs>
<linearGradient id="paint0_linear" x1="179.006" y1="84.558" x2="179.006" y2="183.246" gradientUnits="userSpaceOnUse">
<stop stop-color="white"/>
<stop offset="1" stop-color="#D6D6D6"/>
</linearGradient>
</defs>
</svg>
