<svg width="744" height="217" viewBox="0 0 744 217" fill="none" xmlns="http://www.w3.org/2000/svg">
<path d="M993.794 363C993.79 612.961 -242.498 453.449 -254.207 170.591C-254.207 116.802 -81.0453 98.6368 119.077 141.818C319.199 185 313.661 363 499.427 209.5C685.192 56 993.799 113.039 993.794 363Z" fill="#19A98A"/>
<path opacity="0.04" d="M78.3804 68.124C156.151 87.4257 222.351 36.3959 202.414 155.462C182.477 274.528 78.7488 141.142 60.1183 144.298C23.867 150.438 -20.3679 158.337 -29.031 141.768C-37.6941 125.2 -38.1843 73.1125 -4.21387 60.3756C29.7566 47.6386 57.393 60.5505 78.3804 68.124Z" fill="#3F3F3F"/>
<path d="M72.4681 123.693L53.4268 123.761L53.6233 185.467L72.6647 185.398C80.1086 185.398 86.0997 171.537 86.0398 154.498C85.98 137.46 79.9121 123.667 72.4681 123.693Z" fill="#383838"/>
<path d="M53.6149 185.894C53.5027 185.89 53.3961 185.844 53.3157 185.766C53.236 185.686 53.19 185.579 53.1875 185.467L52.9995 123.761C52.9995 123.648 53.0445 123.539 53.1247 123.459C53.2048 123.379 53.3135 123.334 53.4268 123.334L72.4682 123.266C76.2372 123.266 79.7583 126.554 82.3906 132.524C85.0229 138.493 86.4159 146.189 86.4416 154.499C86.5014 171.742 80.3053 185.8 72.6391 185.825L53.5978 185.894H53.6149ZM53.8542 124.188L54.0422 185.031L72.6648 184.971C79.8608 184.971 85.6724 171.306 85.6126 154.499C85.6126 146.317 84.1768 138.63 81.6385 132.865C79.1515 127.228 75.9039 124.12 72.4939 124.12L53.8542 124.188Z" fill="#383838"/>
<path d="M53.6012 185.472C61.0447 185.45 67.0379 171.62 66.9873 154.583C66.9367 137.546 60.8615 123.753 53.4181 123.775C45.9746 123.797 39.9814 137.626 40.032 154.663C40.0826 171.7 46.1578 185.494 53.6012 185.472Z" fill="#383838"/>
<path d="M53.5979 185.894C49.829 185.894 46.2993 182.605 43.667 176.636C41.0347 170.666 39.6417 162.971 39.616 154.661C39.5648 137.417 45.7609 123.359 53.427 123.334C57.2045 123.334 60.7256 126.622 63.3579 132.592C65.9902 138.562 67.3833 146.257 67.4089 154.567C67.4602 171.81 61.2726 185.859 53.6065 185.894H53.5979ZM53.4441 124.188C46.2481 124.188 40.4365 137.853 40.4878 154.661C40.4878 162.843 41.9321 170.521 44.4704 176.285C47.0087 182.05 50.205 185.04 53.615 185.04C60.8111 185.04 66.6227 171.375 66.5714 154.567C66.5714 146.385 65.1356 138.698 62.5888 132.933C60.1103 127.297 56.8627 124.188 53.4441 124.188Z" fill="#383838"/>
<path d="M53.5793 178.161C59.2574 178.144 63.8292 167.592 63.7906 154.593C63.7521 141.593 59.1177 131.069 53.4395 131.085C47.7613 131.102 43.1895 141.654 43.2281 154.654C43.2667 167.653 47.9011 178.178 53.5793 178.161Z" fill="white"/>
<path d="M53.581 178.54C50.6752 178.54 47.966 175.978 45.949 171.434C43.9321 166.891 42.8723 160.989 42.8467 154.652C42.8467 141.457 47.5643 130.738 53.4442 130.687C56.35 130.687 59.0592 133.207 61.0847 137.784C63.1102 142.362 64.1614 148.238 64.1785 154.575C64.1785 167.77 59.4694 178.489 53.581 178.54ZM53.4613 131.464C48.0002 131.464 43.5988 141.884 43.6415 154.644C43.6415 160.878 44.7354 166.729 46.6669 171.127C48.5984 175.525 51.017 177.763 53.5895 177.763C59.0421 177.763 63.4435 167.343 63.4008 154.575C63.4008 148.341 62.3068 142.49 60.3754 138.1C58.4439 133.711 56.0423 131.464 53.4613 131.464Z" fill="#383838"/>
<path d="M122.277 123.522L103.235 123.582L103.432 185.287L122.473 185.219C129.917 185.219 135.908 171.358 135.848 154.319C135.789 137.281 129.721 123.496 122.277 123.522Z" fill="#383838"/>
<path d="M103.432 185.714C103.375 185.715 103.318 185.704 103.265 185.682C103.212 185.66 103.164 185.627 103.124 185.586C103.047 185.506 103.004 185.399 103.005 185.287L102.808 123.599C102.808 123.485 102.853 123.375 102.933 123.294C103.013 123.212 103.121 123.165 103.235 123.163L122.277 123.103C126.08 123.103 129.593 126.374 132.225 132.361C134.857 138.348 136.25 146.026 136.276 154.328C136.336 171.58 130.139 185.629 122.473 185.654L103.432 185.723V185.714ZM103.663 124.009L103.851 184.86L122.473 184.792C129.669 184.792 135.481 171.127 135.421 154.328C135.421 146.137 133.985 138.459 131.447 132.694C128.909 126.929 125.712 123.949 122.302 123.949L103.663 124.009Z" fill="#383838"/>
<path d="M103.408 185.298C110.852 185.276 116.845 171.447 116.794 154.41C116.744 137.373 110.669 123.579 103.225 123.602C95.7817 123.624 89.7886 137.453 89.8392 154.49C89.8897 171.527 95.9649 185.32 103.408 185.298Z" fill="#383838"/>
<path d="M103.406 185.714C99.6371 185.714 96.1074 182.426 93.4751 176.456C90.8429 170.486 89.4498 162.791 89.4241 154.49C89.3729 137.238 95.569 123.189 103.235 123.155C107.013 123.155 110.534 126.443 113.166 132.413C115.798 138.382 117.191 146.077 117.217 154.387C117.268 171.631 111.081 185.689 103.415 185.714H103.406ZM103.252 124.009C96.0562 124.009 90.2446 137.674 90.2959 154.481C90.2959 162.663 91.7402 170.35 94.2785 176.115C96.7655 181.751 100.013 184.86 103.423 184.86C110.619 184.86 116.431 171.195 116.38 154.387C116.38 146.206 114.944 138.528 112.405 132.763C109.867 126.998 106.671 124.009 103.252 124.009Z" fill="#383838"/>
<path d="M103.387 177.988C109.065 177.971 113.637 167.419 113.598 154.42C113.56 141.42 108.925 130.895 103.247 130.912C97.5689 130.929 92.9971 141.481 93.0357 154.48C93.0743 167.48 97.7087 178.005 103.387 177.988Z" fill="white"/>
<path d="M103.389 178.361C100.483 178.361 97.7741 175.799 95.7571 171.264C93.7402 166.729 92.6804 160.81 92.6548 154.473C92.6548 141.278 97.3724 130.559 103.252 130.508C106.158 130.508 108.867 133.028 110.893 137.614C112.918 142.2 113.97 148.059 113.987 154.396C113.987 167.591 109.278 178.31 103.389 178.361ZM103.269 131.285C97.8083 131.285 93.4069 141.705 93.4496 154.464C93.4496 160.699 94.5435 166.549 96.475 170.939C98.4065 175.329 100.817 177.575 103.398 177.575C108.85 177.575 113.252 167.156 113.217 154.396C113.217 148.161 112.115 142.311 110.183 137.913C108.252 133.514 105.893 131.285 103.269 131.285Z" fill="#383838"/>
<path d="M192.297 123.274L173.256 123.342L173.444 185.04L192.494 184.971C199.938 184.971 205.92 171.11 205.869 154.071C205.818 137.033 199.741 123.248 192.297 123.274Z" fill="#383838"/>
<path d="M173.41 185.467C173.298 185.467 173.191 185.424 173.111 185.347C173.03 185.265 172.985 185.155 172.983 185.04L172.795 123.343C172.793 123.287 172.803 123.232 172.824 123.18C172.844 123.128 172.875 123.081 172.914 123.041C172.953 123.001 173 122.97 173.051 122.948C173.102 122.927 173.158 122.915 173.213 122.915L192.263 122.847C196.041 122.847 199.562 126.127 202.194 132.105C204.826 138.084 206.22 145.77 206.245 154.072C206.305 171.324 200.109 185.373 192.443 185.398L173.393 185.467H173.41ZM173.649 123.761L173.837 184.613L192.451 184.544C199.647 184.544 205.459 170.879 205.408 154.08C205.408 145.89 203.972 138.212 201.434 132.447C198.895 126.682 195.699 123.701 192.28 123.701L173.649 123.761Z" fill="#383838"/>
<path d="M173.428 185.057C180.872 185.035 186.865 171.205 186.814 154.168C186.764 137.131 180.689 123.338 173.245 123.36C165.802 123.382 159.809 137.211 159.859 154.248C159.91 171.285 165.985 185.079 173.428 185.057Z" fill="#383838"/>
<path d="M173.41 185.467C169.632 185.467 166.111 182.178 163.479 176.209C160.847 170.239 159.454 162.544 159.428 154.242C159.377 136.99 165.564 122.941 173.23 122.915C176.999 122.915 180.529 126.195 183.161 132.173C185.794 138.152 187.187 145.838 187.212 154.14C187.264 171.392 181.076 185.441 173.401 185.467H173.41ZM173.256 123.769C166.06 123.769 160.248 137.434 160.3 154.234C160.3 162.416 161.736 170.102 164.282 175.867C166.829 181.632 169.991 184.613 173.41 184.613C180.606 184.613 186.418 170.948 186.366 154.14C186.366 145.958 184.922 138.28 182.384 132.515C179.845 126.75 176.683 123.769 173.273 123.769H173.256Z" fill="#383838"/>
<path d="M172.897 178.489C178.575 178.489 183.178 167.951 183.178 154.951C183.178 141.951 178.575 131.413 172.897 131.413C167.219 131.413 162.616 141.951 162.616 154.951C162.616 167.951 167.219 178.489 172.897 178.489Z" fill="white"/>
<path d="M173.41 178.113C170.504 178.113 167.795 175.551 165.778 171.016C163.761 166.481 162.693 160.571 162.676 154.225C162.633 141.039 167.393 130.312 173.273 130.26C176.179 130.26 178.888 132.78 180.905 137.366C182.922 141.952 183.982 147.811 184.007 154.157C184.05 167.344 179.29 178.071 173.41 178.113ZM173.29 131.046C167.838 131.046 163.436 141.466 163.479 154.225C163.479 160.46 164.573 166.31 166.504 170.7C168.436 175.09 170.846 177.336 173.427 177.336C178.888 177.336 183.29 166.917 183.247 154.157C183.247 147.922 182.153 142.072 180.221 137.682C178.29 133.292 175.871 131.046 173.29 131.046Z" fill="#383838"/>
<path d="M12.6093 123.906L-6.43213 123.974L-6.23556 185.672L12.8058 185.603C20.2497 185.603 26.2408 171.75 26.1895 154.712C26.1382 137.673 20.0532 123.88 12.6093 123.906Z" fill="#383838"/>
<path d="M-6.23597 186.099C-6.34747 186.099 -6.45482 186.056 -6.5351 185.979C-6.57639 185.939 -6.60908 185.892 -6.63113 185.839C-6.65318 185.786 -6.66412 185.729 -6.66329 185.672L-6.85986 123.974C-6.85986 123.861 -6.81484 123.753 -6.7347 123.673C-6.65457 123.592 -6.54588 123.547 -6.43254 123.547L12.6089 123.479C16.3778 123.479 19.9075 126.767 22.5398 132.737C25.1721 138.707 26.5651 146.402 26.5908 154.703C26.6421 171.955 20.4459 186.005 12.7798 186.03L-6.26162 186.099H-6.23597ZM-6.00522 124.402L-5.80865 185.245L12.8054 185.176C20.0015 185.176 25.813 171.511 25.7618 154.712C25.7618 146.53 24.3174 138.844 21.7792 133.079C19.2921 127.442 16.0445 124.333 12.6345 124.333L-6.00522 124.402Z" fill="#383838"/>
<path d="M-6.24886 185.675C1.19463 185.653 7.18775 171.823 7.13717 154.786C7.08658 137.749 1.01144 123.956 -6.43204 123.978C-13.8755 124 -19.8687 137.829 -19.8181 154.866C-19.7675 171.903 -13.6923 185.697 -6.24886 185.675Z" fill="#383838"/>
<path d="M-6.26106 186.099C-10.03 186.099 -13.5511 182.81 -16.1834 176.841C-18.8157 170.871 -20.2088 163.176 -20.2344 154.874C-20.2943 137.622 -14.0981 123.573 -6.43198 123.547C-2.66302 123.547 0.858103 126.835 3.4904 132.805C6.12269 138.775 7.51575 146.47 7.54994 154.772C7.60122 172.024 1.40507 186.073 -6.26106 186.099ZM-6.40634 124.401C-13.6024 124.401 -19.414 138.066 -19.3542 154.866C-19.3542 163.056 -17.9184 170.734 -15.3801 176.499C-12.8418 182.264 -9.64543 185.245 -6.23541 185.245C0.960663 185.245 6.77222 171.58 6.72094 154.78C6.72094 146.59 5.2766 138.912 2.73832 133.147C0.200033 127.382 -2.99633 124.401 -6.40634 124.401Z" fill="#383838"/>
<path d="M-6.27036 178.364C-0.592166 178.347 3.97963 167.795 3.94103 154.796C3.90243 141.796 -0.731937 131.272 -6.41013 131.289C-12.0883 131.305 -16.6601 141.857 -16.6215 154.857C-16.5829 167.856 -11.9486 178.381 -6.27036 178.364Z" fill="white"/>
<path d="M-6.27817 178.754C-9.18395 178.754 -11.8932 176.192 -13.9101 171.648C-15.9271 167.104 -16.9868 161.177 -17.0039 154.857C-17.0039 141.671 -12.2948 130.944 -6.40637 130.892C-3.50059 130.892 -0.79138 133.455 1.22557 137.998C3.24252 142.542 4.30228 148.443 4.31937 154.789C4.31937 167.976 -0.389698 178.703 -6.27817 178.754ZM-6.38927 131.678C-11.8419 131.678 -16.2518 142.098 -16.2091 154.857C-16.2091 161.092 -15.1151 166.942 -13.1751 171.332C-11.2351 175.722 -8.83355 177.968 -6.26108 177.968C-0.808474 177.968 3.60147 167.549 3.55874 154.789C3.55874 148.554 2.4648 142.704 0.524767 138.314C-1.41527 133.924 -3.8168 131.678 -6.38927 131.678Z" fill="#383838"/>
<path d="M222.022 166.183C221.253 168.045 219.279 170.351 214.168 170.368L143.01 170.615C135.729 170.615 133.849 172.426 130.063 167.686C126.277 162.946 120.533 138.947 113.235 131.559C105.936 124.172 100.543 124.488 94.1079 135.48C87.6724 146.471 92.5951 170.795 92.5951 170.795L17.2415 171.06C12.917 167.806 15.0707 167.208 13.1478 157.13C11.2248 147.052 6.31063 134.924 2.03743 130.167C-2.23578 125.41 -10.3891 123.984 -16.5425 136.761C-22.6361 149.409 -18.9525 168.685 -18.8756 169.104L-21.5678 167.635C-24.2684 166.157 -25.6358 161.716 -26.1743 159.342C-26.7127 156.968 -33.7378 154.03 -33.7549 151.066C-33.7549 149.717 -33.8746 145.651 -33.7549 141.099C-33.7549 141.014 -33.7549 140.92 -33.7549 140.826C-33.709 137.266 -33.3947 133.714 -32.8148 130.201C-32.7578 129.877 -32.6895 129.561 -32.6097 129.253C-32.411 128.28 -32.0953 127.333 -31.6696 126.435C-28.9946 121.089 -24.4137 119.603 -20.3713 118.39C-16.3288 117.177 -15.5425 111.839 -8.56012 104.725C-1.57771 97.6106 8.31049 86.5933 22.2069 84.2275C30.4457 82.8098 58.1873 81.6141 82.3224 82.1607C107.346 82.7415 129.969 84.3471 140.737 88.2843C151.506 92.2215 171.701 111.873 171.701 111.873C171.701 111.873 189.101 117.399 203.322 123.232C207.185 124.821 210.373 126.435 212.219 127.947C213.921 129.486 215.276 131.37 216.193 133.472C220.142 141.663 221.766 154.824 222.33 160.717C222.509 162.639 222.577 163.809 222.577 163.809C222.553 164.629 222.364 165.437 222.022 166.183Z" fill="url(#paint0_linear)"/>
<path opacity="0.2" d="M106.611 112.104L82.271 86.8749C82.271 86.8749 129.174 87.3019 139.968 91.6149C150.95 96.0048 165.197 111.899 165.197 111.899L106.611 112.104Z" fill="#6D56BA"/>
<path opacity="0.2" d="M37.4023 112.352L41.9063 87.5838C41.9063 87.5838 69.5112 86.3027 75.8954 87.4643C82.2795 88.6258 101.176 112.095 101.176 112.095L37.4023 112.352Z" fill="#6D56BA"/>
<path opacity="0.2" d="M34.8472 112.36L39.3511 87.5923C39.3511 87.5923 20.6687 88.694 14.5666 91.0939C4.31087 95.1336 -8.81641 112.445 -8.81641 112.445L34.8472 112.36Z" fill="#6D56BA"/>
<path d="M33.2487 165.353C33.1981 165.355 33.1479 165.346 33.1008 165.327C33.0537 165.309 33.0107 165.282 32.9742 165.247C32.9377 165.212 32.9084 165.17 32.888 165.124C32.8677 165.078 32.8566 165.028 32.8555 164.978C32.8128 163.44 31.8043 127.399 32.6931 122.813C33.2582 119.961 34.2982 117.224 35.7698 114.716C35.8259 114.63 35.9138 114.569 36.0145 114.546C36.1153 114.524 36.2208 114.542 36.3083 114.597C36.3518 114.623 36.3895 114.658 36.4192 114.699C36.4489 114.74 36.47 114.787 36.4812 114.836C36.4924 114.885 36.4934 114.937 36.4843 114.987C36.4751 115.036 36.4559 115.084 36.4279 115.126C35.0195 117.562 34.0151 120.21 33.4538 122.967C32.5991 127.425 33.6247 164.585 33.6332 164.952C33.6368 165.003 33.6296 165.055 33.6123 165.104C33.595 165.152 33.5679 165.197 33.5326 165.234C33.4973 165.272 33.4547 165.302 33.4073 165.323C33.3599 165.343 33.3088 165.354 33.2572 165.353H33.2487Z" fill="#D1D3D4"/>
<path opacity="0.4" d="M155.394 123.402L122.276 123.522C120.217 123.522 124.276 130.482 128.866 132.395C133.455 134.308 154.753 134.103 155.821 132.447C156.889 130.79 157.958 125.025 155.394 123.402Z" fill="#E0693C"/>
<path opacity="0.4" d="M216.142 133.472C209.057 133.685 201.485 133.267 200.852 132.284C199.767 130.619 198.664 124.88 201.22 123.24H203.271C207.134 124.829 210.322 126.443 212.168 127.954C213.869 129.491 215.223 131.372 216.142 133.472Z" fill="#E0693C"/>
<path d="M22.7711 165.396C22.6668 165.396 22.5668 165.355 22.4931 165.281C22.4194 165.208 22.3779 165.108 22.3779 165.003C22.3779 164.899 22.4194 164.799 22.4931 164.726C22.5668 164.652 22.6668 164.611 22.7711 164.611L89.886 164.38C89.9888 164.38 90.0875 164.42 90.161 164.492C90.2345 164.564 90.2769 164.662 90.2791 164.764C90.2791 164.869 90.2377 164.968 90.164 165.042C90.0903 165.116 89.9903 165.157 89.886 165.157L22.7711 165.396Z" fill="#D1D3D4"/>
<path d="M132.447 155.293C132.353 155.279 132.268 155.232 132.207 155.161C132.145 155.089 132.111 154.998 132.111 154.904C132.111 154.81 132.145 154.719 132.207 154.648C132.268 154.576 132.353 154.529 132.447 154.516L218.569 154.208C218.673 154.208 218.773 154.25 218.847 154.323C218.921 154.397 218.962 154.497 218.962 154.601C218.962 154.705 218.921 154.805 218.847 154.879C218.773 154.952 218.673 154.994 218.569 154.994L132.455 155.293H132.447Z" fill="#D1D3D4"/>
<path d="M136.925 166.481C136.925 166.481 131.379 159.973 133.669 159.52C135.96 159.068 157.941 161.809 158.616 162.937C159.077 164.04 159.31 165.225 159.3 166.421L136.925 166.481Z" fill="#383838"/>
<path d="M136.925 166.908C136.863 166.908 136.802 166.894 136.746 166.868C136.689 166.841 136.64 166.802 136.601 166.754C135.857 165.9 132.182 161.45 132.755 159.785C132.821 159.604 132.936 159.445 133.087 159.325C133.237 159.204 133.418 159.127 133.609 159.102C135.113 158.794 158.009 161.075 159.001 162.697C159.504 163.868 159.758 165.13 159.744 166.404C159.744 166.517 159.699 166.626 159.619 166.706C159.539 166.786 159.43 166.831 159.317 166.831L136.942 166.908H136.925ZM134.686 159.879C134.374 159.87 134.063 159.89 133.755 159.939C133.601 159.939 133.575 160.024 133.567 160.067C133.267 160.921 135.421 164.03 137.122 166.045L158.855 165.968C158.847 164.992 158.641 164.027 158.249 163.133C157.172 162.287 139.464 159.879 134.686 159.879Z" fill="#383838"/>
<path d="M222.022 166.182H212.245C212.226 164.987 212.453 163.801 212.911 162.697C213.193 162.219 217.381 161.408 222.253 160.682C222.432 162.604 222.5 163.774 222.5 163.774C222.505 164.6 222.342 165.42 222.022 166.182Z" fill="#383838"/>
<path d="M212.245 166.643C212.188 166.644 212.133 166.633 212.081 166.611C212.03 166.589 211.984 166.556 211.945 166.515C211.866 166.436 211.82 166.329 211.817 166.216C211.796 164.943 212.043 163.68 212.544 162.51C212.698 162.253 213.048 161.655 222.193 160.298C222.25 160.286 222.308 160.288 222.365 160.303C222.421 160.318 222.473 160.345 222.517 160.383C222.608 160.454 222.666 160.559 222.68 160.673C222.859 162.603 222.928 163.782 222.928 163.782C222.927 164.662 222.752 165.532 222.415 166.344C222.382 166.422 222.327 166.488 222.257 166.535C222.188 166.582 222.106 166.608 222.022 166.609H212.245V166.643ZM221.868 161.177C215.62 162.125 213.501 162.749 213.244 162.971C212.878 163.857 212.687 164.805 212.68 165.763H221.722C221.947 165.144 222.066 164.492 222.073 163.833C222.073 163.833 222.013 162.885 221.868 161.177Z" fill="#383838"/>
<path d="M206.083 150.074L153.18 150.262C152.7 150.241 152.24 150.063 151.873 149.754C151.505 149.445 151.249 149.023 151.146 148.554L149.027 140.637C148.599 139.04 149.616 137.409 151.044 137.4L203.946 137.212C204.431 137.238 204.894 137.424 205.262 137.741C205.63 138.058 205.882 138.488 205.98 138.963L208.099 146.872C208.527 148.435 207.51 150.074 206.083 150.074Z" fill="white"/>
<path d="M153.172 150.681C152.594 150.656 152.041 150.441 151.599 150.068C151.156 149.696 150.85 149.187 150.728 148.623L148.625 140.68C148.493 140.207 148.472 139.71 148.562 139.227C148.653 138.745 148.852 138.289 149.147 137.896C149.367 137.596 149.654 137.351 149.984 137.179C150.315 137.007 150.68 136.913 151.052 136.905L203.955 136.717C204.534 136.742 205.088 136.959 205.53 137.333C205.973 137.707 206.278 138.217 206.399 138.784L208.51 146.692C208.643 147.165 208.664 147.662 208.574 148.145C208.484 148.628 208.283 149.084 207.989 149.477C207.77 149.779 207.484 150.026 207.153 150.198C206.822 150.37 206.456 150.462 206.083 150.467L153.18 150.655L153.172 150.681ZM203.955 137.597L151.044 137.785C150.802 137.792 150.565 137.855 150.351 137.969C150.138 138.083 149.953 138.245 149.813 138.442C149.6 138.733 149.455 139.069 149.39 139.424C149.325 139.779 149.341 140.144 149.437 140.492L151.557 148.401C151.631 148.783 151.83 149.13 152.122 149.388C152.414 149.646 152.783 149.8 153.172 149.827L206.083 149.639C206.324 149.634 206.561 149.572 206.775 149.46C206.988 149.347 207.173 149.186 207.313 148.99C207.526 148.698 207.671 148.363 207.736 148.008C207.801 147.653 207.785 147.288 207.69 146.94L205.57 139.032C205.496 138.648 205.298 138.3 205.006 138.041C204.714 137.781 204.344 137.625 203.955 137.597Z" fill="#D1D3D4"/>
<path d="M45.9573 122.693C45.1058 122.693 44.2888 122.357 43.6851 121.756C43.0813 121.156 42.7399 120.342 42.7354 119.491V119.328C42.7376 119.226 42.78 119.128 42.8535 119.056C42.927 118.984 43.0257 118.944 43.1285 118.944L60.3581 118.876C60.4631 118.882 60.5628 118.924 60.6401 118.995C60.7112 119.069 60.7511 119.167 60.7512 119.269V119.414C60.7523 119.836 60.6703 120.253 60.5099 120.643C60.3494 121.033 60.1136 121.388 59.816 121.687C59.5184 121.986 59.1648 122.223 58.7754 122.386C58.3859 122.548 57.9683 122.632 57.5463 122.634L45.9659 122.676L45.9573 122.693ZM43.5302 119.704C43.5954 120.302 43.8792 120.855 44.327 121.257C44.7749 121.659 45.3554 121.881 45.9573 121.882L57.5377 121.839C58.1399 121.836 58.7195 121.61 59.1646 121.204C59.6096 120.799 59.8887 120.243 59.9478 119.644L43.5302 119.704Z" fill="#D1D3D4"/>
<path d="M-6.5432 121.395C-7.23492 121.396 -7.89869 121.122 -8.38923 120.635C-8.63716 120.395 -8.83386 120.106 -8.96751 119.788C-9.10116 119.469 -9.16899 119.127 -9.16695 118.782V118.047C-9.16697 117.945 -9.12673 117.846 -9.05484 117.772C-8.98295 117.699 -8.88514 117.657 -8.78236 117.654H1.99466C2.09679 117.655 2.19487 117.694 2.26814 117.765C2.30531 117.801 2.33503 117.843 2.35558 117.89C2.37613 117.937 2.38708 117.988 2.38779 118.039V118.773C2.39007 119.469 2.11609 120.138 1.62589 120.633C1.13568 121.127 0.469238 121.408 -0.227407 121.412H-6.53466L-6.5432 121.395ZM-8.38923 118.474V118.807C-8.38698 119.296 -8.19176 119.764 -7.84605 120.109C-7.50034 120.455 -7.0321 120.65 -6.5432 120.652H-0.244503C0.00559425 120.655 0.253605 120.606 0.484601 120.511C0.715597 120.415 0.924809 120.273 1.09966 120.095C1.2745 119.916 1.41137 119.704 1.50202 119.471C1.59268 119.238 1.63524 118.989 1.62716 118.739V118.397L-8.38923 118.474Z" fill="#D1D3D4"/>
<path d="M18.9998 27.1162C19.0017 25.1868 19.769 23.3368 21.1336 21.9719C22.4981 20.6069 24.3486 19.8382 26.2793 19.8344C26.6721 19.8385 27.0641 19.8721 27.4518 19.9351C28.2896 18.375 29.5345 17.0708 31.0542 16.1608C32.574 15.2509 34.312 14.7691 36.0837 14.7667H36.4361C36.2049 13.8427 36.0865 12.8941 36.0837 11.9417C36.045 10.3876 36.318 8.8415 36.8864 7.39444C37.4548 5.94739 38.3073 4.62863 39.3935 3.51583C40.4798 2.40303 41.7778 1.51868 43.2113 0.914872C44.6448 0.311064 46.1847 0 47.7403 0C49.2959 0 50.8358 0.311064 52.2693 0.914872C53.7028 1.51868 55.0008 2.40303 56.0871 3.51583C57.1733 4.62863 58.0257 5.94739 58.5942 7.39444C59.1626 8.8415 59.4355 10.3876 59.3969 11.9417C59.3953 12.8946 59.2744 13.8437 59.0372 14.7667C59.1595 14.7667 59.2746 14.7667 59.3969 14.7667C61.9559 14.8359 64.3869 15.9004 66.1724 17.7336C67.958 19.5669 68.957 22.0241 68.957 24.5823C68.957 27.1406 67.958 29.5978 66.1724 31.431C64.3869 33.2643 61.9559 34.3288 59.3969 34.398H25.3082V34.3477C23.559 34.1093 21.9557 33.2451 20.7956 31.9153C19.6356 30.5855 18.9975 28.8804 18.9998 27.1162Z" fill="#EFEFEF"/>
<path d="M630 52.1162C630.002 50.1868 630.769 48.3368 632.134 46.9719C633.498 45.6069 635.349 44.8382 637.279 44.8344C637.672 44.8385 638.064 44.8721 638.452 44.9351C639.29 43.375 640.534 42.0708 642.054 41.1608C643.574 40.2509 645.312 39.7691 647.084 39.7667H647.436C647.205 38.8427 647.087 37.8941 647.084 36.9417C647.045 35.3876 647.318 33.8415 647.886 32.3944C648.455 30.9474 649.307 29.6286 650.394 28.5158C651.48 27.403 652.778 26.5187 654.211 25.9149C655.645 25.3111 657.185 25 658.74 25C660.296 25 661.836 25.3111 663.269 25.9149C664.703 26.5187 666.001 27.403 667.087 28.5158C668.173 29.6286 669.026 30.9474 669.594 32.3944C670.163 33.8415 670.436 35.3876 670.397 36.9417C670.395 37.8946 670.274 38.8437 670.037 39.7667C670.16 39.7667 670.275 39.7667 670.397 39.7667C672.956 39.8359 675.387 40.9004 677.172 42.7336C678.958 44.5669 679.957 47.0241 679.957 49.5823C679.957 52.1405 678.958 54.5978 677.172 56.431C675.387 58.2643 672.956 59.3288 670.397 59.398H636.308V59.3477C634.559 59.1093 632.956 58.2451 631.796 56.9153C630.636 55.5855 629.998 53.8804 630 52.1162Z" fill="#EFEFEF"/>
<path opacity="0.04" d="M604.33 177.708C640.892 170.261 738.487 237.95 769.208 181.089C799.929 124.229 693.679 133.061 656.427 135.596C619.176 138.132 576.019 129.384 553.598 132.875C531.177 136.366 506.312 147.553 514.817 171.077C523.322 194.601 567.769 185.156 604.33 177.708Z" fill="#3F3F3F"/>
<path d="M719.305 103.088C719.303 102.613 719.421 102.143 719.65 101.704C719.879 101.266 720.217 100.867 720.642 100.531C721.068 100.195 721.574 99.9282 722.131 99.7464C722.687 99.5645 723.284 99.4708 723.887 99.4708C724.135 99.4732 724.382 99.4895 724.627 99.5198C725.155 98.7475 725.938 98.1021 726.895 97.652C727.851 97.202 728.944 96.9641 730.059 96.9636H730.287C730.137 96.5071 730.06 96.0375 730.059 95.5659C730.117 94.0683 730.914 92.6475 732.281 91.6044C733.648 90.5614 735.477 89.978 737.381 89.978C739.285 89.978 741.114 90.5614 742.481 91.6044C743.848 92.6475 744.645 94.0683 744.703 95.5659C744.701 96.0371 744.627 96.5064 744.482 96.9636H744.703C746.34 96.9636 747.91 97.4753 749.067 98.3861C750.225 99.2969 750.875 100.532 750.875 101.82C750.875 103.108 750.225 104.344 749.067 105.255C747.91 106.165 746.34 106.677 744.703 106.677H723.279V106.644C722.183 106.528 721.178 106.104 720.448 105.45C719.718 104.797 719.312 103.958 719.305 103.088Z" fill="#EFEFEF"/>
<defs>
<linearGradient id="paint0_linear" x1="94.3847" y1="82.0255" x2="94.3847" y2="171.06" gradientUnits="userSpaceOnUse">
<stop stop-color="white"/>
<stop offset="1" stop-color="#D6D6D6"/>
</linearGradient>
</defs>
</svg>
