<svg width="517" height="36" viewBox="0 0 517 36" fill="none" xmlns="http://www.w3.org/2000/svg">
<g clip-path="url(#clip0)">
<path fill-rule="evenodd" clip-rule="evenodd" d="M447.241 26.7262H432.245V8.20564H447.122L447.389 8.25416C449.048 8.48147 450.616 9.96317 451.064 11.8163C451.441 13.3673 451.205 15.6349 449.46 16.5262C449.482 16.5151 448.943 16.5996 449.374 16.6648C452.4 17.1152 452.855 21.1459 452.253 23.2083C451.719 25.0241 449.462 26.5377 447.696 26.7359L447.241 26.7262ZM98.0623 26.74H83.0097V8.1502H97.9417L98.2092 8.19871C99.8753 8.42741 101.45 9.91466 101.898 11.7761C102.276 13.3313 102.042 15.6072 100.287 16.5026C100.31 16.4915 99.7699 16.5761 100.201 16.6412C103.239 17.0931 103.697 21.139 103.091 23.2097C102.556 25.031 100.291 26.5501 98.5169 26.7497L98.0623 26.74ZM89.8942 18.6247L89.1707 18.6191L90.7744 15.0763L94.8841 15.0722C97.6659 14.6286 97.6978 11.4781 94.7371 11.3132L87.8041 11.3284V23.0517H95.3609L95.6506 23.0559C97.2681 22.9311 97.6576 22.3351 97.9237 21.6449C98.4712 20.2034 97.2681 18.5845 95.7725 18.6247H89.8942ZM136.713 20.1687H127.365L127.359 16.8006H136.722L136.713 20.1687ZM162.332 8.1599V26.7331H166.863V11.9674H173.115C176.664 11.9064 177.328 17.0113 172.934 16.9503H170.216L168.268 20.3253H172.481L176.739 26.826H176.649H181.723L176.559 19.2165C182.024 17.9774 182.236 8.1308 173.841 8.16129L162.332 8.1599ZM48.2182 8.26109L54.2434 8.21396L62.9451 26.6984L57.9317 26.7456L51.208 12.4248L48.1725 19.2567H53.7306L52.0008 22.5791L46.8502 22.5319L44.9055 26.6971L39.9545 26.6499L48.2196 8.2597L48.2182 8.26109ZM80.8918 9.27291V12.8975C78.286 11.7387 73.5277 10.6146 70.1096 12.8074C66.7581 15.3494 67.0631 20.1479 70.1096 22.2326C73.7397 24.4891 77.9326 23.4315 80.8918 22.2326V25.7642C77.2187 27.1739 72.344 27.562 67.752 25.7642C63.4455 23.7475 61.6325 18.5068 63.2999 14.0853C65.7449 7.56529 75.0676 6.35526 80.8918 9.27291ZM111.46 8.26109L117.484 8.21396L126.185 26.6984L121.171 26.7456L114.448 12.4262L111.413 19.2581H116.971L115.242 22.5805L110.091 22.5333L108.146 26.6984L103.195 26.6513L111.46 8.26109ZM268.675 8.26109L274.699 8.21396L283.401 26.6984L278.387 26.7456L271.663 12.4262L268.628 19.2581H274.185L272.458 22.5805L267.306 22.5333L265.362 26.6984L260.41 26.6513L268.675 8.26109ZM301.913 9.27291V12.8975C299.307 11.7387 294.549 10.6146 291.131 12.8074C287.779 15.3494 288.084 20.1479 291.131 22.2326C293.958 23.9901 297.128 23.7364 299.789 22.9713V20.3129H293.936L295.423 16.9877H303.82V25.4427C301.874 26.0775 299.925 26.5072 298.249 26.7373C295.285 27.2071 291.961 27.0131 288.772 25.7642C284.466 23.7475 282.653 18.5068 284.32 14.0853C286.766 7.56529 296.089 6.35526 301.913 9.27291ZM383.807 8.1502H388.616V23.4163H399.135L397.537 26.7567L383.796 26.6638L383.807 8.1502ZM247.57 11.9341V26.704H242.759V11.9328H235.785L237.694 8.18347H254.913L252.927 11.9328H247.57V11.9341ZM330.477 8.1502H335.288V26.704H330.477V8.1502ZM228.569 8.1502H233.38V26.704H228.569V8.1502ZM416.033 15.5892L413.172 19.1236H406.155L409.055 15.5892H416.033ZM400.775 8.19733L400.719 26.7359H417.846L419.476 23.383H405.884V11.8745H418.569L417.209 8.25138L400.775 8.19733ZM357.111 9.2743V12.8988C354.505 11.7401 349.748 10.616 346.33 12.8087C342.979 15.3508 343.284 20.1493 346.33 22.2339C349.959 24.4905 354.152 23.4329 357.111 22.2339V25.7656C353.437 27.1752 348.563 27.5633 343.971 25.7656C339.665 23.7489 337.853 18.5082 339.519 14.0867C341.966 7.56667 351.287 6.35664 357.111 9.2743ZM308.136 8.11001V26.6832H312.667V11.912H318.918C322.467 11.851 323.132 16.9544 318.737 16.8948H316.019L314.07 20.2699H318.285L322.541 26.7705H322.453H327.527L322.361 19.1611C327.828 17.9219 328.039 8.07536 319.643 8.10585H308.136V8.11001ZM158.981 9.42676V13.0513C156.374 11.8926 151.617 10.7685 148.199 12.9598C144.847 15.5019 145.152 20.3018 148.199 22.385C151.828 24.6429 156.022 23.584 158.981 22.385V25.9167C155.307 27.3277 150.432 27.7172 145.84 25.9167C141.533 23.9014 139.722 18.6607 141.388 14.2392C143.834 7.71914 153.157 6.50911 158.981 9.42676ZM199.482 15.5878L196.685 19.1222H189.606L192.504 15.5878H199.482ZM184.224 8.19733L184.168 26.7359H201.295L202.925 23.383H189.333V11.8745H202.018L200.66 8.25138L184.224 8.19733ZM205.651 8.25554V26.6582H215.683C227.461 26.7068 227.914 8.17515 215.453 8.2098L205.651 8.25554ZM210.346 11.984V23.2458H215.568C215.664 23.2458 215.758 23.243 215.85 23.2388C216.03 23.2282 216.212 23.2074 216.39 23.1765C216.726 23.1165 217.054 23.016 217.366 22.8771C217.442 22.8424 217.516 22.8064 217.588 22.7676C217.66 22.7302 217.732 22.6886 217.801 22.6456H217.803C217.941 22.5609 218.074 22.4684 218.202 22.3684C221.007 20.1632 220.96 14.4291 217.789 12.5551C217.642 12.4709 217.491 12.3941 217.337 12.325H217.335C217.176 12.2556 217.013 12.1955 216.846 12.1448C216.582 12.0668 216.31 12.013 216.037 11.984C215.842 11.962 215.644 11.9518 215.448 11.9535H215.419L210.346 11.984ZM461.527 8.31653L467.53 8.2694L476.199 26.686L471.203 26.7331L464.504 12.4664L461.481 19.2719H467.017L465.296 22.5832L460.163 22.5361L458.227 26.686L453.293 26.6388L461.527 8.31653ZM477.709 8.2694H483.545L491.977 20.9186V8.26663H496.13V26.7289H490.785L481.628 13.3562V26.7303H477.709V8.26663V8.2694ZM499.55 8.43989H504.293V15.19L510.203 8.43989H515.535L509.026 15.8733L516.739 26.7317H511.407L506.082 19.2359L504.293 21.279V26.7317H499.55V8.43989ZM369.54 7.92289C375.75 7.92289 380.784 12.2266 380.784 17.531C380.784 22.8369 375.75 27.1406 369.54 27.1406C363.332 27.1406 358.298 22.8369 358.298 17.531C358.298 12.2266 363.332 7.92289 369.54 7.92289ZM369.54 11.1926C370.373 11.1926 371.197 11.3566 371.966 11.6752C372.735 11.9938 373.434 12.4608 374.023 13.0495C374.612 13.6382 375.079 14.3371 375.397 15.1063C375.716 15.8755 375.88 16.6999 375.88 17.5324C375.88 18.365 375.716 19.1894 375.397 19.9586C375.079 20.7278 374.612 21.4267 374.023 22.0154C373.434 22.6041 372.735 23.0711 371.966 23.3897C371.197 23.7083 370.373 23.8723 369.54 23.8723C367.859 23.8723 366.246 23.2043 365.057 22.0154C363.868 20.8264 363.2 19.2139 363.2 17.5324C363.2 15.851 363.868 14.2384 365.057 13.0495C366.246 11.8605 367.859 11.1926 369.54 11.1926ZM439.103 18.6413L438.384 18.6371L439.981 15.1068L444.077 15.1027C446.846 14.6591 446.879 11.5225 443.928 11.3575L437.022 11.3728V23.0517H444.551L444.839 23.0573C446.451 22.9325 446.839 22.3365 447.102 21.6504C447.649 20.2145 446.451 18.6011 444.961 18.6427L439.103 18.6413ZM0 8.44682V26.6569L9.50143 31.8047V35.3669H14.4497V0.726471L0 8.44682ZM15.8357 0.726471V35.3682H20.784V31.8047L30.2854 26.6569V21.5104L20.5857 26.8565V8.24861L26.3268 11.4144V21.5104L30.2854 19.5325V8.44543L15.8343 0.726471H15.8357ZM9.69826 26.8565C9.50144 26.8565 8.31497 26.2604 6.72932 25.4704C5.93788 24.8758 4.75002 24.4794 3.95858 23.8875V11.413L6.7307 9.83011L9.69826 8.24723V26.8565Z" fill="#297C48"/>
<path d="M516.516 32.3272H39.1021V35.378H516.516V32.3272Z" fill="#EB212E"/>
</g>
<defs>
<clipPath id="clip0">
<rect width="517" height="34.6515" fill="white" transform="translate(0 0.726471)"/>
</clipPath>
</defs>
</svg>
