<svg width="16" height="16" viewBox="0 0 16 16" fill="none" xmlns="http://www.w3.org/2000/svg">
<path d="M4.19527 7.00518C4.26634 6.93436 4.34343 6.8746 4.42453 6.82262L9.85052 1.39688C10.3799 0.86779 11.2387 0.867539 11.7683 1.39713C12.2978 1.92647 12.2978 2.78502 11.7683 3.31486L7.09534 7.98777L11.7924 12.685C12.3219 13.2144 12.3219 14.0727 11.7924 14.6028C11.5274 14.8679 11.1802 15 10.8336 15C10.4871 15 10.1396 14.8679 9.87488 14.6028L4.42453 9.15192C4.34343 9.09994 4.26583 9.04017 4.19527 8.96936C3.92457 8.69866 3.794 8.34209 3.80053 7.98727C3.794 7.63245 3.92457 7.27612 4.19527 7.00518Z" fill="#19A98A"/>
</svg>
