<svg width="24" height="24" viewBox="0 0 24 24" fill="none" xmlns="http://www.w3.org/2000/svg">
<path opacity="0.2" d="M19.5 4.5H18.6667V2.83333C18.6667 2.37333 18.2933 2 17.8333 2H17C16.54 2 16.1667 2.37333 16.1667 2.83333V4.5H7.83333V2.83333C7.83333 2.37333 7.46 2 7 2H6.16667C5.70667 2 5.33333 2.37333 5.33333 2.83333V4.5H4.5C3.12167 4.5 2 5.62167 2 7V19.5C2 20.8783 3.12167 22 4.5 22H19.5C20.8783 22 22 20.8783 22 19.5V7C22 5.62167 20.8783 4.5 19.5 4.5ZM20.3333 19.5C20.3333 19.9592 19.9592 20.3333 19.5 20.3333H4.5C4.04083 20.3333 3.66667 19.9592 3.66667 19.5V10.3667H20.3333V19.5Z" fill="black"/>
</svg>
