<svg width="56" height="56" viewBox="0 0 56 56" fill="none" xmlns="http://www.w3.org/2000/svg">
<g id="File/doc">
<path id="file-doc" d="M12 3.5C12 2.40343 12.9034 1.5 14 1.5H37.8787L51 14.6213V52.5C51 53.5966 50.0966 54.5 49 54.5H14C12.9034 54.5 12 53.5966 12 52.5V3.5Z" stroke="#DDDDDD" stroke-width="3"/>
<path id="corner-doc" d="M48.8787 12.5H42C40.9034 12.5 40 11.5966 40 10.5V3.62132L48.8787 12.5Z" stroke="#DDDDDD" stroke-width="3"/>
<path id="Vector" d="M45.5 45.5C45.5 46.4625 44.7125 47.25 43.75 47.25H5.25C4.2875 47.25 3.5 46.4625 3.5 45.5V28C3.5 27.0375 4.2875 26.25 5.25 26.25H43.75C44.7125 26.25 45.5 27.0375 45.5 28V45.5Z" fill="#527BDD"/>
<g id="Group">
<path id="Vector_2" d="M10.1254 42C9.66342 42 9.15942 41.7463 9.15942 41.132V33.1853C9.15942 32.6813 9.66342 32.3173 10.1254 32.3173H13.3297C19.7242 32.3173 19.5824 42 13.4539 42H10.1254ZM11.0074 34.0235V40.292H13.3297C17.1079 40.292 17.2742 34.0235 13.3297 34.0235H11.0074Z" fill="white"/>
<path id="Vector_3" d="M24.9374 42.14C22.3491 42.252 19.6611 40.53 19.6611 37.1018C19.6611 33.6595 22.3474 31.9673 24.9374 31.9673C27.3857 32.0915 29.9459 33.7855 29.9459 37.1018C29.9459 40.4198 27.3857 42.14 24.9374 42.14ZM24.7834 33.7873C23.2154 33.7873 21.5091 34.8933 21.5091 37.1035C21.5091 39.3015 23.2171 40.4215 24.7834 40.4215C26.3934 40.4215 28.1137 39.3015 28.1137 37.1035C28.1137 34.8915 26.3934 33.7873 24.7834 33.7873Z" fill="white"/>
<path id="Vector_4" d="M31.5928 37.0878C31.5928 34.3876 33.2868 32.0653 36.505 32.0653C37.723 32.0653 38.689 32.4293 39.7093 33.3113C40.0873 33.6596 40.1293 34.2756 39.7513 34.6676C39.3733 35.0018 38.7993 34.9616 38.4633 34.6256C37.891 34.0236 37.303 33.8573 36.505 33.8573C34.3508 33.8573 33.3165 35.3833 33.3165 37.0896C33.3165 38.8256 34.3368 40.4198 36.505 40.4198C37.303 40.4198 38.045 40.0961 38.689 39.5238C39.1213 39.1878 39.7233 39.3541 39.9753 39.6918C40.1993 39.9998 40.3095 40.5178 39.8213 41.0061C38.8413 41.9178 37.667 42.0998 36.5033 42.0998C33.1188 42.0998 31.5928 39.7881 31.5928 37.0878Z" fill="white"/>
</g>
</g>
</svg>
