<svg width="21" height="21" viewBox="0 0 21 21" fill="none" xmlns="http://www.w3.org/2000/svg">
<path d="M19.2467 0.645996H1.73179C1.13206 0.646357 0.645876 1.13278 0.645996 1.73275V19.2477C0.646357 19.8474 1.13278 20.3336 1.73275 20.3335H11.1627V12.72H8.60559V9.73993H11.1627V7.54683C11.1627 5.00359 12.7153 3.61931 14.984 3.61931C16.0706 3.61931 17.0044 3.7003 17.2766 3.73647V6.39459H15.7121C14.4778 6.39459 14.2388 6.98111 14.2388 7.84196V9.73993H17.19L16.8055 12.72H14.2388V20.3335H19.2467C19.8468 20.3336 20.3334 19.8473 20.3335 19.2472C20.3335 19.2471 20.3335 19.247 20.3335 19.2467V1.73179C20.3333 1.13206 19.8467 0.645876 19.2467 0.645996Z" fill="black"/>
</svg>
