<svg width="20" height="21" viewBox="0 0 20 21" fill="none" xmlns="http://www.w3.org/2000/svg">
<g clip-path="url(#clip0)">
<path d="M4.48062 7.06787H0.616148C0.444637 7.06787 0.305664 7.20691 0.305664 7.37835V19.7932C0.305664 19.9647 0.444637 20.1037 0.616148 20.1037H4.48062C4.65213 20.1037 4.7911 19.9647 4.7911 19.7932V7.37835C4.7911 7.20691 4.65213 7.06787 4.48062 7.06787Z" fill="black"/>
<path d="M2.55007 0.896118C1.14395 0.896118 0 2.03882 0 3.44339C0 4.84858 1.14395 5.99172 2.55007 5.99172C3.95507 5.99172 5.09808 4.84852 5.09808 3.44339C5.09815 2.03882 3.95507 0.896118 2.55007 0.896118Z" fill="black"/>
<path d="M14.3103 6.7594C12.7582 6.7594 11.6108 7.42663 10.9149 8.18477V7.37844C10.9149 7.20699 10.7759 7.06796 10.6044 7.06796H6.9035C6.73199 7.06796 6.59302 7.20699 6.59302 7.37844V19.7933C6.59302 19.9648 6.73199 20.1038 6.9035 20.1038H10.7595C10.931 20.1038 11.07 19.9648 11.07 19.7933V13.6508C11.07 11.581 11.6322 10.7746 13.0751 10.7746C14.6465 10.7746 14.7714 12.0673 14.7714 13.7573V19.7934C14.7714 19.9649 14.9104 20.1039 15.0819 20.1039H18.9394C19.1109 20.1039 19.2498 19.9649 19.2498 19.7934V12.9836C19.2498 9.90578 18.663 6.7594 14.3103 6.7594Z" fill="black"/>
</g>
<defs>
<clipPath id="clip0">
<rect width="19.25" height="19.25" fill="white" transform="translate(0 0.875)"/>
</clipPath>
</defs>
</svg>
