<svg width="103" height="104" viewBox="0 0 103 104" fill="none" xmlns="http://www.w3.org/2000/svg">
<path opacity="0.4" d="M31.2727 40.6187C25.4143 35.8587 16.7163 36.9526 14.7895 44.3785C13.6241 48.8697 13.3127 53.5578 13.8732 58.1753C14.4337 62.7928 15.855 67.2492 18.056 71.29C20.257 75.3308 23.1945 78.877 26.7009 81.726C30.2073 84.575 34.2139 86.671 38.492 87.8945C42.77 89.1179 47.2357 89.4448 51.634 88.8564C56.0324 88.268 60.2773 86.7759 64.1263 84.4652C70.4905 80.6447 69.3179 71.5308 63.4595 66.7708L47.3661 53.6948L31.2727 40.6187Z" fill="#E9E9E9"/>
<path d="M45.7176 47.824H35.892C33.1948 47.824 31.0003 50.0186 31.0003 52.7157V57.5854C31.0003 59.3284 31.9089 60.878 33.3146 61.7459V69.8895C33.3146 71.0546 34.2589 71.9989 35.424 71.9989H46.1856C47.3507 71.9989 48.295 71.0546 48.295 69.8895V61.7459C49.7001 60.878 50.6093 59.3278 50.6093 57.5854V52.7157C50.6093 50.0186 48.4147 47.824 45.7176 47.824ZM46.3905 57.5854C46.3905 57.9089 46.1499 58.194 45.8308 58.2484C44.8178 58.4214 44.0762 59.2998 44.0762 60.3276V67.7802H37.5333V60.3276C37.5333 59.2998 36.7918 58.4214 35.7788 58.2484C35.4597 58.194 35.2191 57.9089 35.2191 57.5854V52.7157C35.2191 52.351 35.5272 52.0428 35.892 52.0428H45.7176C46.0823 52.0428 46.3905 52.351 46.3905 52.7157V57.5854Z" fill="black"/>
<path d="M48.0126 39.269C48.0126 35.293 44.7783 32.0587 40.8023 32.0587C36.8269 32.0587 33.5925 35.293 33.5925 39.269C33.5925 43.2444 36.8269 46.4788 40.8023 46.4788C44.7783 46.4788 48.0126 43.2444 48.0126 39.269ZM37.8113 39.269C37.8113 37.6194 39.1533 36.2774 40.8029 36.2774C42.4519 36.2774 43.7939 37.6194 43.7939 39.269C43.7939 40.918 42.4519 42.26 40.8029 42.26C39.1533 42.26 37.8113 40.918 37.8113 39.269Z" fill="black"/>
<path d="M73.0516 44.8588H60.7024C57.6114 44.8588 55.0966 47.3758 55.0966 50.4701V53.4589C55.0966 55.5639 56.2518 57.4233 58.0096 58.383L58.0431 69.8967C58.0464 71.0596 58.9902 72 60.1525 72H73.6778C74.2386 72 74.7759 71.777 75.1714 71.3798C75.5674 70.9832 75.7888 70.4449 75.7872 69.8846L75.7536 58.3786C77.5065 57.4173 78.6573 55.5606 78.6573 53.4589V50.4701C78.6573 47.3758 76.1426 44.8588 73.0516 44.8588ZM74.4386 53.4589C74.4386 54.1291 73.9426 54.7191 73.2845 54.8311C72.2688 55.0047 71.5272 55.8864 71.5305 56.9169L71.5624 67.7812H62.2558L62.224 56.9042C62.2207 55.8787 61.4808 55.0042 60.4695 54.8311C59.8114 54.7191 59.3154 54.1291 59.3154 53.4589V50.4701C59.3154 49.7021 59.9377 49.0776 60.7024 49.0776H73.051C73.8162 49.0776 74.4386 49.7021 74.4386 50.4701V53.4589Z" fill="#6D56BA"/>
<path d="M66.8746 42.1188C71.5723 42.1188 75.3939 38.2967 75.3939 33.5989C75.3939 28.9012 71.5723 25.0796 66.8746 25.0796C62.1768 25.0796 58.3547 28.9012 58.3547 33.5989C58.3547 38.2967 62.1768 42.1188 66.8746 42.1188ZM66.8746 29.2983C69.246 29.2983 71.1752 31.2275 71.1752 33.5989C71.1752 35.9703 69.246 37.9001 66.8746 37.9001C64.5032 37.9001 62.5734 35.9703 62.5734 33.5989C62.5734 31.2275 64.5026 29.2983 66.8746 29.2983Z" fill="#6D56BA"/>
<path d="M77.3652 6.78296L71.8594 5.34265L68.7173 0.892639C68.3218 0.332886 67.6791 0 66.9941 0C66.3085 0 65.6664 0.332886 65.2709 0.892639L62.1288 5.34265L56.623 6.78296C55.9221 6.96588 55.3645 7.49597 55.1453 8.18646C54.9267 8.87695 55.0778 9.63171 55.5452 10.1849L59.046 14.3273L58.8071 19.5914C58.7752 20.2912 59.0933 20.9614 59.6552 21.3794C60.2172 21.798 60.9505 21.9095 61.6113 21.6782L66.9941 19.793L72.3768 21.6782C72.6037 21.7573 72.8394 21.7969 73.0739 21.7969C73.5216 21.7969 73.9638 21.6541 74.333 21.3794C74.8949 20.9614 75.213 20.2912 75.1811 19.5914L74.9421 14.3273L78.4424 10.1849C78.9104 9.63171 79.0609 8.87695 78.8423 8.18646C78.6237 7.49597 78.0661 6.96588 77.3652 6.78296ZM71.1865 12.236C70.8431 12.642 70.6663 13.1622 70.6904 13.6934L70.8256 16.6646L67.6912 15.5676C67.2418 15.41 66.7463 15.41 66.297 15.5676L63.1632 16.6646L63.2983 13.6934C63.3225 13.1622 63.145 12.642 62.8023 12.236L60.9274 10.0179L63.9415 9.22961C64.4227 9.10382 64.8441 8.81158 65.1308 8.40564L66.9941 5.76617L68.8579 8.40564C69.1447 8.81213 69.566 9.10382 70.0472 9.22961L73.0613 10.0179L71.1865 12.236Z" fill="#6D56BA"/>
<path d="M49.5336 8.87915L45.2341 7.75525L42.7842 4.28467C42.3887 3.72491 41.7465 3.39203 41.061 3.39203C40.376 3.39203 39.7333 3.72491 39.3378 4.28467L36.8878 7.7547L32.5883 8.87915C31.8874 9.06262 31.3298 9.59216 31.1112 10.2827C30.8926 10.9737 31.0431 11.7279 31.5111 12.2816L34.233 15.5028L34.0473 19.5914C34.0154 20.2912 34.3329 20.9614 34.8954 21.3794C35.4574 21.798 36.1907 21.9095 36.8515 21.6782L41.061 20.2039L45.2704 21.6782C45.4978 21.7573 45.7334 21.7969 45.9675 21.7969C46.4151 21.7969 46.8579 21.6541 47.227 21.3794C47.789 20.9614 48.1065 20.2912 48.0746 19.5914L47.889 15.5028L50.6114 12.2816C51.0788 11.7279 51.2299 10.9737 51.0113 10.2832C50.7926 9.59271 50.2345 9.06262 49.5336 8.87915ZM44.1333 13.411C43.7905 13.817 43.6131 14.3377 43.6373 14.8683L43.7191 16.6646L41.758 15.978C41.3093 15.8209 40.8132 15.8209 40.3639 15.978L38.4034 16.6646L38.4852 14.8683C38.5094 14.3377 38.332 13.817 37.9892 13.411L36.8927 12.1141L38.7005 11.6417C39.1817 11.5153 39.6031 11.2236 39.8898 10.8177L41.0615 9.15875L42.2327 10.8177C42.5194 11.2236 42.9407 11.5159 43.4219 11.6417L45.2297 12.1141L44.1333 13.411Z" fill="#E9E9E9"/>
<path d="M86.1235 15.5028L85.9378 19.5914C85.906 20.2912 86.2235 20.9614 86.7854 21.3794C87.3479 21.798 88.0813 21.9095 88.7421 21.6782L92.9515 20.2039L97.1609 21.6782C97.3883 21.7573 97.6234 21.7969 97.858 21.7969C98.3057 21.7969 98.7484 21.6541 99.117 21.3794C99.6795 20.9614 99.997 20.2912 99.9652 19.5914L99.7795 15.5028L102.501 12.2816C102.969 11.7279 103.12 10.9737 102.901 10.2832C102.683 9.59271 102.125 9.06262 101.424 8.87915L97.1247 7.75525L94.6742 4.28467C94.2792 3.72491 93.6365 3.39203 92.9515 3.39203C92.266 3.39203 91.6233 3.72491 91.2283 4.28467L88.7778 7.75525L84.4783 8.87915C83.7779 9.06262 83.2198 9.59271 83.0012 10.2832C82.7826 10.9737 82.9336 11.7279 83.4011 12.2816L86.1235 15.5028ZM90.5905 11.6417C91.0717 11.5153 91.4931 11.2236 91.7798 10.8177L92.9515 9.15875L94.1226 10.8177C94.4094 11.2236 94.8307 11.5159 95.3119 11.6417L97.1197 12.1141L96.0238 13.411C95.6805 13.817 95.5036 14.3377 95.5278 14.8683L95.6091 16.6646L93.6486 15.978C93.1778 15.8132 92.7252 15.8434 92.2544 15.978L90.2934 16.6646L90.3752 14.8683C90.3994 14.3377 90.2219 13.817 89.8792 13.411L88.7833 12.1141L90.5905 11.6417Z" fill="#E9E9E9"/>
<path d="M98.1087 47.824H88.2825C85.5853 47.824 83.3914 50.0186 83.3914 52.7157V57.5854C83.3914 59.3284 84.2999 60.878 85.7051 61.7459V69.8895C85.7051 71.0546 86.6499 71.9989 87.8145 71.9989H98.5767C99.7412 71.9989 100.686 71.0546 100.686 69.8895V61.7459C102.091 60.878 103 59.3278 103 57.5854V52.7157C103 50.0186 100.806 47.824 98.1087 47.824ZM98.781 57.5854C98.781 57.9089 98.5404 58.194 98.2218 58.2484C97.2083 58.4214 96.4673 59.2998 96.4673 60.3276V67.7802H89.9238V60.3276C89.9238 59.2998 89.1828 58.4214 88.1693 58.2484C87.8502 58.194 87.6096 57.9089 87.6096 57.5854V52.7157C87.6096 52.351 87.9177 52.0428 88.2825 52.0428H98.1081C98.4729 52.0428 98.781 52.351 98.781 52.7157V57.5854Z" fill="black"/>
<path d="M93.1934 32.0587C89.218 32.0587 85.9836 35.293 85.9836 39.269C85.9836 43.2444 89.218 46.4788 93.1934 46.4788C97.1693 46.4788 100.403 43.2444 100.403 39.269C100.403 35.293 97.1688 32.0587 93.1934 32.0587ZM93.1934 42.26C91.5443 42.26 90.2024 40.918 90.2024 39.269C90.2024 37.6194 91.5438 36.2774 93.1934 36.2774C94.843 36.2774 96.185 37.6194 96.185 39.269C96.1844 40.918 94.843 42.26 93.1934 42.26Z" fill="black"/>
</svg>
