<svg width="143" height="145" viewBox="0 0 143 145" fill="none" xmlns="http://www.w3.org/2000/svg">
<path opacity="0.4" d="M113.502 81.3817C124.026 84.7376 130.06 96.3122 123.446 105.158C122.736 106.108 121.997 107.038 121.229 107.946C116.145 113.965 109.925 118.924 102.924 122.54C95.923 126.155 88.2786 128.356 80.4271 129.017C72.5755 129.679 64.6707 128.787 57.1638 126.393C49.6569 123.999 42.6951 120.15 36.6758 115.066C30.6564 109.981 25.6975 103.761 22.082 96.7601C18.4666 89.7592 16.2655 82.1148 15.6044 74.2632C15.5046 73.0786 15.4403 71.8927 15.411 70.7072C15.1389 59.6648 26.76 53.7205 37.2836 57.0763L75.3928 69.229L113.502 81.3817Z" fill="#E9E9E9"/>
<path d="M94.461 85.3791L94.2843 85.3823L94.2283 85.55L91.0857 94.9779C90.7329 96.0362 89.7426 96.75 88.627 96.75H54.5254C53.094 96.75 51.9336 95.5896 51.9336 94.1582V82.7979C51.9337 82.7968 51.9337 82.7954 51.9338 82.794C51.9339 82.791 51.934 82.7874 51.934 82.7834H51.684L51.8343 82.5837C48.4451 80.0339 46.25 75.9804 46.25 71.4238V59.8672C46.25 52.1704 52.5122 45.9082 60.209 45.9082H82.9436C89.6842 45.9082 95.3248 50.7115 96.6217 57.0753L96.6625 57.2754H96.8666H99.9943C100.825 57.2754 101.606 57.6737 102.093 58.3466L102.093 58.3467C102.581 59.0195 102.716 59.8853 102.457 60.675L99.2994 70.3013L99.2446 70.4684L99.3834 70.5764C101.331 72.0927 102.586 74.4557 102.586 77.1074C102.586 81.6197 98.9546 85.298 94.461 85.3791ZM57.4171 85.102L57.1172 85.0408V85.3469V91.3164V91.5664H57.3672H63.8406H64.0211L64.0779 91.3951L65.962 85.7115L66.071 85.3828H65.7247H60.209C59.2529 85.3828 58.3193 85.2858 57.4171 85.102ZM69.5911 91.2378L69.4823 91.5664H69.8285H86.5786H86.7588L86.8158 91.3955L88.7129 85.7043L88.8167 85.3929L88.489 85.3756C87.1217 85.3033 86.0352 84.1753 86.0352 82.791V71.4238C86.0352 69.9925 87.1956 68.832 88.627 68.832H94.145H94.3261L94.3825 68.6599L96.3089 62.7869L96.4164 62.459H96.0713H79.3117H79.1304L79.0741 62.6314C78.9931 62.8795 72.4378 82.6516 70.2748 89.1756C69.8536 90.446 69.599 91.2141 69.5911 91.2378ZM91.2188 79.9492V80.1992H91.4688H91.4763H91.4838H91.4913H91.4988H91.5063H91.5137H91.5212H91.5286H91.5361H91.5435H91.5509H91.5583H91.5656H91.573H91.5803H91.5877H91.595H91.6023H91.6096H91.6169H91.6241H91.6314H91.6386H91.6459H91.6531H91.6603H91.6675H91.6747H91.6818H91.689H91.6961H91.7033H91.7104H91.7175H91.7246H91.7317H91.7387H91.7458H91.7528H91.7598H91.7669H91.7739H91.7809H91.7879H91.7948H91.8018H91.8087H91.8157H91.8226H91.8295H91.8364H91.8433H91.8502H91.857H91.8639H91.8707H91.8776H91.8844H91.8912H91.898H91.9048H91.9115H91.9183H91.925H91.9318H91.9385H91.9452H91.9519H91.9586H91.9653H91.972H91.9786H91.9853H91.9919H91.9985H92.0051H92.0118H92.0183H92.0249H92.0315H92.0381H92.0446H92.0512H92.0577H92.0642H92.0707H92.0772H92.0837H92.0902H92.0966H92.1031H92.1095H92.116H92.1224H92.1288H92.1352H92.1416H92.148H92.1543H92.1607H92.1671H92.1734H92.1797H92.1861H92.1924H92.1987H92.205H92.2112H92.2175H92.2238H92.23H92.2363H92.2425H92.2487H92.2549H92.2611H92.2673H92.2735H92.2797H92.2859H92.292H92.2982H92.3043H92.3104H92.3165H92.3227H92.3288H92.3348H92.3409H92.347H92.3531H92.3591H92.3652H92.3712H92.3772H92.3832H92.3892H92.3952H92.4012H92.4072H92.4132H92.4192H92.4251H92.4311H92.437H92.4429H92.4488H92.4548H92.4607H92.4666H92.4725H92.4783H92.4842H92.4901H92.4959H92.5018H92.5076H92.5134H92.5192H92.5251H92.5309H92.5367H92.5424H92.5482H92.554H92.5598H92.5655H92.5713H92.577H92.5827H92.5885H92.5942H92.5999H92.6056H92.6113H92.617H92.6227H92.6283H92.634H92.6397H92.6453H92.6509H92.6566H92.6622H92.6678H92.6734H92.679H92.6846H92.6902H92.6958H92.7014H92.707H92.7125H92.7181H92.7236H92.7292H92.7347H92.7402H92.7458H92.7513H92.7568H92.7623H92.7678H92.7733H92.7787H92.7842H92.7897H92.7951H92.8006H92.806H92.8115H92.8169H92.8223H92.8278H92.8332H92.8386H92.844H92.8494H92.8548H92.8602H92.8655H92.8709H92.8763H92.8816H92.887H92.8923H92.8977H92.903H92.9084H92.9137H92.919H92.9243H92.9296H92.9349H92.9402H92.9455H92.9508H92.9561H92.9614H92.9666H92.9719H92.9771H92.9824H92.9876H92.9929H92.9981H93.0034H93.0086H93.0138H93.019H93.0242H93.0294H93.0346H93.0398H93.045H93.0502H93.0554H93.0606H93.0657H93.0709H93.0761H93.0812H93.0864H93.0915H93.0967H93.1018H93.1069H93.1121H93.1172H93.1223H93.1274H93.1325H93.1376H93.1428H93.1479H93.1529H93.158H93.1631H93.1682H93.1733H93.1784H93.1834H93.1885H93.1936H93.1986H93.2037H93.2087H93.2138H93.2188H93.2238H93.2289H93.2339H93.2389H93.244H93.249H93.254H93.259H93.264H93.269H93.274H93.279H93.284H93.289H93.294H93.299H93.304H93.3089H93.3139H93.3189H93.3239H93.3288H93.3338H93.3387H93.3437H93.3487H93.3536H93.3586H93.3635H93.3684H93.3734H93.3783H93.3833H93.3882H93.3931H93.398H93.403H93.4079H93.4128H93.4177H93.4226H93.4276H93.4325H93.4374H93.4423H93.4472H93.4521H93.457H93.4619H93.4668H93.4717H93.4765H93.4814H93.4863H93.4912H93.4961H93.501H93.5058H93.5107H93.5156H93.5205H93.5253H93.5302H93.5351H93.5399H93.5448H93.5497H93.5545H93.5594H93.5642H93.5691H93.5739H93.5788H93.5837H93.5885H93.5934H93.5982H93.6031H93.6079H93.6127H93.6176H93.6224H93.6273H93.6321H93.6369H93.6418H93.6466H93.6515H93.6563H93.6611H93.666H93.6708H93.6756H93.6805H93.6853H93.6901H93.695H93.6998H93.7046H93.7094H93.7143H93.7191H93.7239H93.7288H93.7336H93.7384H93.7432H93.7481H93.7529H93.7577H93.7625H93.7674H93.7722H93.777H93.7819H93.7867H93.7915H93.7963H93.8012H93.806H93.8108H93.8156H93.8205H93.8253H93.8301H93.835H93.8398H93.8446H93.8494H93.8543H93.8591H93.8639H93.8688H93.8736H93.8784H93.8833H93.8881H93.8929H93.8978H93.9026H93.9075H93.9123H93.9171H93.922H93.9268H93.9317H93.9365H93.9414H93.9462H93.9511H93.9559H93.9608H93.9656H93.9705H93.9753H93.9802H93.985H93.9899H93.9948H93.9996H94.0045H94.0093H94.0142H94.0191H94.0239H94.0288H94.0337H94.0386H94.0434H94.0483H94.0532H94.0581H94.063H94.0679H94.0728H94.0777H94.0825H94.0874H94.0923H94.0972H94.1021H94.107H94.112H94.1169H94.1218H94.1267H94.1316H94.1365H94.1415H94.1464H94.1513H94.1562H94.1612H94.1661H94.171H94.176H94.1809H94.1859H94.1908H94.1958H94.2007H94.2057H94.2106H94.2156H94.2206H94.2255H94.2305H94.2355H94.2405H94.2455H94.2504H94.2554H94.2604H94.2654H94.2704H94.2754H94.2804H94.2854H94.2905H94.2955H94.3005H94.3055H94.3105C96.0156 80.1992 97.4023 78.8125 97.4023 77.1074C97.4023 75.4024 96.0156 74.0156 94.3105 74.0156H91.4688H91.2188V74.2656V79.9492ZM90.98 57.2754H91.3339L91.2156 56.9418C90.0083 53.5381 86.7576 51.0918 82.9434 51.0918H60.209C55.37 51.0918 51.4336 55.0282 51.4336 59.8672V71.4238C51.4336 76.2628 55.37 80.1992 60.209 80.1992H67.6088H67.7893L67.8461 80.0279L69.7302 74.3443L69.8392 74.0156H69.4929H60.209C58.7776 74.0156 57.6172 72.8552 57.6172 71.4238V59.8672C57.6172 58.4358 58.7776 57.2754 60.209 57.2754C61.6403 57.2754 62.8008 58.4358 62.8008 59.8672V68.582V68.832H63.0508H71.3771H71.5576L71.6144 68.6607L74.7996 59.0516L74.5653 58.974L74.7996 59.0516C75.1511 57.9913 76.1425 57.2754 77.2598 57.2754H90.98Z" fill="black" stroke="white" stroke-width="0.5"/>
<path d="M71.5762 17.4902C79.2729 17.4902 85.5352 23.7525 85.5352 31.4492C85.5352 39.146 79.2729 45.4082 71.5762 45.4082C63.8794 45.4082 57.6172 39.146 57.6172 31.4492C57.6172 23.7525 63.8794 17.4902 71.5762 17.4902ZM62.8008 31.4492C62.8008 36.2882 66.7372 40.2246 71.5762 40.2246C76.4151 40.2246 80.3516 36.2882 80.3516 31.4492C80.3516 26.6102 76.4151 22.6738 71.5762 22.6738C66.7372 22.6738 62.8008 26.6102 62.8008 31.4492Z" fill="black" stroke="white" stroke-width="0.5"/>
<path d="M103.275 39.9746V39.7246H103.025H99.9941C95.4313 39.7246 91.7188 36.012 91.7188 31.4492V8.52539C91.7188 3.96256 95.4313 0.25 99.9941 0.25H134.475C139.037 0.25 142.75 3.96256 142.75 8.52539V31.4492C142.75 36.012 139.037 39.7246 134.475 39.7246H118.411H118.308L118.235 39.7978L107.7 50.3327C106.959 51.0738 105.844 51.2957 104.875 50.8945C103.907 50.4933 103.275 49.5483 103.275 48.5V39.9746ZM108.459 41.6393V42.2429L108.886 41.8161L115.402 35.3001C115.888 34.814 116.547 34.541 117.234 34.541H134.475C136.18 34.541 137.566 33.1543 137.566 31.4492V8.52539C137.566 6.82035 136.18 5.43359 134.475 5.43359H99.9941C98.2891 5.43359 96.9023 6.82035 96.9023 8.52539V31.4492C96.9023 33.1543 98.2891 34.541 99.9941 34.541H105.867C107.299 34.541 108.459 35.7015 108.459 37.1328V41.6393Z" fill="#E9E9E9" stroke="white" stroke-width="0.5"/>
<path d="M120.909 15.2308L114.393 21.7468L112.139 19.4935C111.03 18.3837 109.23 18.3837 108.12 19.4935C107.011 20.6033 107.011 22.4025 108.12 23.5124L112.383 27.7751C113.493 28.8847 115.292 28.8849 116.402 27.7751L124.927 19.2497C126.037 18.1399 126.037 16.3406 124.927 15.2308C123.818 14.121 122.018 14.121 120.909 15.2308Z" fill="#19A98A"/>
</svg>
