<svg width="21" height="21" viewBox="0 0 21 21" fill="none" xmlns="http://www.w3.org/2000/svg">
<path d="M6.841 18.3839C14.2706 18.3839 18.3336 12.2287 18.3336 6.89137C18.3336 6.71655 18.33 6.54245 18.3221 6.36932C19.1107 5.79912 19.7962 5.08756 20.337 4.27765C19.6133 4.59947 18.8343 4.81583 18.0174 4.91371C18.8513 4.41346 19.4916 3.62244 19.7935 2.67949C19.0131 3.14218 18.1488 3.47833 17.2287 3.65989C16.4916 2.87477 15.4421 2.38379 14.2801 2.38379C12.0496 2.38379 10.2407 4.19265 10.2407 6.42242C10.2407 6.73954 10.2762 7.04776 10.3454 7.34346C6.98836 7.17454 4.0114 5.56735 2.01942 3.12327C1.67268 3.72009 1.47257 4.41358 1.47257 5.15354C1.47257 6.55473 2.18569 7.79206 3.26999 8.51565C2.60732 8.49531 1.98487 8.31339 1.44067 8.01058C1.44007 8.02756 1.44007 8.04406 1.44007 8.06212C1.44007 10.0183 2.83235 11.6517 4.68082 12.0218C4.34129 12.1141 3.98407 12.1638 3.61566 12.1638C3.35584 12.1638 3.10252 12.1383 2.85643 12.091C3.37065 13.6959 4.8619 14.8638 6.62982 14.8965C5.24729 15.9801 3.50573 16.6255 1.61296 16.6255C1.2874 16.6255 0.965579 16.6069 0.649414 16.5696C2.43708 17.7154 4.55982 18.3841 6.84112 18.3841" fill="black"/>
</svg>
