<svg width="56" height="56" viewBox="0 0 56 56" fill="none" xmlns="http://www.w3.org/2000/svg">
<g id="File/xls">
<path id="file-xls" d="M12 3.5C12 2.40343 12.9034 1.5 14 1.5H37.8787L51 14.6213V52.5C51 53.5966 50.0966 54.5 49 54.5H14C12.9034 54.5 12 53.5966 12 52.5V3.5Z" stroke="#DDDDDD" stroke-width="3"/>
<path id="corner-xls" d="M48.8787 12.5H42C40.9034 12.5 40 11.5966 40 10.5V3.62132L48.8787 12.5Z" stroke="#DDDDDD" stroke-width="3"/>
<path id="Vector" d="M45.5 45.5C45.5 46.4625 44.7125 47.25 43.75 47.25H5.25C4.2875 47.25 3.5 46.4625 3.5 45.5V28C3.5 27.0375 4.2875 26.25 5.25 26.25H43.75C44.7125 26.25 45.5 27.0375 45.5 28V45.5Z" fill="#64C780"/>
<g id="Group">
<path id="Vector_2" d="M15.7867 35.6773L18.221 32.627C18.949 31.675 20.363 32.8913 19.565 33.8013C18.7267 34.7953 17.8447 35.8733 17.0047 36.9775L19.859 40.5318C20.629 41.5818 19.0907 42.588 18.3347 41.552L15.7587 38.2498L13.2265 41.6238C12.5125 42.644 10.9305 41.4978 11.7285 40.5458L14.5407 36.9775C13.6587 35.8715 12.8047 34.7953 11.9525 33.8013C11.0722 32.7513 12.7085 31.675 13.3525 32.6568L15.7867 35.6773Z" fill="white"/>
<path id="Vector_3" d="M21.5862 33.1573C21.5862 32.6953 21.9782 32.3033 22.4682 32.3033C22.9162 32.3033 23.2942 32.6971 23.2942 33.1573V40.1678H27.1004C28.4707 40.1678 28.5004 42.0001 27.1004 42.0001H22.4699C21.9799 42.0001 21.5879 41.6518 21.5879 41.1478V33.1573H21.5862Z" fill="white"/>
<path id="Vector_4" d="M29.7535 34.4173C30.0755 31.7013 34.174 31.213 36.106 32.697C37.0581 33.4653 36.0501 34.6833 35.21 34.0673C34.174 33.411 31.8238 33.103 31.5298 34.5555C31.1518 36.8515 37.2383 35.5373 37.1403 39.2595C37.0423 42.8137 31.8938 42.896 29.9618 41.3017C29.498 40.9237 29.5138 40.3095 29.7658 39.9297C30.1298 39.5675 30.534 39.4415 31.0118 39.8335C32.158 40.6157 35.112 41.2037 35.3203 39.2158C35.14 37.1473 29.3195 38.3915 29.7535 34.4173Z" fill="white"/>
</g>
</g>
</svg>
