<svg width="68" height="70" viewBox="0 0 68 70" fill="none" xmlns="http://www.w3.org/2000/svg">
<g clip-path="url(#clip0)">
<path d="M2.3 28.2C2.3 27.6 1.8 27 1.1 27C0.4 27 0 27.6 0 28.2C0 28.8 0.5 29.4 1.2 29.4C1.9 29.4 2.3 28.8 2.3 28.2Z" fill="#19A98A"/>
<path d="M15.3 28.2C15.3 27.6 14.8 27 14.1 27C13.5 27 12.9 27.5 12.9 28.2C12.9 28.9 13.4 29.4 14.1 29.4C14.7 29.4 15.3 28.8 15.3 28.2Z" fill="#19A98A"/>
<path d="M28.2 28.2C28.2 27.6 27.7 27 27 27C26.4 27 25.8 27.5 25.8 28.2C25.8 28.9 26.3 29.4 27 29.4C27.7 29.4 28.2 28.8 28.2 28.2Z" fill="#19A98A"/>
<path d="M41.2 28.2C41.2 27.6 40.7 27 40 27C39.4 27 38.8 27.5 38.8 28.2C38.8 28.9 39.3 29.4 40 29.4C40.6 29.4 41.2 28.8 41.2 28.2Z" fill="#19A98A"/>
<path d="M54.1 28.2C54.1 27.6 53.6 27 52.9 27C52.3 27 51.7 27.5 51.7 28.2C51.7 28.9 52.2 29.4 52.9 29.4C53.6 29.4 54.1 28.8 54.1 28.2Z" fill="#19A98A"/>
<path d="M67.1 28.2C67.1 27.6 66.6 27 65.9 27C65.3 27 64.7 27.5 64.7 28.2C64.7 28.9 65.2 29.4 65.9 29.4C66.5 29.4 67.1 28.8 67.1 28.2Z" fill="#19A98A"/>
<path d="M1.2 42.9C1.86274 42.9 2.4 42.3627 2.4 41.7C2.4 41.0373 1.86274 40.5 1.2 40.5C0.537258 40.5 0 41.0373 0 41.7C0 42.3627 0.537258 42.9 1.2 42.9Z" fill="#19A98A"/>
<path d="M15.3 41.7C15.3 41.1 14.8 40.5 14.1 40.5C13.5 40.5 12.9 41 12.9 41.7C12.9 42.4 13.4 42.9 14.1 42.9C14.7 42.9 15.3 42.4 15.3 41.7Z" fill="#19A98A"/>
<path d="M28.2 41.7C28.2 41.1 27.7 40.5 27 40.5C26.4 40.5 25.8 41 25.8 41.7C25.8 42.4 26.3 42.9 27 42.9C27.7 42.9 28.2 42.4 28.2 41.7Z" fill="#19A98A"/>
<path d="M40 42.9C40.6627 42.9 41.2 42.3627 41.2 41.7C41.2 41.0373 40.6627 40.5 40 40.5C39.3372 40.5 38.8 41.0373 38.8 41.7C38.8 42.3627 39.3372 42.9 40 42.9Z" fill="#19A98A"/>
<path d="M54.1 41.7C54.1 41.1 53.6 40.5 52.9 40.5C52.3 40.5 51.7 41 51.7 41.7C51.7 42.4 52.2 42.9 52.9 42.9C53.6 42.9 54.1 42.4 54.1 41.7Z" fill="#19A98A"/>
<path d="M67.1 41.7C67.1 41.1 66.6 40.5 65.9 40.5C65.3 40.5 64.7 41 64.7 41.7C64.7 42.4 65.2 42.9 65.9 42.9C66.5 42.9 67.1 42.4 67.1 41.7Z" fill="#19A98A"/>
<path d="M2.3 1.2C2.3 0.5 1.8 0 1.2 0C0.6 0 0 0.5 0 1.2C0 1.8 0.5 2.4 1.2 2.4C1.9 2.4 2.3 1.8 2.3 1.2Z" fill="#19A98A"/>
<path d="M15.3 1.2C15.3 0.6 14.8 0 14.1 0C13.5 0 13 0.5 13 1.2C13 1.8 13.5 2.4 14.2 2.4C14.7 2.3 15.3 1.8 15.3 1.2Z" fill="#19A98A"/>
<path d="M28.2 1.2C28.2 0.6 27.7 0 27 0C26.4 0 25.8 0.5 25.8 1.2C25.8 1.8 26.3 2.4 27 2.4C27.7 2.3 28.2 1.8 28.2 1.2Z" fill="#19A98A"/>
<path d="M41.2 1.2C41.2 0.5 40.6 0 40 0C39.4 0 38.8 0.5 38.8 1.2C38.8 1.8 39.3 2.4 40 2.4C40.6 2.3 41.2 1.8 41.2 1.2Z" fill="#19A98A"/>
<path d="M54.1 1.2C54.1 0.5 53.6 0 53 0C52.4 0 51.8 0.5 51.8 1.2C51.8 1.8 52.3 2.4 53 2.4C53.6 2.3 54.1 1.8 54.1 1.2Z" fill="#19A98A"/>
<path d="M67.1 1.2C67.1 0.6 66.6 0 65.9 0C65.3 0 64.7 0.5 64.7 1.2C64.7 1.8 65.2 2.4 65.9 2.4C66.5 2.3 67.1 1.8 67.1 1.2Z" fill="#19A98A"/>
<path d="M2.3 14.7C2.3 14.1 1.8 13.5 1.1 13.5C0.4 13.5 0 14 0 14.7C0 15.3 0.5 15.9 1.2 15.9C1.9 15.9 2.3 15.3 2.3 14.7Z" fill="#19A98A"/>
<path d="M15.3 14.7C15.3 14.1 14.8 13.5 14.1 13.5C13.5 13.5 12.9 14 12.9 14.7C12.9 15.3 13.4 15.9 14.1 15.9C14.7 15.8 15.3 15.3 15.3 14.7Z" fill="#19A98A"/>
<path d="M28.2 14.7C28.2 14.1 27.7 13.5 27 13.5C26.4 13.5 25.8 14 25.8 14.7C25.8 15.3 26.3 15.9 27 15.9C27.7 15.8 28.2 15.3 28.2 14.7Z" fill="#19A98A"/>
<path d="M41.2 14.7C41.2 14.1 40.7 13.5 40 13.5C39.4 13.5 38.8 14 38.8 14.7C38.8 15.3 39.3 15.9 40 15.9C40.6 15.8 41.2 15.3 41.2 14.7Z" fill="#19A98A"/>
<path d="M54.1 14.7C54.1 14.1 53.6 13.5 52.9 13.5C52.3 13.5 51.7 14 51.7 14.7C51.7 15.3 52.2 15.9 52.9 15.9C53.6 15.8 54.1 15.3 54.1 14.7Z" fill="#19A98A"/>
<path d="M67.1 14.7C67.1 14.1 66.6 13.5 65.9 13.5C65.3 13.5 64.7 14 64.7 14.7C64.7 15.3 65.2 15.9 65.9 15.9C66.5 15.8 67.1 15.3 67.1 14.7Z" fill="#19A98A"/>
<path d="M1.2 56.5C1.86274 56.5 2.4 55.9627 2.4 55.3C2.4 54.6373 1.86274 54.1 1.2 54.1C0.537258 54.1 0 54.6373 0 55.3C0 55.9627 0.537258 56.5 1.2 56.5Z" fill="#19A98A"/>
<path d="M15.3 55.3C15.3 54.7 14.8 54.1 14.1 54.1C13.5 54.1 12.9 54.6 12.9 55.3C12.9 56 13.4 56.5 14.1 56.5C14.7 56.4 15.3 55.9 15.3 55.3Z" fill="#19A98A"/>
<path d="M28.2 55.3C28.2 54.7 27.7 54.1 27 54.1C26.4 54.1 25.8 54.6 25.8 55.3C25.8 56 26.3 56.5 27 56.5C27.7 56.4 28.2 55.9 28.2 55.3Z" fill="#19A98A"/>
<path d="M40 56.5C40.6627 56.5 41.2 55.9627 41.2 55.3C41.2 54.6373 40.6627 54.1 40 54.1C39.3372 54.1 38.8 54.6373 38.8 55.3C38.8 55.9627 39.3372 56.5 40 56.5Z" fill="#19A98A"/>
<path d="M54.1 55.3C54.1 54.7 53.6 54.1 52.9 54.1C52.3 54.1 51.7 54.6 51.7 55.3C51.7 56 52.2 56.5 52.9 56.5C53.6 56.4 54.1 55.9 54.1 55.3Z" fill="#19A98A"/>
<path d="M67.1 55.3C67.1 54.7 66.6 54.1 65.9 54.1C65.3 54.1 64.7 54.6 64.7 55.3C64.7 56 65.2 56.5 65.9 56.5C66.5 56.4 67.1 55.9 67.1 55.3Z" fill="#19A98A"/>
<path d="M2.3 68.8C2.3 68.2 1.8 67.6 1.1 67.6C0.4 67.6 0 68.1 0 68.8C0 69.4 0.5 70 1.2 70C1.9 70 2.3 69.4 2.3 68.8Z" fill="#19A98A"/>
<path d="M15.3 68.8C15.3 68.2 14.8 67.6 14.1 67.6C13.5 67.6 12.9 68.1 12.9 68.8C12.9 69.4 13.4 70 14.1 70C14.7 69.9 15.3 69.4 15.3 68.8Z" fill="#19A98A"/>
<path d="M28.2 68.8C28.2 68.2 27.7 67.6 27 67.6C26.4 67.6 25.8 68.1 25.8 68.8C25.8 69.4 26.3 70 27 70C27.7 69.9 28.2 69.4 28.2 68.8Z" fill="#19A98A"/>
<path d="M41.2 68.8C41.2 68.2 40.7 67.6 40 67.6C39.4 67.6 38.8 68.1 38.8 68.8C38.8 69.4 39.3 70 40 70C40.6 69.9 41.2 69.4 41.2 68.8Z" fill="#19A98A"/>
<path d="M54.1 68.8C54.1 68.2 53.6 67.6 52.9 67.6C52.3 67.6 51.7 68.1 51.7 68.8C51.7 69.4 52.2 70 52.9 70C53.6 69.9 54.1 69.4 54.1 68.8Z" fill="#19A98A"/>
<path d="M67.1 68.8C67.1 68.2 66.6 67.6 65.9 67.6C65.3 67.6 64.7 68.1 64.7 68.8C64.7 69.4 65.2 70 65.9 70C66.5 69.9 67.1 69.4 67.1 68.8Z" fill="#19A98A"/>
</g>
<defs>
<clipPath id="clip0">
<rect width="67.1" height="69.9" fill="white"/>
</clipPath>
</defs>
</svg>
