<svg width="16" height="16" viewBox="0 0 16 16" fill="none" xmlns="http://www.w3.org/2000/svg">
<path d="M11.7944 7.0055C11.724 6.93469 11.6462 6.87492 11.5653 6.82294L6.13904 1.39688C5.60944 0.867789 4.75113 0.867538 4.22128 1.39714C3.69169 1.92648 3.69169 2.78504 4.22128 3.31489L8.89475 7.98786L4.19768 12.6854C3.66783 13.2145 3.66783 14.0733 4.19768 14.6032C4.4626 14.8676 4.80939 14.9999 5.15618 14.9999C5.50297 14.9999 5.85051 14.8676 6.11468 14.6027L11.5653 9.15277C11.6462 9.10079 11.7238 9.04128 11.7944 8.97021C12.0656 8.69901 12.1956 8.34293 12.1896 7.98786C12.1959 7.63253 12.0656 7.27595 11.7944 7.0055Z" fill="white"/>
</svg>
