<svg width="68" height="70" viewBox="0 0 68 70" fill="none" xmlns="http://www.w3.org/2000/svg">
<g clip-path="url(#clip0)">
<path d="M2.3 28.2C2.3 27.6 1.8 27 1.1 27C0.4 27 0 27.6 0 28.2C0 28.8 0.5 29.4 1.2 29.4C1.9 29.4 2.3 28.8 2.3 28.2Z" fill="#007240"/>
<path d="M15.2999 28.2C15.2999 27.6 14.7999 27 14.0999 27C13.4999 27 12.8999 27.5 12.8999 28.2C12.8999 28.9 13.3999 29.4 14.0999 29.4C14.6999 29.4 15.2999 28.8 15.2999 28.2Z" fill="#007240"/>
<path d="M28.2001 28.2C28.2001 27.6 27.7 27 27 27C26.4 27 25.8 27.5 25.8 28.2C25.8 28.9 26.3 29.4 27 29.4C27.7 29.4 28.2001 28.8 28.2001 28.2Z" fill="#007240"/>
<path d="M41.2001 28.2C41.2001 27.6 40.7 27 40 27C39.4 27 38.8 27.5 38.8 28.2C38.8 28.9 39.3 29.4 40 29.4C40.6 29.4 41.2001 28.8 41.2001 28.2Z" fill="#007240"/>
<path d="M54.0999 28.2C54.0999 27.6 53.6 27 52.9 27C52.3 27 51.7 27.5 51.7 28.2C51.7 28.9 52.2 29.4 52.9 29.4C53.6 29.4 54.0999 28.8 54.0999 28.2Z" fill="#007240"/>
<path d="M67.1 28.2C67.1 27.6 66.6 27 65.9 27C65.3 27 64.7 27.5 64.7 28.2C64.7 28.9 65.2 29.4 65.9 29.4C66.5 29.4 67.1 28.8 67.1 28.2Z" fill="#007240"/>
<path d="M1.2 42.9C1.86274 42.9 2.4 42.3627 2.4 41.7C2.4 41.0373 1.86274 40.5 1.2 40.5C0.537258 40.5 0 41.0373 0 41.7C0 42.3627 0.537258 42.9 1.2 42.9Z" fill="#007240"/>
<path d="M15.2999 41.7C15.2999 41.1 14.7999 40.5 14.0999 40.5C13.4999 40.5 12.8999 41 12.8999 41.7C12.8999 42.4 13.3999 42.9 14.0999 42.9C14.6999 42.9 15.2999 42.4 15.2999 41.7Z" fill="#007240"/>
<path d="M28.2001 41.7C28.2001 41.1 27.7 40.5 27 40.5C26.4 40.5 25.8 41 25.8 41.7C25.8 42.4 26.3 42.9 27 42.9C27.7 42.9 28.2001 42.4 28.2001 41.7Z" fill="#007240"/>
<path d="M40 42.9C40.6628 42.9 41.2001 42.3627 41.2001 41.7C41.2001 41.0373 40.6628 40.5 40 40.5C39.3373 40.5 38.8 41.0373 38.8 41.7C38.8 42.3627 39.3373 42.9 40 42.9Z" fill="#007240"/>
<path d="M54.0999 41.7C54.0999 41.1 53.6 40.5 52.9 40.5C52.3 40.5 51.7 41 51.7 41.7C51.7 42.4 52.2 42.9 52.9 42.9C53.6 42.9 54.0999 42.4 54.0999 41.7Z" fill="#007240"/>
<path d="M67.1 41.7C67.1 41.1 66.6 40.5 65.9 40.5C65.3 40.5 64.7 41 64.7 41.7C64.7 42.4 65.2 42.9 65.9 42.9C66.5 42.9 67.1 42.4 67.1 41.7Z" fill="#007240"/>
<path d="M2.3 1.2C2.3 0.5 1.8 0 1.2 0C0.6 0 0 0.5 0 1.2C0 1.8 0.5 2.4 1.2 2.4C1.9 2.4 2.3 1.8 2.3 1.2Z" fill="#007240"/>
<path d="M15.3 1.2C15.3 0.6 14.8 0 14.1 0C13.5 0 13 0.5 13 1.2C13 1.8 13.5 2.4 14.2 2.4C14.7 2.3 15.3 1.8 15.3 1.2Z" fill="#007240"/>
<path d="M28.2001 1.2C28.2001 0.6 27.7 0 27 0C26.4 0 25.8 0.5 25.8 1.2C25.8 1.8 26.3 2.4 27 2.4C27.7 2.3 28.2001 1.8 28.2001 1.2Z" fill="#007240"/>
<path d="M41.2001 1.2C41.2001 0.5 40.6 0 40 0C39.4 0 38.8 0.5 38.8 1.2C38.8 1.8 39.3 2.4 40 2.4C40.6 2.3 41.2001 1.8 41.2001 1.2Z" fill="#007240"/>
<path d="M54.1 1.2C54.1 0.5 53.6 0 53 0C52.4 0 51.8 0.5 51.8 1.2C51.8 1.8 52.3 2.4 53 2.4C53.6 2.3 54.1 1.8 54.1 1.2Z" fill="#007240"/>
<path d="M67.1 1.2C67.1 0.6 66.6 0 65.9 0C65.3 0 64.7 0.5 64.7 1.2C64.7 1.8 65.2 2.4 65.9 2.4C66.5 2.3 67.1 1.8 67.1 1.2Z" fill="#007240"/>
<path d="M2.3 14.7C2.3 14.1 1.8 13.5 1.1 13.5C0.4 13.5 0 14 0 14.7C0 15.3 0.5 15.9 1.2 15.9C1.9 15.9 2.3 15.3 2.3 14.7Z" fill="#007240"/>
<path d="M15.2999 14.7C15.2999 14.1 14.7999 13.5 14.0999 13.5C13.4999 13.5 12.8999 14 12.8999 14.7C12.8999 15.3 13.3999 15.9 14.0999 15.9C14.6999 15.8 15.2999 15.3 15.2999 14.7Z" fill="#007240"/>
<path d="M28.2001 14.7C28.2001 14.1 27.7 13.5 27 13.5C26.4 13.5 25.8 14 25.8 14.7C25.8 15.3 26.3 15.9 27 15.9C27.7 15.8 28.2001 15.3 28.2001 14.7Z" fill="#007240"/>
<path d="M41.2001 14.7C41.2001 14.1 40.7 13.5 40 13.5C39.4 13.5 38.8 14 38.8 14.7C38.8 15.3 39.3 15.9 40 15.9C40.6 15.8 41.2001 15.3 41.2001 14.7Z" fill="#007240"/>
<path d="M54.0999 14.7C54.0999 14.1 53.6 13.5 52.9 13.5C52.3 13.5 51.7 14 51.7 14.7C51.7 15.3 52.2 15.9 52.9 15.9C53.6 15.8 54.0999 15.3 54.0999 14.7Z" fill="#007240"/>
<path d="M67.1 14.7C67.1 14.1 66.6 13.5 65.9 13.5C65.3 13.5 64.7 14 64.7 14.7C64.7 15.3 65.2 15.9 65.9 15.9C66.5 15.8 67.1 15.3 67.1 14.7Z" fill="#007240"/>
<path d="M1.2 56.5001C1.86274 56.5001 2.4 55.9628 2.4 55.3001C2.4 54.6374 1.86274 54.1001 1.2 54.1001C0.537258 54.1001 0 54.6374 0 55.3001C0 55.9628 0.537258 56.5001 1.2 56.5001Z" fill="#007240"/>
<path d="M15.2999 55.3001C15.2999 54.7001 14.7999 54.1001 14.0999 54.1001C13.4999 54.1001 12.8999 54.6001 12.8999 55.3001C12.8999 56.0001 13.3999 56.5001 14.0999 56.5001C14.6999 56.4001 15.2999 55.9001 15.2999 55.3001Z" fill="#007240"/>
<path d="M28.2001 55.3001C28.2001 54.7001 27.7 54.1001 27 54.1001C26.4 54.1001 25.8 54.6001 25.8 55.3001C25.8 56.0001 26.3 56.5001 27 56.5001C27.7 56.4001 28.2001 55.9001 28.2001 55.3001Z" fill="#007240"/>
<path d="M40 56.5001C40.6628 56.5001 41.2001 55.9628 41.2001 55.3001C41.2001 54.6374 40.6628 54.1001 40 54.1001C39.3373 54.1001 38.8 54.6374 38.8 55.3001C38.8 55.9628 39.3373 56.5001 40 56.5001Z" fill="#007240"/>
<path d="M54.0999 55.3001C54.0999 54.7001 53.6 54.1001 52.9 54.1001C52.3 54.1001 51.7 54.6001 51.7 55.3001C51.7 56.0001 52.2 56.5001 52.9 56.5001C53.6 56.4001 54.0999 55.9001 54.0999 55.3001Z" fill="#007240"/>
<path d="M67.1 55.3001C67.1 54.7001 66.6 54.1001 65.9 54.1001C65.3 54.1001 64.7 54.6001 64.7 55.3001C64.7 56.0001 65.2 56.5001 65.9 56.5001C66.5 56.4001 67.1 55.9001 67.1 55.3001Z" fill="#007240"/>
<path d="M2.3 68.8001C2.3 68.2001 1.8 67.6001 1.1 67.6001C0.4 67.6001 0 68.1001 0 68.8001C0 69.4001 0.5 70.0001 1.2 70.0001C1.9 70.0001 2.3 69.4001 2.3 68.8001Z" fill="#007240"/>
<path d="M15.2999 68.8001C15.2999 68.2001 14.7999 67.6001 14.0999 67.6001C13.4999 67.6001 12.8999 68.1001 12.8999 68.8001C12.8999 69.4001 13.3999 70.0001 14.0999 70.0001C14.6999 69.9001 15.2999 69.4001 15.2999 68.8001Z" fill="#007240"/>
<path d="M28.2001 68.8001C28.2001 68.2001 27.7 67.6001 27 67.6001C26.4 67.6001 25.8 68.1001 25.8 68.8001C25.8 69.4001 26.3 70.0001 27 70.0001C27.7 69.9001 28.2001 69.4001 28.2001 68.8001Z" fill="#007240"/>
<path d="M41.2001 68.8001C41.2001 68.2001 40.7 67.6001 40 67.6001C39.4 67.6001 38.8 68.1001 38.8 68.8001C38.8 69.4001 39.3 70.0001 40 70.0001C40.6 69.9001 41.2001 69.4001 41.2001 68.8001Z" fill="#007240"/>
<path d="M54.0999 68.8001C54.0999 68.2001 53.6 67.6001 52.9 67.6001C52.3 67.6001 51.7 68.1001 51.7 68.8001C51.7 69.4001 52.2 70.0001 52.9 70.0001C53.6 69.9001 54.0999 69.4001 54.0999 68.8001Z" fill="#007240"/>
<path d="M67.1 68.8001C67.1 68.2001 66.6 67.6001 65.9 67.6001C65.3 67.6001 64.7 68.1001 64.7 68.8001C64.7 69.4001 65.2 70.0001 65.9 70.0001C66.5 69.9001 67.1 69.4001 67.1 68.8001Z" fill="#007240"/>
</g>
<defs>
<clipPath id="clip0">
<rect width="67.1" height="69.9" fill="white"/>
</clipPath>
</defs>
</svg>
