<svg width="21" height="21" viewBox="0 0 21 21" fill="none" xmlns="http://www.w3.org/2000/svg">
<g clip-path="url(#clip0)">
<path d="M20.9787 6.17406C20.9295 5.05825 20.749 4.29114 20.4906 3.62643C20.2239 2.92085 19.8137 2.28915 19.2762 1.76402C18.7511 1.23071 18.1152 0.816306 17.4178 0.553819C16.7492 0.295338 15.9861 0.114898 14.8703 0.0657019C13.7462 0.0123391 13.3893 0 10.5382 0C7.68703 0 7.33016 0.0123391 6.21018 0.0615355C5.09437 0.110732 4.32726 0.291332 3.66271 0.549653C2.95698 0.816306 2.32528 1.22654 1.80015 1.76402C1.26684 2.28915 0.852598 2.92502 0.589951 3.62242C0.331471 4.29114 0.151031 5.05408 0.101835 6.16989C0.0484719 7.29403 0.0361328 7.65091 0.0361328 10.5021C0.0361328 13.3532 0.0484719 13.7101 0.0976682 14.83C0.146864 15.9459 0.327464 16.713 0.585945 17.3777C0.852598 18.0833 1.26684 18.715 1.80015 19.2401C2.32528 19.7734 2.96115 20.1878 3.65855 20.4503C4.32726 20.7088 5.09021 20.8892 6.20618 20.9384C7.32599 20.9878 7.68303 20.9999 10.5342 20.9999C13.3853 20.9999 13.7422 20.9878 14.8622 20.9384C15.978 20.8892 16.7451 20.7088 17.4096 20.4503C18.8209 19.9046 19.9367 18.7888 20.4824 17.3777C20.7407 16.709 20.9213 15.9459 20.9705 14.83C21.0197 13.7101 21.032 13.3532 21.032 10.5021C21.032 7.65091 21.0279 7.29403 20.9787 6.17406ZM19.0876 14.748C19.0424 15.7736 18.8701 16.3274 18.7265 16.6966C18.3737 17.6115 17.6476 18.3376 16.7327 18.6904C16.3635 18.834 15.8057 19.0063 14.7841 19.0513C13.6765 19.1007 13.3443 19.1128 10.5423 19.1128C7.74039 19.1128 7.40403 19.1007 6.3004 19.0513C5.27481 19.0063 4.72099 18.834 4.35178 18.6904C3.89652 18.5222 3.48211 18.2555 3.14575 17.9068C2.79705 17.5663 2.5304 17.1561 2.36214 16.7008C2.21856 16.3316 2.04629 15.7736 2.00126 14.7522C1.9519 13.6445 1.93972 13.3122 1.93972 10.5102C1.93972 7.70828 1.9519 7.37192 2.00126 6.26844C2.04629 5.24285 2.21856 4.68903 2.36214 4.31982C2.5304 3.86439 2.79705 3.45015 3.14992 3.11363C3.49029 2.76493 3.90052 2.49828 4.35595 2.33017C4.72516 2.18659 5.28315 2.01432 6.30457 1.96913C7.41221 1.91994 7.74456 1.9076 10.5463 1.9076C13.3525 1.9076 13.6846 1.91994 14.7883 1.96913C15.8139 2.01432 16.3677 2.18659 16.7369 2.33017C17.1922 2.49828 17.6066 2.76493 17.9429 3.11363C18.2916 3.45416 18.5583 3.86439 18.7265 4.31982C18.8701 4.68903 19.0424 5.24686 19.0876 6.26844C19.1368 7.37608 19.1491 7.70828 19.1491 10.5102C19.1491 13.3122 19.1368 13.6404 19.0876 14.748Z" fill="black"/>
<path d="M10.5382 5.10754C7.55994 5.10754 5.14355 7.52377 5.14355 10.5022C5.14355 13.4805 7.55994 15.8968 10.5382 15.8968C13.5165 15.8968 15.9328 13.4805 15.9328 10.5022C15.9328 7.52377 13.5165 5.10754 10.5382 5.10754ZM10.5382 14.0015C8.60605 14.0015 7.03881 12.4344 7.03881 10.5022C7.03881 8.56988 8.60605 7.0028 10.5382 7.0028C12.4704 7.0028 14.0375 8.56988 14.0375 10.5022C14.0375 12.4344 12.4704 14.0015 10.5382 14.0015Z" fill="black"/>
<path d="M17.4059 4.89416C17.4059 5.58964 16.842 6.15356 16.1464 6.15356C15.4509 6.15356 14.887 5.58964 14.887 4.89416C14.887 4.19852 15.4509 3.63477 16.1464 3.63477C16.842 3.63477 17.4059 4.19852 17.4059 4.89416Z" fill="black"/>
</g>
<defs>
<clipPath id="clip0">
<rect width="21" height="21" fill="white"/>
</clipPath>
</defs>
</svg>
