<svg width="56" height="56" viewBox="0 0 56 56" fill="none" xmlns="http://www.w3.org/2000/svg">
<g id="File/pdf">
<path id="file" d="M12 3.5C12 2.40343 12.9034 1.5 14 1.5H37.8787L51 14.6213V52.5C51 53.5966 50.0966 54.5 49 54.5H14C12.9034 54.5 12 53.5966 12 52.5V3.5Z" stroke="#DDDDDD" stroke-width="3"/>
<path id="corner" d="M48.8787 12.5H42C40.9034 12.5 40 11.5966 40 10.5V3.62132L48.8787 12.5Z" stroke="#DDDDDD" stroke-width="3"/>
<path id="Vector" d="M45.5 45.5C45.5 46.4625 44.7125 47.25 43.75 47.25H5.25C4.2875 47.25 3.5 46.4625 3.5 45.5V28C3.5 27.0375 4.2875 26.25 5.25 26.25H43.75C44.7125 26.25 45.5 27.0375 45.5 28V45.5Z" fill="#DC2421"/>
<g id="Group">
<path id="Vector_2" d="M11.1283 33.1572C11.1283 32.6952 11.4923 32.1912 12.0785 32.1912H15.3108C17.1308 32.1912 18.7688 33.4092 18.7688 35.7437C18.7688 37.9557 17.1308 39.1877 15.3108 39.1877H12.9745V41.0357C12.9745 41.6517 12.5825 41.9999 12.0785 41.9999C11.6165 41.9999 11.1283 41.6517 11.1283 41.0357V33.1572ZM12.9745 33.9534V37.4394H15.3108C16.2488 37.4394 16.9908 36.6117 16.9908 35.7437C16.9908 34.7654 16.2488 33.9534 15.3108 33.9534H12.9745Z" fill="white"/>
<path id="Vector_3" d="M21.5092 42C21.0472 42 20.5432 41.748 20.5432 41.1338V33.1853C20.5432 32.683 21.0472 32.3173 21.5092 32.3173H24.7135C31.108 32.3173 30.968 42 24.8395 42H21.5092ZM22.3912 34.0253V40.2938H24.7135C28.4917 40.2938 28.6597 34.0253 24.7135 34.0253H22.3912Z" fill="white"/>
<path id="Vector_4" d="M33.2359 34.1372V36.3614H36.8042C37.3082 36.3614 37.8122 36.8654 37.8122 37.3537C37.8122 37.8157 37.3082 38.1937 36.8042 38.1937H33.2359V41.1319C33.2359 41.6219 32.8876 41.9982 32.3976 41.9982C31.7816 41.9982 31.4054 41.6219 31.4054 41.1319V33.1834C31.4054 32.6812 31.7834 32.3154 32.3976 32.3154H37.3099C37.9259 32.3154 38.2899 32.6812 38.2899 33.1834C38.2899 33.6314 37.9259 34.1354 37.3099 34.1354H33.2359V34.1372Z" fill="white"/>
</g>
</g>
</svg>
