<svg width="16" height="16" viewBox="0 0 16 16" fill="none" xmlns="http://www.w3.org/2000/svg">
<path d="M15.6743 14.112L12.2931 10.7303C13.1149 9.58717 13.5667 8.22121 13.5667 6.78335C13.5667 4.97221 12.8616 3.26891 11.5792 1.98756C10.2995 0.706761 8.59505 0 6.7828 0C4.9711 0 3.26725 0.705102 1.98645 1.98756C0.705655 3.2678 0 4.97166 0 6.78335C0 8.59505 0.705102 10.2984 1.98645 11.5803C3.26725 12.8611 4.97055 13.5678 6.7828 13.5678C8.2201 13.5678 9.58496 13.1182 10.7292 12.2942L14.1103 15.6759C14.3271 15.8922 14.6092 16 14.8923 16C15.176 16 15.4586 15.8922 15.6743 15.6759C16.1062 15.2435 16.1062 14.5439 15.6743 14.112ZM3.55095 10.0158C2.68713 9.15194 2.21208 8.00332 2.21208 6.7828C2.21208 5.56228 2.68713 4.41477 3.55095 3.55095C4.41421 2.68713 5.56173 2.21153 6.7828 2.21153C8.00387 2.21153 9.15194 2.68713 10.0152 3.55095C10.879 4.41477 11.3546 5.56284 11.3546 6.78335C11.3546 8.00387 10.8796 9.15194 10.0152 10.0163C9.15139 10.8801 8.00442 11.3546 6.7828 11.3546C5.56118 11.3546 4.41311 10.879 3.55095 10.0158Z" fill="white"/>
</svg>
