<svg width="24" height="24" viewBox="0 0 24 24" fill="none" xmlns="http://www.w3.org/2000/svg">
<g opacity="0.2">
<path d="M12 2C6.48583 2 2 6.48583 2 12C2 17.5142 6.48583 22 12 22C17.5142 22 22 17.5142 22 12C22 6.48583 17.5142 2 12 2ZM16.7558 17.1725C16.5933 17.335 16.38 17.4167 16.1667 17.4167C15.9533 17.4167 15.74 17.335 15.5775 17.1725L11.4108 13.0058C11.2542 12.85 11.1667 12.6383 11.1667 12.4167V7C11.1667 6.53917 11.54 6.16667 12 6.16667C12.46 6.16667 12.8333 6.53917 12.8333 7V12.0717L16.7558 15.9942C17.0817 16.32 17.0817 16.8467 16.7558 17.1725Z" fill="black"/>
</g>
</svg>
