<svg width="122" height="28" viewBox="0 0 122 28" fill="none" xmlns="http://www.w3.org/2000/svg">
<path d="M7.25494 16.1596V14.9665H2.36348L7.03532 8.17255V6.97952H0.329893V8.15448H4.72697L0 14.8942V16.1596H7.25494ZM17.0433 11.4254C17.0433 8.57023 15.486 6.74543 12.6471 6.74543C9.12946 6.74543 8.06748 9.47405 8.06748 11.6965C8.06748 14.5508 9.62475 16.3783 12.4636 16.3783C15.9813 16.3783 17.0433 13.6479 17.0433 11.4254ZM14.7901 11.5519C14.7901 13.8458 14.2044 15.1292 12.592 15.1292C10.9064 15.1292 10.3207 13.6831 10.3207 11.5519C10.3207 9.25623 10.9064 7.99179 12.5188 7.99179C14.2044 7.99179 14.7901 9.41982 14.7901 11.5519ZM27.2176 11.4254C27.2176 8.57023 25.6603 6.74543 22.8205 6.74543C19.3037 6.74543 18.2408 9.47405 18.2408 11.6965C18.2408 14.5508 19.7981 16.3783 22.637 16.3783C26.1547 16.3783 27.2176 13.6479 27.2176 11.4254ZM24.9634 11.5519C24.9634 13.8458 24.3778 15.1292 22.7654 15.1292C21.0806 15.1292 20.4941 13.6831 20.4941 11.5519C20.4941 9.25623 21.0806 7.99179 22.6921 7.99179C24.3778 7.99179 24.9643 9.41982 24.9643 11.5519H24.9634ZM42.2083 16.1596V10.5397C42.2083 10.1239 42.2083 9.45507 42.0619 8.80432C41.6036 6.89004 39.8267 6.74543 39.0576 6.74543C37.0059 6.74543 35.943 7.93847 35.943 7.93847C35.943 7.93847 35.3935 6.7635 33.3789 6.7635C31.5098 6.7635 30.6855 7.88424 30.6855 7.88424V6.96234H28.5796V16.1587H30.7406V8.49793C30.7406 8.49793 31.3272 8.15448 32.2798 8.15448C33.4521 8.15448 34.0568 8.66062 34.2212 9.61866C34.2945 10.0525 34.2945 10.4854 34.2945 11.0277V16.1596H36.4745V10.8831C36.4745 10.4854 36.4925 9.70814 36.3832 9.11162C36.31 8.76817 36.2368 8.57023 36.2368 8.57023C36.2368 8.57023 36.9327 8.17255 37.9585 8.17255C38.8931 8.17255 39.7906 8.42562 39.974 9.60059C40.0463 10.0344 40.0463 10.4854 40.0463 11.0277V16.1596H42.2083ZM73.0646 7.05272C72.7889 6.94427 72.441 6.78158 71.8173 6.78158C70.3351 6.78158 69.565 8.11923 69.565 8.11923V6.96234H67.4772V16.1587H69.6373V8.69767C69.6373 8.69767 70.2067 8.35422 71.0853 8.35422C71.8915 8.35422 72.3497 8.66152 72.5503 8.80613L73.0637 7.05272H73.0646ZM81.0435 16.1596V10.7385C81.0435 10.2324 81.0616 9.02124 80.8781 8.47985C80.6955 7.91949 80.146 6.7626 77.6723 6.7626C75.7309 6.7626 74.6318 7.23258 74.6318 7.23258L75.0901 8.49793C75.0901 8.49793 75.9143 8.00987 77.1237 8.00987C77.966 8.00987 78.5698 8.22678 78.8084 8.93176C78.9177 9.25714 78.9367 9.78135 78.9367 10.2875V10.9373C78.9367 10.9373 78.2589 10.8831 77.6171 10.8831C76.5 10.8831 75.5112 10.9554 74.7782 11.4796C74.1185 11.9496 73.7524 12.6546 73.7524 13.6298C73.7524 15.2558 74.8695 16.2888 76.6103 16.2888C78.2408 16.2888 78.9918 15.31 78.9918 15.31V16.1596H81.0435ZM78.9376 14.7858C78.9376 14.7858 78.4604 15.0208 77.6361 15.0208C76.7938 15.0208 75.8954 14.6954 75.8954 13.5204C75.8954 13.0685 76.0427 12.5452 76.5009 12.2379C76.8661 12.0029 77.3614 11.8945 77.9841 11.8945C78.7532 11.8945 78.9367 11.9126 78.9367 11.9126V14.7867L78.9376 14.7858ZM91.6561 11.3531C91.6561 8.47985 90.173 6.81773 87.8095 6.81773C85.9223 6.81773 85.1902 7.90231 85.1902 7.90231V6.96234H83.0834V19.8201H85.2445V15.9427C85.2445 15.9427 85.831 16.325 87.2238 16.325C89.7328 16.325 91.6561 14.3881 91.6561 11.3531ZM89.4029 11.5158C89.4029 13.7563 88.5606 15.1473 86.4176 15.1473C85.6846 15.1473 85.2445 14.9846 85.2445 14.9846V8.53408C85.2445 8.53408 85.813 8.19063 86.7656 8.19063C88.4874 8.19063 89.4029 9.51021 89.4029 11.5149V11.5158ZM101.207 16.1596V10.63C101.207 10.2143 101.207 9.47315 101.06 8.8224C100.841 7.88333 100.072 6.7635 98.1483 6.7635C96.206 6.7635 95.3997 7.88424 95.3997 7.88424V2.85449H93.2387V16.1587H95.3997V8.49702C95.3997 8.49702 96.0595 8.15357 96.976 8.15357C98.038 8.15357 98.771 8.56933 98.9725 9.59968C99.0458 9.99736 99.0457 10.5216 99.0457 11.0991V16.1587H101.207V16.1596ZM105.673 4.57446C105.673 3.86948 105.142 3.43565 104.391 3.43565C103.585 3.43565 103.072 3.88756 103.072 4.64676C103.072 5.35174 103.603 5.78557 104.355 5.78557C105.16 5.78557 105.673 5.33366 105.673 4.57446ZM105.472 16.1587V6.96234H103.31V16.1587H105.472ZM114.355 7.23258C114.355 7.23258 113.402 6.78068 111.919 6.78068C109.72 6.78068 108.438 7.70257 107.742 8.80432C107.211 9.63583 106.991 10.63 106.991 11.7318C106.991 14.4595 108.567 16.3051 111.516 16.3051C113.457 16.3051 114.337 15.761 114.337 15.761L113.897 14.5499C113.714 14.6583 113.072 14.9837 112.101 14.9837C109.977 14.9837 109.207 13.3388 109.207 11.551C109.207 9.11072 110.178 8.06319 112.119 8.06319C113.275 8.06319 113.915 8.5151 113.915 8.5151L114.355 7.23168V7.23258ZM122 13.4662C122 12.3274 121.414 11.6044 120.315 11.044L118.923 10.3218C118.135 9.90608 117.75 9.70724 117.75 9.05649C117.75 8.22588 118.594 8.00896 119.326 8.00896C120.517 8.00896 121.341 8.5151 121.341 8.5151L121.78 7.24976C121.78 7.24976 120.847 6.7617 119.106 6.7617C117.165 6.7617 115.845 7.57513 115.845 9.31046C115.845 10.5577 116.487 11.1895 117.659 11.8402L119.088 12.6347C119.729 12.9962 120.022 13.1951 120.022 13.8097C120.022 14.5689 119.418 15.0199 118.3 15.0199C116.761 15.0199 115.955 14.5137 115.955 14.5137L115.516 15.761C115.516 15.761 116.468 16.2879 118.501 16.2879C120.132 16.2879 122 15.7068 122 13.4662Z" fill="black"/>
<path fill-rule="evenodd" clip-rule="evenodd" d="M54.7828 0C60.4896 0 65.118 4.56518 65.118 10.1942C65.118 13.2012 63.7966 15.9045 61.6961 17.77C61.7838 17.4057 61.8245 17.0388 61.8245 16.679C61.8245 13.4398 58.784 13.4398 57.3994 13.4398C56.0148 13.4398 55.6894 13.4931 54.6581 13.4931C53.7896 13.4931 52.9481 13.4127 52.9481 12.3416C52.9481 11.6457 53.5175 11.164 53.5175 11.164C53.5175 11.164 54.0065 11.2444 54.7123 11.2444C58.3493 11.2444 59.9924 9.31022 60.1678 6.79942C60.5682 1.06379 49.0147 0.949912 49.1475 6.71988C49.2289 10.2267 52.3236 10.8422 52.3236 10.8422C52.3236 10.8422 50.233 11.6728 50.233 13.6802C50.2224 14.059 50.3219 14.4327 50.5196 14.756C50.7172 15.0793 51.0045 15.3382 51.3465 15.5014C51.3465 15.5014 48.6848 16.0111 48.4109 18.2192C45.9986 16.3528 44.4477 13.4524 44.4477 10.1933C44.4477 4.56518 49.0752 0 54.7828 0Z" fill="black"/>
<path d="M58.7797 7.0621C58.7797 7.95417 58.5998 8.93481 57.5233 9.44818C57.088 9.62864 56.6208 9.71933 56.1495 9.71481C54.1765 9.71481 53.5194 8.44494 53.5194 7.0847C53.5194 6.21523 53.6984 5.25628 54.7441 4.74381C55.1029 4.58745 55.581 4.45459 56.1197 4.45459C58.0918 4.45459 58.7797 5.70186 58.7797 7.0621ZM1.14954 25.772H0.797046L0.833199 25.5235V24.7209L0.853987 23.6697V22.3339L0.832295 21.4671V20.97L0.810604 20.679L0.796143 20.4802L1.1423 20.501L1.46678 20.4802L1.42339 20.6853V22.3339L1.40893 22.9521L1.42339 23.677V25.5515L1.46678 25.772H1.14954ZM9.08053 22.4478C9.31101 22.3529 9.55414 22.3059 9.80811 22.3059C10.3215 22.3059 10.7309 22.4686 11.0364 22.7921C11.341 23.1175 11.4928 23.5369 11.4928 24.053C11.4928 24.5736 11.3347 25.0038 11.0183 25.3427C10.7011 25.6807 10.2763 25.8498 9.74394 25.8498C9.39777 25.8498 9.09048 25.7702 8.82204 25.6084C8.53685 25.4563 8.31279 25.2105 8.18756 24.9125C8.082 24.6708 8.03049 24.4089 8.03663 24.1452C8.03663 23.2883 8.38459 22.7225 9.08053 22.4478ZM8.68466 24.1316C8.68466 24.259 8.69189 24.3756 8.70635 24.4796C8.72081 24.5835 8.74703 24.6947 8.78589 24.8131C8.9296 25.3292 9.24413 25.5877 9.72857 25.5877C10.2573 25.5877 10.6026 25.2704 10.7662 24.6359C10.8185 24.4365 10.8449 24.2311 10.8448 24.025C10.8448 23.6553 10.7707 23.3308 10.6215 23.0515C10.4498 22.7298 10.1705 22.5689 9.78642 22.5689C9.29203 22.5689 8.96394 22.8428 8.79945 23.3923C8.72101 23.6308 8.68224 23.8805 8.68466 24.1316ZM18.7116 22.4478C18.9421 22.3529 19.1843 22.3059 19.4392 22.3059C19.9526 22.3059 20.3611 22.4686 20.6666 22.7921C20.9712 23.1175 21.1239 23.5369 21.1239 24.053C21.1239 24.5736 20.9657 25.0038 20.6485 25.3427C20.3322 25.6807 19.9074 25.8498 19.3741 25.8498C19.028 25.8498 18.7207 25.7702 18.4522 25.6084C18.1674 25.4561 17.9436 25.2104 17.8186 24.9125C17.7131 24.6708 17.6616 24.4089 17.6677 24.1452C17.6677 23.2883 18.0157 22.7225 18.7116 22.4478ZM18.3157 24.1316C18.3088 24.363 18.3431 24.5937 18.417 24.8131C18.5607 25.3292 18.8752 25.5877 19.3596 25.5877C19.8875 25.5877 20.2336 25.2704 20.3963 24.6359C20.4486 24.4365 20.4754 24.2312 20.4759 24.025C20.4759 23.6553 20.4018 23.3308 20.2526 23.0515C20.08 22.7298 19.8007 22.5689 19.4175 22.5689C18.9231 22.5689 18.5941 22.8428 18.4305 23.3923C18.3521 23.6308 18.3133 23.8805 18.3157 24.1316ZM27.8311 20.5019L28.1764 20.4802L28.1484 20.651V20.8923L28.1195 21.6669V23.8397L28.2776 23.8324C28.33 23.8234 28.3951 23.7809 28.4719 23.7059L28.6663 23.5279C28.7575 23.4519 28.8895 23.3145 29.063 23.1157L29.4083 22.746L29.5809 22.5544L29.7038 22.3764L30.0563 22.3981L30.3727 22.3764L30.172 22.5617L29.9415 22.7605L29.5375 23.1085L29.0838 23.5134L28.753 23.8044L29.1091 24.1912L29.646 24.7986L30.1928 25.4096L30.4016 25.6084L30.6113 25.772L30.0636 25.7576L29.6731 25.772L29.5583 25.603L29.3803 25.3734L28.9401 24.8275L28.4502 24.2807L28.227 24.025H28.1185V25.3029C28.1185 25.4213 28.1285 25.5072 28.1484 25.5587L28.1764 25.772L27.8311 25.7576L27.5067 25.772L27.5356 25.5732V25.3029L27.5645 24.6567V21.6597L27.5356 20.8914V20.6655L27.5067 20.4802L27.8311 20.501V20.5019ZM36.9362 25.5732V24.8556L36.9579 23.9888L36.9362 23.3001V22.5689L36.9 22.3764L37.2317 22.3981L37.5698 22.3764L37.5336 22.5752V23.3146L37.5119 23.9888L37.5336 24.8565V25.5795L37.5698 25.772L37.2462 25.7576L36.9 25.772L36.9362 25.5732ZM36.9877 20.9131C37.0227 20.8771 37.0646 20.8485 37.1108 20.8291C37.1571 20.8097 37.2069 20.7998 37.257 20.8001C37.5038 20.8001 37.6276 20.9203 37.6276 21.1617C37.6276 21.3985 37.5038 21.5169 37.257 21.5169C37.2081 21.5186 37.1593 21.5103 37.1136 21.4926C37.0679 21.4749 37.0263 21.4481 36.9913 21.4138C36.9572 21.3816 36.9301 21.3426 36.9119 21.2994C36.8937 21.2561 36.8847 21.2095 36.8856 21.1626C36.8856 21.0631 36.9199 20.98 36.9877 20.9131ZM44.409 25.6229L44.4261 25.4168L44.4424 25.0761V22.7958L44.409 22.512L44.3927 22.3764L44.7163 22.3981L45.0326 22.3764L44.9964 22.5047L44.9756 22.7533V22.9449L45.0977 22.7822C45.3661 22.4641 45.705 22.3059 46.1172 22.3059C46.4326 22.3059 46.7001 22.3918 46.9179 22.5653C47.1349 22.737 47.2587 22.9828 47.2867 23.3001V25.3888L47.3093 25.6374L47.3301 25.7729L47.0065 25.7576L46.6676 25.772L46.6983 25.6229L46.7182 25.3391V23.7122V23.5342C46.7106 23.5015 46.7057 23.4682 46.7037 23.4348C46.6993 23.3297 46.6729 23.2268 46.6261 23.1326C46.5794 23.0384 46.5135 22.9551 46.4326 22.8879C46.2732 22.7561 46.0719 22.6856 45.865 22.6891C45.3869 22.6891 45.113 22.9404 45.0407 23.442L44.9973 23.9183V25.4024L45.0245 25.6229L45.0615 25.772L44.7018 25.7576L44.3927 25.772L44.409 25.6229ZM54.3473 25.3671C54.1693 25.2867 54.0807 25.1448 54.0807 24.9414C54.0807 24.6992 54.2651 24.5049 54.6347 24.3585L54.397 24.2735C54.0473 24.128 53.8719 23.8397 53.8719 23.4104C53.8719 23.0136 54.0418 22.7189 54.3835 22.5246C54.4558 22.4821 54.5263 22.4478 54.5959 22.4198C54.6655 22.3908 54.7414 22.371 54.8264 22.3592C54.9095 22.3475 54.9963 22.3366 55.0848 22.3267C55.1819 22.317 55.2793 22.3125 55.3768 22.3131H55.6723L56.1188 22.3411H56.5219L56.9323 22.2842V22.662L56.5725 22.6123H56.2625C56.512 22.8147 56.6376 23.066 56.6376 23.3624C56.6376 23.489 56.6105 23.6128 56.5581 23.7294C56.5007 23.876 56.4064 24.0052 56.2842 24.1045C56.0158 24.3449 55.6967 24.466 55.3262 24.466H55.0098C54.6935 24.466 54.5344 24.5627 54.5344 24.757C54.5344 24.9468 54.7025 25.0417 55.0387 25.0417H55.8377C56.164 25.0417 56.4252 25.1032 56.6222 25.2252C56.8771 25.3798 57.0046 25.6012 57.0046 25.8877C57.0046 26.2926 56.8075 26.6288 56.4135 26.8973C56.1016 27.1097 55.7157 27.2145 55.2548 27.2145H54.9737C54.9235 27.2045 54.8732 27.1952 54.8227 27.1865C54.5245 27.144 54.2922 27.0564 54.1241 26.9244C53.8936 26.7436 53.7779 26.533 53.7779 26.2917C53.7779 25.9266 54.0545 25.6527 54.6067 25.4674C54.515 25.4503 54.4271 25.4166 54.3473 25.368V25.3671ZM54.2606 26.2547C54.2606 26.4969 54.3735 26.6813 54.5986 26.8087C54.7667 26.9036 54.9927 26.9515 55.2765 26.9515C55.5928 26.9515 55.8522 26.8946 56.0537 26.7807C56.3276 26.6288 56.4641 26.4165 56.4641 26.1417C56.4641 25.7106 56.1025 25.4955 55.3768 25.4955C55.2087 25.4955 55.0532 25.509 54.9086 25.5379C54.4766 25.6229 54.2606 25.8624 54.2606 26.2547ZM54.5344 23.386C54.5344 23.9346 54.7685 24.2093 55.2367 24.2093C55.3415 24.2129 55.4457 24.1924 55.5413 24.1493C55.6369 24.1062 55.7213 24.0417 55.788 23.9608C55.9173 23.8189 55.9814 23.6246 55.9814 23.3778C55.9875 23.1538 55.9083 22.9358 55.76 22.7677C55.6497 22.6349 55.4825 22.5689 55.2584 22.5689C55.0234 22.5689 54.8408 22.6493 54.7061 22.8102C54.5914 22.9711 54.5344 23.1627 54.5344 23.386ZM64.9211 22.5472L64.8994 22.3411L64.9934 22.3692C65.0512 22.3881 65.1398 22.3981 65.26 22.3981H65.3748L65.3965 22.1703C65.4209 21.9905 65.4417 21.8639 65.458 21.7907C65.4742 21.7175 65.4995 21.638 65.5339 21.553C65.5962 21.3542 65.7056 21.1571 65.8611 20.9628C66.0174 20.7685 66.1937 20.6221 66.3907 20.5227C66.4531 20.4946 66.5055 20.4748 66.5489 20.4621C66.5982 20.4495 66.6489 20.4434 66.6998 20.444H66.8083L66.8878 20.4657L66.8652 20.764L66.8878 21.0839L66.6998 21.0243C66.6251 21.0018 66.5474 20.9908 66.4693 20.9917C66.0716 20.9917 65.8728 21.1897 65.8728 21.5846L65.8981 21.9886L65.9514 22.3981H66.2108L66.5416 22.3583L66.6998 22.3411L66.6709 22.5544L66.6862 22.7533L66.4766 22.7244L66.1602 22.6972H65.937L65.9297 22.9133V24.297L65.9514 25.2858V25.575L65.9876 25.772L65.6704 25.7576L65.3179 25.772L65.3468 25.5732V25.2749L65.3748 24.288V22.6963H65.26C65.1895 22.6969 65.1193 22.7066 65.0512 22.7253L64.8994 22.7533L64.9211 22.5472ZM73.6728 22.4478C73.9041 22.3529 74.1464 22.3059 74.4012 22.3059C74.9146 22.3059 75.3231 22.4686 75.6286 22.7921C75.9341 23.1175 76.0859 23.5369 76.0859 24.053C76.0859 24.5736 75.9278 25.0038 75.6105 25.3427C75.2942 25.6807 74.8694 25.8498 74.3362 25.8498C73.99 25.8498 73.6836 25.7702 73.4143 25.6084C73.1294 25.4561 72.9057 25.2104 72.7807 24.9125C72.6748 24.6708 72.623 24.4089 72.6288 24.1452C72.6288 23.2883 72.9777 22.7225 73.6737 22.4478H73.6728ZM73.2778 24.1316C73.2705 24.3629 73.3045 24.5937 73.3781 24.8131C73.5227 25.3292 73.8363 25.5877 74.3217 25.5877C74.8495 25.5877 75.1957 25.2704 75.3584 24.6359C75.4112 24.4366 75.438 24.2312 75.4379 24.025C75.4379 23.6553 75.3638 23.3308 75.2147 23.0515C75.042 22.7298 74.7628 22.5689 74.3795 22.5689C73.8851 22.5689 73.5562 22.8428 73.3926 23.3923C73.3141 23.6308 73.2754 23.8805 73.2778 24.1316ZM82.6061 25.5877V24.9767L82.6133 24.109V23.2007L82.6061 22.8247V22.5327L82.5555 22.3764L82.9152 22.3981L83.2614 22.3764L83.236 22.5481L83.2035 22.803V22.9874L83.3978 22.7253C83.6283 22.4451 83.8705 22.3059 84.1254 22.3059L84.298 22.3267L84.392 22.3484L84.298 22.6394L84.2691 22.9521L84.1037 22.8952C84.0369 22.8705 83.9661 22.8583 83.8949 22.859C83.4774 22.859 83.2406 23.1247 83.1854 23.6553C83.1758 23.7665 83.1698 23.8781 83.1674 23.9897V25.3174L83.2035 25.5732L83.2252 25.772L82.9224 25.7576L82.5555 25.772L82.6061 25.5877ZM90.5009 22.3981L90.8679 22.3764L90.9185 22.5897L90.9836 22.8247L91.0993 23.2151L91.3189 23.8243L91.4924 24.3386L91.7383 24.9622L91.9687 24.3657L92.1649 23.8261L92.3773 23.1736L92.4776 22.8536L92.5607 22.5825L92.6114 22.3764L92.8563 22.3981L93.1012 22.3764L93.1654 22.5897L93.2522 22.8672L93.3669 23.2224L93.5748 23.8261L93.7782 24.3937L93.9942 24.9767L94.2247 24.4154L94.447 23.8189L94.6549 23.2151L94.7859 22.8382L94.8582 22.5897L94.9016 22.3764L95.189 22.3981L95.4629 22.3764L95.3544 22.5897L95.2107 22.8807L95.0453 23.2431L94.7823 23.884L94.3322 24.9839L94.1668 25.4024L94.1036 25.6084L94.0529 25.772H93.6435L93.6074 25.6093L93.5423 25.3816L93.4212 24.9821L93.2052 24.3783L92.9204 23.6273L92.7325 23.1437L92.5508 23.6472L92.2869 24.3792L92.0926 24.9487L91.9489 25.3816L91.8838 25.6166L91.8404 25.772H91.4301L91.3794 25.6093L91.3071 25.3671L91.149 24.9197L90.7531 23.8894L90.5082 23.2504L90.3283 22.831L90.2198 22.5825L90.1268 22.3764L90.5009 22.3981ZM101.789 22.718L101.882 22.6394C102.055 22.5165 102.264 22.4225 102.509 22.3556C102.58 22.3411 102.651 22.3294 102.721 22.3194C102.956 22.2879 103.195 22.3048 103.423 22.3692C103.682 22.4505 103.882 22.5996 104.021 22.8175C104.117 22.9548 104.165 23.1961 104.165 23.5414V25.3743C104.179 25.5162 104.258 25.5877 104.403 25.5877L104.518 25.5804L104.561 25.7431L104.497 25.7648L104.301 25.8217L104.079 25.8498C103.86 25.8498 103.722 25.7503 103.667 25.5515L103.624 25.4096L103.516 25.4882C103.444 25.5452 103.364 25.594 103.276 25.6374C103.185 25.6943 103.086 25.7368 102.979 25.7648C102.831 25.8198 102.674 25.8488 102.515 25.8507C102.39 25.8507 102.269 25.8335 102.154 25.8C101.708 25.6826 101.486 25.4024 101.486 24.9622C101.486 24.8013 101.518 24.6567 101.58 24.5284C101.652 24.3637 101.778 24.228 101.936 24.1424C102.112 24.0566 102.301 24.0001 102.495 23.9752L103.185 23.8469L103.445 23.7836C103.488 23.772 103.527 23.75 103.56 23.7195C103.594 23.6813 103.616 23.6343 103.624 23.5839V23.4284C103.596 23.1392 103.524 22.9313 103.408 22.803C103.265 22.6466 103.059 22.568 102.789 22.568C102.674 22.568 102.568 22.5816 102.469 22.6078C102.371 22.634 102.28 22.671 102.199 22.718C102.064 22.7885 101.954 22.9187 101.867 23.1085H101.789V22.718ZM103.624 24.0394L103.181 24.1099C103.031 24.1334 102.895 24.1641 102.774 24.2021C102.347 24.3106 102.134 24.5311 102.134 24.8628C102.134 25.2605 102.357 25.4593 102.803 25.4593C103.089 25.4593 103.334 25.3626 103.537 25.1683L103.624 25.0761V24.0385V24.0394ZM110.952 25.5877V24.9767L110.959 24.109V23.2007L110.952 22.8247V22.5327L110.901 22.3764L111.261 22.3981L111.607 22.3764L111.582 22.5481L111.549 22.803V22.9874L111.743 22.7253C111.974 22.4451 112.216 22.3059 112.471 22.3059L112.644 22.3267L112.738 22.3484L112.644 22.6394L112.615 22.9521L112.449 22.8952C112.382 22.8705 112.312 22.8582 112.24 22.859C111.823 22.859 111.586 23.1247 111.531 23.6553C111.521 23.7665 111.515 23.8781 111.513 23.9897V25.3174L111.549 25.5732L111.571 25.772L111.268 25.7576L110.901 25.772L110.952 25.5877ZM121.255 25.6229L121.288 25.2469V25.0119L121.194 25.1827C120.935 25.6274 120.546 25.8498 120.028 25.8498C119.552 25.8498 119.18 25.6654 118.912 25.2957C118.68 24.9694 118.565 24.5618 118.565 24.0747C118.565 23.5776 118.695 23.1672 118.954 22.8455C119.261 22.4857 119.653 22.3059 120.128 22.3059C120.334 22.3059 120.542 22.3538 120.751 22.4505C120.96 22.5481 121.11 22.6873 121.201 22.8663L121.237 22.9449L121.223 22.2489L121.208 21.2755V20.6573L121.186 20.4802L121.504 20.501L121.849 20.4802L121.835 20.6582L121.814 20.9276V23.6273L121.792 24.8348L121.814 25.2749V25.6093L121.849 25.772L121.54 25.7576L121.23 25.772L121.255 25.6229ZM119.213 24.025V24.2238C119.213 24.2943 119.223 24.3937 119.242 24.522C119.257 24.6784 119.295 24.8248 119.358 24.9622C119.512 25.3508 119.783 25.5452 120.171 25.5452C120.589 25.5452 120.886 25.3364 121.064 24.9197C121.16 24.692 121.208 24.3964 121.208 24.0322C121.208 23.6056 121.122 23.2621 120.949 23.0018C120.776 22.7415 120.541 22.6114 120.244 22.6114C119.557 22.6114 119.213 23.0823 119.213 24.025Z" fill="black"/>
</svg>
